<svg width="41" height="40" viewBox="0 0 41 40" fill="none" xmlns="http://www.w3.org/2000/svg">
<g clip-path="url(#clip0_2234_87669)">
<path d="M36.056 14.688V32.2214H4.94488V7.77691H25.5782C25.5271 7.40802 25.5015 7.03691 25.5004 6.6658C25.5015 6.29358 25.5271 5.92247 25.5782 5.55469H4.94488C3.7171 5.55469 2.72266 6.54913 2.72266 7.77691V32.2214C2.72266 33.448 3.7171 34.4436 4.94488 34.4436H36.056C37.2827 34.4436 38.2782 33.448 38.2782 32.2214V13.7102C37.5893 14.1436 36.8404 14.4725 36.056 14.688Z" fill="#44A08D"/>
<path d="M17.853 16.9136L11.1663 26.6314L6.66406 22.6492L7.84184 21.3181L10.8396 23.9692L17.8685 13.7559L25.3685 24.8836L32.873 14.967L34.2907 16.0403L25.2841 27.9392L17.853 16.9136Z" fill="#44A08D"/>
<path d="M33.8329 12.2224C36.9011 12.2224 39.3885 9.73513 39.3885 6.66688C39.3885 3.59863 36.9011 1.11133 33.8329 1.11133C30.7647 1.11133 28.2773 3.59863 28.2773 6.66688C28.2773 9.73513 30.7647 12.2224 33.8329 12.2224Z" fill="#44A08D"/>
</g>
<defs>
<clipPath id="clip0_2234_87669">
<rect width="40" height="40" fill="white" transform="translate(0.5)"/>
</clipPath>
</defs>
</svg>
