<svg width="21" height="19" viewBox="0 0 21 19" fill="none" xmlns="http://www.w3.org/2000/svg">
<path d="M11.9234 8.0499L8.02344 4.1499L9.09844 3.0999L11.9234 5.9249L17.5984 0.274902L18.6484 1.3249L11.9234 8.0499ZM12.8234 18.7999L5.52344 16.6999V18.0749H0.523438V8.4999H7.67344L13.7984 10.7499C14.2484 10.9332 14.6234 11.2372 14.9234 11.6619C15.2234 12.0872 15.3734 12.5832 15.3734 13.1499H17.8734C18.5901 13.1499 19.1778 13.3956 19.6364 13.8869C20.0944 14.3789 20.3234 15.0166 20.3234 15.7999V16.4499L12.8234 18.7999ZM2.02344 16.5749H4.02344V9.9999H2.02344V16.5749ZM12.7734 17.1999L18.7484 15.3499C18.7151 15.1332 18.6194 14.9622 18.4614 14.8369C18.3028 14.7122 18.1068 14.6499 17.8734 14.6499H13.1484C12.6651 14.6499 12.2068 14.6206 11.7734 14.5619C11.3401 14.5039 10.9151 14.3999 10.4984 14.2499L8.64844 13.6249L9.12344 12.1749L11.0734 12.8249C11.3901 12.9416 11.7528 13.0249 12.1614 13.0749C12.5694 13.1249 13.1401 13.1499 13.8734 13.1499C13.8734 12.8999 13.8194 12.6872 13.7114 12.5119C13.6028 12.3372 13.4568 12.2166 13.2734 12.1499L7.42344 9.9999H5.52344V15.1499L12.7734 17.1999Z" fill="#1C1B1F"/>
</svg>
