<svg width="33" height="40" viewBox="0 0 33 40" fill="none" xmlns="http://www.w3.org/2000/svg">
<g clip-path="url(#clip0_2234_87600)">
<path d="M27.2284 40.0001H2.24479C1.65052 40.0001 1.08054 39.7642 0.660026 39.3443C0.239508 38.9244 0.00283058 38.3548 0.00196806 37.7605V2.2299C0.000892819 1.93679 0.057869 1.64638 0.169609 1.3754C0.281349 1.10443 0.445642 0.85827 0.653006 0.65112C0.860599 0.442531 1.10776 0.277498 1.37998 0.165701C1.6522 0.0539048 1.94401 -0.00240376 2.23828 7.86441e-05H29.7935C30.388 0.000939722 30.958 0.237515 31.3784 0.657942C31.7989 1.07837 32.0354 1.64834 32.0363 2.24292V30.2996V33.672V39.9903L27.2284 40.0001ZM30.106 38.086V33.6296V2.24292C30.1048 2.16023 30.0722 2.08109 30.0148 2.02156C29.9558 1.96298 29.8766 1.9292 29.7935 1.92716H2.24479C2.2013 1.92428 2.1577 1.93073 2.1169 1.94607C2.0761 1.96142 2.03905 1.9853 2.00823 2.01612C1.97741 2.04694 1.95353 2.08399 1.93819 2.12479C1.92285 2.16559 1.9164 2.20919 1.91928 2.25268V37.7605C1.92126 37.842 1.95378 37.9199 2.01042 37.9786C2.07025 38.038 2.15076 38.0718 2.23503 38.073H30.106V38.086ZM6.18683 33.8542V31.8555H17.9381V33.8542H6.18683ZM6.18683 28.4929V26.4942H24.2076V28.4897L6.18683 28.5059V28.4929ZM24.1913 20.8334V22.8223H21.3625V20.8334H24.1913ZM19.1327 19.0658V22.8061H16.304V19.0658H19.1327ZM14.0774 13.7078V22.8223H11.2487V13.7078H14.0774ZM9.01885 9.95776V22.8061H6.18683V9.95776H9.01885ZM22.5084 10.0457L27.0852 10.0619C27.0833 10.6676 26.9619 11.2669 26.7278 11.8256C26.4938 12.3842 26.1517 12.8911 25.7212 13.3171C25.5197 13.5145 25.3007 13.6932 25.0669 13.851L22.5084 10.0457ZM22.0396 9.13745L21.7922 4.25464C21.7913 4.23155 21.795 4.20852 21.8031 4.18685C21.8111 4.16519 21.8233 4.14533 21.8391 4.1284C21.8548 4.11147 21.8737 4.0978 21.8947 4.08818C21.9157 4.07857 21.9384 4.07318 21.9615 4.07234C23.2343 3.94214 24.7219 4.55412 25.6529 5.40698C26.6069 6.28554 27.1891 7.49544 27.2805 8.78914C27.2832 8.83525 27.2676 8.88056 27.2371 8.91529C27.2067 8.95001 27.1638 8.97134 27.1177 8.97469L22.2349 9.32625C22.1888 9.32894 22.1435 9.31337 22.1088 9.28291C22.0741 9.25246 22.0527 9.20956 22.0494 9.16349L22.0396 9.13745ZM22.5572 8.78914L26.5773 8.41805C26.2844 6.26636 24.6731 4.71362 22.3456 4.53784L22.5572 8.78914ZM21.4862 9.83406L23.9406 14.0658C23.315 14.421 22.619 14.6343 21.9018 14.6905C21.1846 14.7467 20.4638 14.6445 19.7905 14.3911C19.1172 14.1377 18.5079 13.7393 18.0057 13.2242C17.5036 12.709 17.1208 12.0897 16.8847 11.4102C16.6486 10.7306 16.5648 10.0075 16.6393 9.29192C16.7138 8.57638 16.9447 7.88598 17.3158 7.26966C17.6869 6.65333 18.1889 6.12616 18.7865 5.72551C19.384 5.32486 20.0623 5.06053 20.7733 4.95125L21.4862 9.83406Z" fill="#44A08D"/>
</g>
<defs>
<clipPath id="clip0_2234_87600">
<rect width="32.0343" height="40" fill="white"/>
</clipPath>
</defs>
</svg>
