<svg width="34" height="40" viewBox="0 0 34 40" fill="none" xmlns="http://www.w3.org/2000/svg">
<g clip-path="url(#clip0_2234_87596)">
<path fill-rule="evenodd" clip-rule="evenodd" d="M26.3313 25.548C30.321 25.548 33.5565 28.7843 33.5565 32.774C33.5565 36.7637 30.321 40 26.3313 40C22.3409 40 19.1054 36.7637 19.1054 32.774C19.1054 28.7843 22.3409 25.548 26.3313 25.548ZM31.244 1.81626C31.244 0.817475 30.425 0 29.4269 0H2.31509C1.31552 0 0.498047 0.818256 0.498047 1.81626V35.4445C0.498047 36.4433 1.31552 37.2615 2.31509 37.2615H18.1964C17.9682 36.8505 17.7713 36.4198 17.6064 35.9736H2.01264C1.91261 35.9736 1.82195 35.8853 1.82195 35.7829V1.64667C1.82195 1.54351 1.91261 1.45598 2.01264 1.45598H29.7786C29.8802 1.45598 29.9693 1.54898 29.9693 1.64667V24.2265C30.4125 24.4164 30.8384 24.6399 31.244 24.8931V1.81626ZM5.15437 4.48908H6.16253V8.70775H5.15437V4.48908ZM7.00971 4.48908H7.94832L9.1675 6.8188V4.48908H10.1178V8.70775H9.1675L7.95535 6.39131V8.70775H7.00971V4.48908ZM10.5875 4.48908H11.6371L12.3702 7.5253L13.0923 4.48908H14.1122L12.9047 8.70775H11.8161L10.5875 4.48908ZM14.7202 4.99394C15.3118 4.22805 16.61 4.21554 17.2078 4.98378C17.7275 5.65121 17.7674 7.0095 17.4556 7.77852C17.3274 8.09347 17.1414 8.33965 16.8999 8.51471C16.4216 8.86327 15.5799 8.86327 15.0852 8.55144C14.8445 8.39983 14.6491 8.1599 14.4998 7.83166C14.1458 7.05326 14.1904 5.6809 14.7202 4.99394ZM15.4635 7.52139C15.7042 7.88793 16.2231 7.89965 16.4654 7.52765C16.7053 7.15799 16.7115 6.05447 16.4576 5.67778C16.2082 5.3089 15.7104 5.31124 15.4642 5.68168C15.2149 6.05994 15.2141 7.14314 15.4635 7.52139ZM18.3481 4.48908H19.357V8.70775H18.3481V4.48908ZM22.362 6.98214L23.2427 7.32601C23.1841 7.64566 23.0904 7.9145 22.963 8.12864C22.8356 8.34278 22.6777 8.50533 22.4894 8.61475C22.301 8.7226 22.0603 8.77887 21.7688 8.77887C21.4148 8.77887 21.1256 8.71244 20.9013 8.5788C20.677 8.44594 20.4832 8.2107 20.3214 7.87621C20.1589 7.54171 20.0768 7.11109 20.0768 6.58904C20.0768 5.89192 20.2198 5.35501 20.5066 4.98066C20.7927 4.60631 21.1983 4.41874 21.7219 4.41874C22.1322 4.41874 22.455 4.52659 22.6894 4.74073C22.9223 4.95565 23.0974 5.28545 23.2115 5.7317L22.326 5.98648C22.2948 5.85831 22.2619 5.76453 22.2283 5.70591C22.1713 5.60744 22.1025 5.53085 22.0212 5.47771C21.9403 5.42434 21.8454 5.39607 21.7485 5.39643C21.5195 5.39643 21.3452 5.51678 21.2233 5.7528C21.1326 5.92865 21.085 6.20531 21.085 6.58122C21.085 7.04857 21.1397 7.36822 21.2491 7.54093C21.3593 7.71365 21.5132 7.80118 21.7117 7.80118C21.904 7.80118 22.0494 7.73006 22.1478 7.59017C22.2455 7.45106 22.3174 7.24786 22.362 6.98214ZM23.8484 4.48908H26.5377V5.39096H24.8574V6.06229H26.415V6.92275H24.8574V7.75351H26.5877V8.70775H23.8484V4.48908ZM8.31876 15.1506C7.99443 15.1506 7.73184 14.8873 7.73184 14.5629C7.73184 14.2386 7.99443 13.9752 8.31876 13.9752H20.0174C20.3417 13.9752 20.6051 14.2386 20.6051 14.5629C20.6051 14.8873 20.3417 15.1506 20.0174 15.1506H8.31876ZM8.31876 24.7767C7.99443 24.7767 7.73184 24.5141 7.73184 24.1898C7.73173 24.1126 7.74684 24.0362 7.77629 23.9649C7.80574 23.8936 7.84895 23.8288 7.90346 23.7742C7.95798 23.7196 8.02271 23.6763 8.09397 23.6468C8.16523 23.6173 8.24162 23.602 8.31876 23.602H22.6449C22.9122 23.602 23.1372 23.7802 23.2084 24.0241C22.6488 24.2241 22.1134 24.4774 21.6086 24.7767H8.31876ZM8.31876 21.2121C8.24162 21.2121 8.16523 21.1969 8.09397 21.1674C8.02271 21.1378 7.95798 21.0945 7.90346 21.04C7.84895 20.9854 7.80574 20.9206 7.77629 20.8493C7.74684 20.778 7.73173 20.7016 7.73184 20.6244C7.73184 20.3001 7.99443 20.0375 8.31876 20.0375H20.0174C20.3417 20.0375 20.6051 20.3001 20.6051 20.6244C20.6051 20.9496 20.3417 21.2121 20.0174 21.2121H8.31876ZM25.5607 18.2384H6.18051V29.9004H17.4931C17.3696 30.2817 17.2696 30.6741 17.1953 31.0758H5.5928C5.26847 31.0758 5.00588 30.8124 5.00588 30.4881V11.6017C5.00588 11.2774 5.26847 11.014 5.5928 11.014H26.1485C26.4728 11.014 26.7362 11.2774 26.7362 11.6017V23.4911C26.3443 23.4741 25.9517 23.4819 25.5607 23.5145V18.2384ZM6.18051 17.063H25.5607V12.1894H6.18051V17.063ZM24.2494 31.6439L25.4717 32.7983L28.2437 29.9387C28.4836 29.6964 28.6337 29.501 28.9283 29.8058L29.8865 30.7858C30.2007 31.0969 30.185 31.2797 29.888 31.5697L26.0187 35.4218C25.3927 36.0353 25.5021 36.0728 24.8675 35.4437L22.6363 33.225C22.5042 33.0827 22.5183 32.9381 22.6636 32.7943L23.775 31.6416C23.9438 31.4642 24.0774 31.4798 24.2494 31.6439Z" fill="#44A08D"/>
</g>
<defs>
<clipPath id="clip0_2234_87596">
<rect width="33.0585" height="40" fill="white" transform="translate(0.5)"/>
</clipPath>
</defs>
</svg>
