<svg width="22" height="18" viewBox="0 0 22 18" fill="none" xmlns="http://www.w3.org/2000/svg">
<path d="M10.9752 17.7752C10.8419 17.7752 10.7169 17.7627 10.6002 17.7377C10.4835 17.7127 10.3669 17.6669 10.2502 17.6002L4.5002 14.4502C4.26686 14.3169 4.07936 14.1335 3.9377 13.9002C3.79603 13.6669 3.7252 13.4085 3.7252 13.1252V8.0252L1.2002 6.6502C1.06686 6.58353 0.971029 6.49186 0.912695 6.3752C0.854362 6.25853 0.825195 6.13353 0.825195 6.0002C0.825195 5.86686 0.854362 5.74186 0.912695 5.6252C0.971029 5.50853 1.06686 5.41686 1.2002 5.3502L10.2502 0.400195C10.3669 0.333529 10.4835 0.283529 10.6002 0.250195C10.7169 0.216862 10.8419 0.200195 10.9752 0.200195C11.1085 0.200195 11.2335 0.216862 11.3502 0.250195C11.4669 0.283529 11.5835 0.333529 11.7002 0.400195L21.6002 5.7752C21.7335 5.85853 21.8335 5.95853 21.9002 6.0752C21.9669 6.19186 22.0002 6.31686 22.0002 6.4502V13.1752C22.0002 13.3919 21.9294 13.571 21.7877 13.7127C21.646 13.8544 21.4669 13.9252 21.2502 13.9252C21.0335 13.9252 20.8544 13.8544 20.7127 13.7127C20.571 13.571 20.5002 13.3919 20.5002 13.1752V6.8752L18.2252 8.0252V13.1252C18.2252 13.4085 18.1544 13.6669 18.0127 13.9002C17.871 14.1335 17.6835 14.3169 17.4502 14.4502L11.7002 17.6002C11.5835 17.6669 11.4669 17.7127 11.3502 17.7377C11.2335 17.7627 11.1085 17.7752 10.9752 17.7752ZM10.9752 10.3002L18.8502 6.0002L10.9752 1.7752L3.1502 6.0002L10.9752 10.3002ZM10.9752 16.3002L16.7252 13.1252V8.9252L11.7002 11.6252C11.5835 11.6919 11.4669 11.7377 11.3502 11.7627C11.2335 11.7877 11.1085 11.8002 10.9752 11.8002C10.8419 11.8002 10.721 11.7877 10.6127 11.7627C10.5044 11.7377 10.3919 11.6919 10.2752 11.6252L5.22519 8.8752V13.1252L10.9752 16.3002Z" fill="#49454F"/>
</svg>
