<svg width="20" height="25" viewBox="0 0 20 25" fill="none" xmlns="http://www.w3.org/2000/svg">
<path d="M4.375 1.15703L5.45 0.0820312L14.15 8.78203C14.5333 9.16536 14.725 9.6362 14.725 10.1945C14.725 10.7529 14.5333 11.2237 14.15 11.607L9.7 16.057C9.31667 16.4404 8.86667 16.632 8.35 16.632C7.83333 16.632 7.38333 16.4404 7 16.057L2.55 11.607C2.16667 11.2237 1.975 10.7529 1.975 10.1945C1.975 9.6362 2.16667 9.16536 2.55 8.78203L7.275 4.05703L4.375 1.15703ZM8.35 5.13203L3.375 10.107H13.325L8.35 5.13203ZM16.8 17.057C16.3 17.057 15.875 16.882 15.525 16.532C15.175 16.182 15 15.757 15 15.257C15 14.9737 15.0667 14.6654 15.2 14.332C15.3333 13.9987 15.5167 13.657 15.75 13.307C15.8833 13.0904 16.0458 12.857 16.2375 12.607C16.4292 12.357 16.6167 12.1237 16.8 11.907C16.9833 12.1237 17.1708 12.357 17.3625 12.607C17.5542 12.857 17.7167 13.0904 17.85 13.307C18.0833 13.657 18.2667 13.9987 18.4 14.332C18.5333 14.6654 18.6 14.9737 18.6 15.257C18.6 15.757 18.425 16.182 18.075 16.532C17.725 16.882 17.3 17.057 16.8 17.057ZM0 24.107V21.082H20V24.107H0Z" fill="black"/>
</svg>
