<svg width="22" height="23" viewBox="0 0 22 23" fill="none" xmlns="http://www.w3.org/2000/svg">
<path d="M2.5998 22.6064V21.1064H19.3998V22.6064H2.5998ZM2.5998 2.10645V0.606445H19.3998V2.10645H2.5998ZM10.9998 12.5064C11.8331 12.5064 12.5331 12.2231 13.0998 11.6564C13.6665 11.0898 13.9498 10.3898 13.9498 9.55645C13.9498 8.72311 13.6665 8.02311 13.0998 7.45645C12.5331 6.88978 11.8331 6.60645 10.9998 6.60645C10.1665 6.60645 9.46647 6.88978 8.8998 7.45645C8.33314 8.02311 8.0498 8.72311 8.0498 9.55645C8.0498 10.3898 8.33314 11.0898 8.8998 11.6564C9.46647 12.2231 10.1665 12.5064 10.9998 12.5064ZM2.2998 19.6064C1.8998 19.6064 1.5498 19.4564 1.2498 19.1564C0.949805 18.8564 0.799805 18.5064 0.799805 18.1064V5.10645C0.799805 4.67311 0.949805 4.31478 1.2498 4.03145C1.5498 3.74811 1.8998 3.60645 2.2998 3.60645H19.6998C20.0998 3.60645 20.4498 3.75645 20.7498 4.05645C21.0498 4.35645 21.1998 4.70645 21.1998 5.10645V18.1064C21.1998 18.5064 21.0498 18.8564 20.7498 19.1564C20.4498 19.4564 20.0998 19.6064 19.6998 19.6064H2.2998ZM4.4998 18.1064C5.3498 17.0564 6.35814 16.2689 7.5248 15.7439C8.69147 15.2189 9.8498 14.9564 10.9998 14.9564C12.1331 14.9564 13.2956 15.2189 14.4873 15.7439C15.679 16.2689 16.6831 17.0564 17.4998 18.1064H19.6998V5.10645H2.2998V18.1064H4.4998ZM6.8498 18.1064H15.1998C14.6831 17.6064 14.079 17.2064 13.3873 16.9064C12.6956 16.6064 11.8998 16.4564 10.9998 16.4564C10.0998 16.4564 9.3123 16.6064 8.6373 16.9064C7.9623 17.2064 7.36647 17.6064 6.8498 18.1064ZM10.9998 11.0064C10.5998 11.0064 10.2623 10.8648 9.9873 10.5814C9.71231 10.2981 9.5748 9.95644 9.5748 9.55645C9.5748 9.15645 9.71231 8.81478 9.9873 8.53145C10.2623 8.24811 10.5998 8.10645 10.9998 8.10645C11.3998 8.10645 11.7373 8.24811 12.0123 8.53145C12.2873 8.81478 12.4248 9.15645 12.4248 9.55645C12.4248 9.95644 12.2873 10.2981 12.0123 10.5814C11.7373 10.8648 11.3998 11.0064 10.9998 11.0064Z" fill="black"/>
</svg>
