<svg width="22" height="17" viewBox="0 0 22 17" fill="none" xmlns="http://www.w3.org/2000/svg">
<path d="M13 5.40645C13 5.30645 13.0333 5.21061 13.1 5.11895C13.1667 5.02728 13.2417 4.96478 13.325 4.93145C13.825 4.74811 14.3375 4.60645 14.8625 4.50645C15.3875 4.40645 15.9333 4.35645 16.5 4.35645C16.8667 4.35645 17.225 4.37728 17.575 4.41895C17.925 4.46061 18.2667 4.52311 18.6 4.60645C18.7 4.63978 18.7917 4.70228 18.875 4.79395C18.9583 4.88561 19 4.98978 19 5.10645C19 5.28978 18.9375 5.43145 18.8125 5.53145C18.6875 5.63145 18.5333 5.65645 18.35 5.60645C18.0667 5.52311 17.7708 5.46061 17.4625 5.41895C17.1542 5.37728 16.8333 5.35645 16.5 5.35645C16.0167 5.35645 15.55 5.40228 15.1 5.49395C14.65 5.58561 14.2083 5.72311 13.775 5.90645C13.5417 5.98978 13.3542 5.98561 13.2125 5.89395C13.0708 5.80228 13 5.63978 13 5.40645ZM13 10.9064C13 10.8064 13.0333 10.7064 13.1 10.6064C13.1667 10.5064 13.2417 10.4398 13.325 10.4064C13.825 10.2231 14.3375 10.0856 14.8625 9.99395C15.3875 9.90228 15.9333 9.85645 16.5 9.85645C16.8667 9.85645 17.225 9.87728 17.575 9.91895C17.925 9.96061 18.2667 10.0231 18.6 10.1064C18.7 10.1398 18.7917 10.2023 18.875 10.2939C18.9583 10.3856 19 10.4898 19 10.6064C19 10.7898 18.9375 10.9314 18.8125 11.0314C18.6875 11.1314 18.5333 11.1564 18.35 11.1064C18.0667 11.0231 17.7708 10.9606 17.4625 10.9189C17.1542 10.8773 16.8333 10.8564 16.5 10.8564C16.0167 10.8564 15.55 10.8981 15.1 10.9814C14.65 11.0648 14.2083 11.1981 13.775 11.3814C13.5417 11.4648 13.3542 11.4648 13.2125 11.3814C13.0708 11.2981 13 11.1398 13 10.9064ZM13 8.15645C13 8.05645 13.0333 7.96061 13.1 7.86895C13.1667 7.77728 13.2417 7.71478 13.325 7.68145C13.825 7.49811 14.3375 7.35644 14.8625 7.25644C15.3875 7.15645 15.9333 7.10645 16.5 7.10645C16.8667 7.10645 17.225 7.12728 17.575 7.16895C17.925 7.21061 18.2667 7.27311 18.6 7.35645C18.7 7.38978 18.7917 7.45228 18.875 7.54395C18.9583 7.63561 19 7.73978 19 7.85645C19 8.03978 18.9375 8.18145 18.8125 8.28145C18.6875 8.38145 18.5333 8.40645 18.35 8.35645C18.0667 8.27311 17.7708 8.21061 17.4625 8.16895C17.1542 8.12728 16.8333 8.10645 16.5 8.10645C16.0167 8.10645 15.55 8.15228 15.1 8.24395C14.65 8.33561 14.2083 8.47311 13.775 8.65645C13.5417 8.73978 13.3542 8.73561 13.2125 8.64395C13.0708 8.55228 13 8.38978 13 8.15645ZM5.2 13.1064C6.1 13.1064 6.97083 13.2106 7.8125 13.4189C8.65417 13.6273 9.48333 13.9398 10.3 14.3564V3.68145C9.55 3.18145 8.7375 2.79395 7.8625 2.51895C6.9875 2.24395 6.1 2.10645 5.2 2.10645C4.56667 2.10645 3.94583 2.18561 3.3375 2.34395C2.72917 2.50228 2.11667 2.69811 1.5 2.93145V13.7814C2.01667 13.5481 2.60417 13.3773 3.2625 13.2689C3.92083 13.1606 4.56667 13.1064 5.2 13.1064ZM11.8 14.3564C12.6333 13.9398 13.45 13.6273 14.25 13.4189C15.05 13.2106 15.9 13.1064 16.8 13.1064C17.4333 13.1064 18.0875 13.1564 18.7625 13.2564C19.4375 13.3564 20.0167 13.4898 20.5 13.6564V2.93145C19.9333 2.64811 19.3333 2.43978 18.7 2.30645C18.0667 2.17311 17.4333 2.10645 16.8 2.10645C15.9 2.10645 15.0292 2.24395 14.1875 2.51895C13.3458 2.79395 12.55 3.18145 11.8 3.68145V14.3564ZM11.05 16.3314C10.9167 16.3314 10.7958 16.3189 10.6875 16.2939C10.5792 16.2689 10.4833 16.2231 10.4 16.1564C9.61667 15.6731 8.78333 15.2981 7.9 15.0314C7.01667 14.7648 6.11667 14.6314 5.2 14.6314C4.58333 14.6314 3.98333 14.7064 3.4 14.8564C2.81667 15.0064 2.23333 15.1898 1.65 15.4064C1.26667 15.5898 0.895833 15.5648 0.5375 15.3314C0.179167 15.0981 0 14.7648 0 14.3314V2.75645C0 2.50645 0.0583333 2.27728 0.175 2.06895C0.291667 1.86061 0.466667 1.69811 0.7 1.58145C1.4 1.24811 2.12917 1.00228 2.8875 0.843946C3.64583 0.685612 4.41667 0.606445 5.2 0.606445C6.25 0.606445 7.27083 0.748112 8.2625 1.03145C9.25417 1.31478 10.1833 1.74811 11.05 2.33145C11.9 1.74811 12.8125 1.31478 13.7875 1.03145C14.7625 0.748112 15.7667 0.606445 16.8 0.606445C17.5833 0.606445 18.35 0.685612 19.1 0.843946C19.85 1.00228 20.575 1.24811 21.275 1.58145C21.5083 1.69811 21.6875 1.86061 21.8125 2.06895C21.9375 2.27728 22 2.50645 22 2.75645V14.3314C22 14.7981 21.8125 15.1523 21.4375 15.3939C21.0625 15.6356 20.6917 15.6398 20.325 15.4064C19.7583 15.1731 19.1833 14.9856 18.6 14.8439C18.0167 14.7023 17.4167 14.6314 16.8 14.6314C15.9 14.6314 15.0167 14.7648 14.15 15.0314C13.2833 15.2981 12.4667 15.6731 11.7 16.1564C11.6167 16.2231 11.5208 16.2689 11.4125 16.2939C11.3042 16.3189 11.1833 16.3314 11.05 16.3314Z" fill="black"/>
</svg>
