<svg width="25" height="25" viewBox="0 0 25 25" fill="none" xmlns="http://www.w3.org/2000/svg">
<g clip-path="url(#clip0_1881_12879)">
<path d="M10.52 24.4864C4.82 23.4664 0.5 18.5464 0.5 12.6064C0.5 6.00644 5.9 0.606445 12.5 0.606445C19.1 0.606445 24.5 6.00644 24.5 12.6064C24.5 18.5464 20.18 23.4664 14.48 24.4864L13.82 23.9464H11.18L10.52 24.4864Z" fill="url(#paint0_linear_1881_12879)"/>
<path d="M17.1781 15.9666L17.7181 12.6066H14.5381V10.2666C14.5381 9.30662 14.8981 8.58662 16.3381 8.58662H17.8981V5.52662C17.0581 5.40662 16.0981 5.28662 15.2581 5.28662C12.4981 5.28662 10.5781 6.96662 10.5781 9.96662V12.6066H7.57812V15.9666H10.5781V24.4266C11.2381 24.5466 11.8981 24.6066 12.5581 24.6066C13.2181 24.6066 13.8781 24.5466 14.5381 24.4266V15.9666H17.1781Z" fill="white"/>
</g>
<defs>
<linearGradient id="paint0_linear_1881_12879" x1="12.5006" y1="23.7718" x2="12.5006" y2="0.602025" gradientUnits="userSpaceOnUse">
<stop stop-color="#0062E0"/>
<stop offset="1" stop-color="#19AFFF"/>
</linearGradient>
<clipPath id="clip0_1881_12879">
<rect width="24" height="24" fill="white" transform="translate(0.5 0.606445)"/>
</clipPath>
</defs>
</svg>
