<svg width="40" height="40" viewBox="0 0 40 40" fill="none" xmlns="http://www.w3.org/2000/svg">
<g clip-path="url(#clip0_2234_87660)">
<path d="M20 40C9 40 0 31 0 20H3.33333C3.33333 29.1667 10.8333 36.6667 20 36.6667C29.1667 36.6667 36.6667 29.1667 36.6667 20C36.6667 10.8333 29.1667 3.33333 20 3.33333C14 3.33333 8.5 6.5 5.5 11.6667H13.3333V15H0V1.66667H3.33333V9C7 3.5 13.3333 0 20 0C31 0 40 9 40 20C40 31 31 40 20 40ZM25.5 29.6667L18.3333 22.3333V10H21.6667V21L27.8333 27.3333L25.5 29.6667Z" fill="#44A08D"/>
</g>
<defs>
<clipPath id="clip0_2234_87660">
<rect width="40" height="40" fill="white"/>
</clipPath>
</defs>
</svg>
