<svg width="25" height="25" viewBox="0 0 25 25" fill="none" xmlns="http://www.w3.org/2000/svg">
<g clip-path="url(#clip0_1878_12425)">
<path d="M12.506 0.789062C7.57127 0.789062 6.12804 0.794153 5.84751 0.817425C4.83481 0.901605 4.20465 1.06105 3.51812 1.40286C2.98905 1.66558 2.57179 1.97012 2.15998 2.39701C1.41001 3.17554 0.955474 4.13333 0.790934 5.27184C0.710936 5.82455 0.687664 5.93727 0.682937 8.76046C0.681119 9.70153 0.682937 10.94 0.682937 12.6013C0.682937 17.532 0.688391 18.9738 0.712027 19.2538C0.793843 20.2392 0.948383 20.8592 1.27565 21.5374C1.90108 22.8355 3.09559 23.81 4.50282 24.1736C4.99008 24.2991 5.52824 24.3682 6.21913 24.4009C6.51185 24.4136 9.4954 24.4227 12.4808 24.4227C15.4661 24.4227 18.4515 24.4191 18.7369 24.4045C19.5369 24.3669 20.0014 24.3045 20.5151 24.1718C21.9314 23.8064 23.1041 22.8464 23.7422 21.5301C24.0631 20.8683 24.2259 20.2247 24.2995 19.2907C24.3155 19.0871 24.3222 15.8404 24.3222 12.5982C24.3222 9.35535 24.315 6.11472 24.299 5.91109C24.2244 4.96203 24.0617 4.32387 23.7304 3.64934C23.4586 3.09718 23.1568 2.68482 22.7186 2.2632C21.9367 1.51631 20.9803 1.06178 19.8407 0.897423C19.2886 0.817607 19.1786 0.793971 16.3532 0.789062H12.506Z" fill="url(#paint0_radial_1878_12425)"/>
<path d="M12.506 0.789062C7.57127 0.789062 6.12804 0.794153 5.84751 0.817425C4.83481 0.901605 4.20465 1.06105 3.51812 1.40286C2.98905 1.66558 2.57179 1.97012 2.15998 2.39701C1.41001 3.17554 0.955474 4.13333 0.790934 5.27184C0.710936 5.82455 0.687664 5.93727 0.682937 8.76046C0.681119 9.70153 0.682937 10.94 0.682937 12.6013C0.682937 17.532 0.688391 18.9738 0.712027 19.2538C0.793843 20.2392 0.948383 20.8592 1.27565 21.5374C1.90108 22.8355 3.09559 23.81 4.50282 24.1736C4.99008 24.2991 5.52824 24.3682 6.21913 24.4009C6.51185 24.4136 9.4954 24.4227 12.4808 24.4227C15.4661 24.4227 18.4515 24.4191 18.7369 24.4045C19.5369 24.3669 20.0014 24.3045 20.5151 24.1718C21.9314 23.8064 23.1041 22.8464 23.7422 21.5301C24.0631 20.8683 24.2259 20.2247 24.2995 19.2907C24.3155 19.0871 24.3222 15.8404 24.3222 12.5982C24.3222 9.35535 24.315 6.11472 24.299 5.91109C24.2244 4.96203 24.0617 4.32387 23.7304 3.64934C23.4586 3.09718 23.1568 2.68482 22.7186 2.2632C21.9367 1.51631 20.9803 1.06178 19.8407 0.897423C19.2886 0.817607 19.1786 0.793971 16.3532 0.789062H12.506Z" fill="url(#paint1_radial_1878_12425)"/>
<path d="M12.5002 3.87988C10.1301 3.87988 9.83264 3.89025 8.90176 3.93261C7.9727 3.97515 7.33853 4.12224 6.78364 4.33805C6.20966 4.56095 5.72277 4.85913 5.23769 5.34439C4.75225 5.82946 4.45408 6.31636 4.23045 6.89016C4.01409 7.44523 3.86682 8.07958 3.825 9.00828C3.78337 9.93916 3.77246 10.2368 3.77246 12.6069C3.77246 14.977 3.78301 15.2735 3.82519 16.2044C3.86791 17.1335 4.015 17.7677 4.23063 18.3225C4.45371 18.8965 4.75189 19.3834 5.23714 19.8685C5.72204 20.3539 6.20893 20.6528 6.78255 20.8757C7.33781 21.0916 7.97215 21.2386 8.90103 21.2812C9.83191 21.3235 10.1292 21.3339 12.4991 21.3339C14.8694 21.3339 15.1659 21.3235 16.0968 21.2812C17.0259 21.2386 17.6608 21.0916 18.216 20.8757C18.7898 20.6528 19.276 20.3539 19.7609 19.8685C20.2463 19.3834 20.5445 18.8965 20.7681 18.3227C20.9827 17.7677 21.1299 17.1333 21.1736 16.2046C21.2154 15.2737 21.2263 14.977 21.2263 12.6069C21.2263 10.2368 21.2154 9.93934 21.1736 9.00846C21.1299 8.0794 20.9827 7.44523 20.7681 6.89034C20.5445 6.31636 20.2463 5.82946 19.7609 5.34439C19.2754 4.85894 18.79 4.56077 18.2155 4.33805C17.6591 4.12224 17.0246 3.97515 16.0955 3.93261C15.1647 3.89025 14.8683 3.87988 12.4975 3.87988H12.5002ZM11.7173 5.45256C11.9497 5.4522 12.2089 5.45256 12.5002 5.45256C14.8303 5.45256 15.1065 5.46093 16.0266 5.50274C16.8775 5.54165 17.3393 5.68383 17.6469 5.80328C18.0542 5.96146 18.3446 6.15054 18.6498 6.45599C18.9553 6.76143 19.1444 7.05233 19.3029 7.45959C19.4223 7.76686 19.5647 8.22866 19.6034 9.07955C19.6453 9.99952 19.6543 10.2759 19.6543 12.6049C19.6543 14.9339 19.6453 15.2103 19.6034 16.1302C19.5645 16.9811 19.4223 17.4429 19.3029 17.7502C19.1447 18.1575 18.9553 18.4475 18.6498 18.7527C18.3444 19.0582 18.0544 19.2472 17.6469 19.4054C17.3397 19.5254 16.8775 19.6672 16.0266 19.7061C15.1067 19.748 14.8303 19.7571 12.5002 19.7571C10.1699 19.7571 9.89373 19.748 8.97376 19.7061C8.12287 19.6669 7.66107 19.5247 7.35326 19.4052C6.946 19.2471 6.6551 19.058 6.34966 18.7525C6.04421 18.4471 5.85513 18.1569 5.69658 17.7495C5.57713 17.4422 5.43477 16.9804 5.39605 16.1295C5.35423 15.2095 5.34587 14.9332 5.34587 12.6027C5.34587 10.2722 5.35423 9.99734 5.39605 9.07737C5.43496 8.22648 5.57713 7.76468 5.69658 7.45705C5.85476 7.04979 6.04421 6.75889 6.34966 6.45344C6.6551 6.148 6.946 5.95891 7.35326 5.80037C7.66089 5.68037 8.12287 5.53856 8.97376 5.49947C9.77882 5.46311 10.0908 5.4522 11.7173 5.45038V5.45256ZM17.1586 6.90161C16.5804 6.90161 16.1114 7.37014 16.1114 7.94849C16.1114 8.52665 16.5804 8.99573 17.1586 8.99573C17.7368 8.99573 18.2058 8.52665 18.2058 7.94849C18.2058 7.37032 17.7368 6.90125 17.1586 6.90125V6.90161ZM12.5002 8.12521C10.0252 8.12521 8.01851 10.1319 8.01851 12.6069C8.01851 15.0819 10.0252 17.0877 12.5002 17.0877C14.9752 17.0877 16.9812 15.0819 16.9812 12.6069C16.9812 10.1319 14.9752 8.12521 12.5002 8.12521ZM12.5002 9.69789C14.1067 9.69789 15.4092 11.0002 15.4092 12.6069C15.4092 14.2134 14.1067 15.5159 12.5002 15.5159C10.8935 15.5159 9.59119 14.2134 9.59119 12.6069C9.59119 11.0002 10.8935 9.69789 12.5002 9.69789Z" fill="white"/>
</g>
<defs>
<radialGradient id="paint0_radial_1878_12425" cx="0" cy="0" r="1" gradientUnits="userSpaceOnUse" gradientTransform="translate(6.96156 26.243) rotate(-90) scale(23.4227 21.7909)">
<stop stop-color="#FFDD55"/>
<stop offset="0.1" stop-color="#FFDD55"/>
<stop offset="0.5" stop-color="#FF543E"/>
<stop offset="1" stop-color="#C837AB"/>
</radialGradient>
<radialGradient id="paint1_radial_1878_12425" cx="0" cy="0" r="1" gradientUnits="userSpaceOnUse" gradientTransform="translate(-3.27771 2.49159) rotate(78.6776) scale(10.4702 43.1693)">
<stop stop-color="#3771C8"/>
<stop offset="0.128" stop-color="#3771C8"/>
<stop offset="1" stop-color="#6600FF" stop-opacity="0"/>
</radialGradient>
<clipPath id="clip0_1878_12425">
<rect width="24" height="23.9993" fill="white" transform="translate(0.5 0.606445)"/>
</clipPath>
</defs>
</svg>
