<svg width="25" height="25" viewBox="0 0 25 25" fill="none" xmlns="http://www.w3.org/2000/svg">
<g clip-path="url(#clip0_1878_12429)">
<path fill-rule="evenodd" clip-rule="evenodd" d="M3.16667 24.6064H21.8333C23.3061 24.6064 24.5 23.4125 24.5 21.9398V3.27311C24.5 1.80035 23.3061 0.606445 21.8333 0.606445H3.16667C1.69391 0.606445 0.5 1.80035 0.5 3.27311V21.9398C0.5 23.4125 1.69391 24.6064 3.16667 24.6064Z" fill="#007EBB"/>
<path fill-rule="evenodd" clip-rule="evenodd" d="M21.1668 21.2728H17.6054V15.2068C17.6054 13.5437 16.9734 12.6143 15.6571 12.6143C14.225 12.6143 13.4769 13.5815 13.4769 15.2068V21.2728H10.0446V9.71723H13.4769V11.2738C13.4769 11.2738 14.5088 9.36419 16.961 9.36419C19.4121 9.36419 21.1668 10.8609 21.1668 13.9565V21.2728ZM5.94995 8.20412C4.78085 8.20412 3.8335 7.24934 3.8335 6.07179C3.8335 4.89424 4.78085 3.93945 5.94995 3.93945C7.11904 3.93945 8.06583 4.89424 8.06583 6.07179C8.06583 7.24934 7.11904 8.20412 5.94995 8.20412ZM4.17768 21.2728H7.75663V9.71723H4.17768V21.2728Z" fill="white"/>
</g>
<defs>
<clipPath id="clip0_1878_12429">
<rect width="24" height="24" fill="white" transform="translate(0.5 0.606445)"/>
</clipPath>
</defs>
</svg>
