<svg width="12" height="14" viewBox="0 0 12 14" fill="none" xmlns="http://www.w3.org/2000/svg">
<path d="M6.3304 6.83398C6.65263 6.83398 6.92763 6.7201 7.1554 6.49232C7.38318 6.26454 7.49707 5.98954 7.49707 5.66732C7.49707 5.3451 7.38318 5.0701 7.1554 4.84232C6.92763 4.61454 6.65263 4.50065 6.3304 4.50065C6.00818 4.50065 5.73318 4.61454 5.5054 4.84232C5.27763 5.0701 5.16374 5.3451 5.16374 5.66732C5.16374 5.98954 5.27763 6.26454 5.5054 6.49232C5.73318 6.7201 6.00818 6.83398 6.3304 6.83398ZM6.3304 12.3507C7.80818 11.0062 8.89985 9.78676 9.6054 8.69232C10.311 7.59787 10.6637 6.63398 10.6637 5.80065C10.6637 4.48954 10.2443 3.41732 9.4054 2.58398C8.56651 1.75065 7.54151 1.33398 6.3304 1.33398C5.11929 1.33398 4.09429 1.75065 3.2554 2.58398C2.41651 3.41732 1.99707 4.48954 1.99707 5.80065C1.99707 6.63398 2.35818 7.59787 3.0804 8.69232C3.80263 9.78676 4.88596 11.0062 6.3304 12.3507ZM6.34707 13.4673C6.26929 13.4673 6.19707 13.4562 6.1304 13.434C6.06374 13.4118 6.00263 13.3784 5.94707 13.334C4.29151 11.8784 3.05263 10.5284 2.2304 9.28399C1.40818 8.03954 0.99707 6.87843 0.99707 5.80065C0.99707 4.13398 1.53318 2.80621 2.6054 1.81732C3.67763 0.828429 4.91929 0.333984 6.3304 0.333984C7.74151 0.333984 8.98318 0.828429 10.0554 1.81732C11.1276 2.80621 11.6637 4.13398 11.6637 5.80065C11.6637 6.87843 11.2526 8.03954 10.4304 9.28399C9.60818 10.5284 8.36929 11.8784 6.71374 13.334C6.65818 13.3784 6.59985 13.4118 6.53874 13.434C6.47763 13.4562 6.41374 13.4673 6.34707 13.4673Z" fill="#49454F"/>
</svg>
