<svg width="20" height="20" viewBox="0 0 20 20" fill="none" xmlns="http://www.w3.org/2000/svg">
<g clip-path="url(#clip0_1823_16438)">
<path d="M16.482 16.7074H13.6675V12.3228C13.6675 11.2773 13.6487 9.9314 12.2036 9.9314C10.7377 9.9314 10.5134 11.0706 10.5134 12.2467V16.7071H7.69892V7.69076H10.4008V8.92294H10.4387C10.7091 8.46304 11.0998 8.08469 11.5693 7.82821C12.0387 7.57172 12.5693 7.4467 13.1046 7.46645C15.9573 7.46645 16.4832 9.33295 16.4832 11.7611L16.482 16.7074ZM4.5231 6.45836C3.62103 6.45851 2.88962 5.73119 2.88948 4.83389C2.88933 3.93658 3.62043 3.20904 4.5225 3.20889C5.42457 3.20867 6.15597 3.93599 6.15612 4.83329C6.1562 5.2642 5.9842 5.67748 5.67795 5.98224C5.3717 6.287 4.95629 6.45826 4.5231 6.45836ZM5.9304 16.7074H3.1129V7.69076H5.93033V16.7074L5.9304 16.7074ZM17.8852 0.608797H1.69862C0.933598 0.600235 0.306224 1.20983 0.296875 1.97081V18.139C0.305928 18.9004 0.933227 19.5106 1.69854 19.5026H17.8852C18.6521 19.512 19.2819 18.9019 19.2925 18.139V1.96955C19.2816 1.2071 18.6517 0.597578 17.8852 0.607542" fill="#0A66C2"/>
</g>
<defs>
<clipPath id="clip0_1823_16438">
<rect width="18.9956" height="18.8953" fill="white" transform="translate(0.296875 0.607422)"/>
</clipPath>
</defs>
</svg>
