<svg width="20" height="20" viewBox="0 0 20 20" fill="none" xmlns="http://www.w3.org/2000/svg">
<g clip-path="url(#clip0_1823_16435)">
<path d="M19.3022 10.0551C19.3022 4.83731 15.0499 0.607422 9.80443 0.607422C4.55898 0.607422 0.306641 4.83723 0.306641 10.0551C0.306641 14.7706 3.77986 18.6792 8.3204 19.3879V12.786H5.90885V10.0551H8.3204V7.97363C8.3204 5.60581 9.73839 4.29791 11.9078 4.29791C12.947 4.29791 14.0339 4.48243 14.0339 4.48243V6.80743H12.8363C11.6564 6.80743 11.2885 7.53571 11.2885 8.28289V10.0551H13.9226L13.5015 12.786H11.2885V19.3879C15.829 18.6792 19.3022 14.7707 19.3022 10.0551Z" fill="#1877F2"/>
<path d="M13.5028 12.7869L13.9239 10.056H11.2898V8.28381C11.2898 7.53656 11.6577 6.80836 12.8376 6.80836H14.0352V4.48335C14.0352 4.48335 12.9483 4.29883 11.9091 4.29883C9.7397 4.29883 8.32171 5.60674 8.32171 7.97455V10.056H5.91016V12.7869H8.32171V19.3889C8.81264 19.4654 9.30881 19.5038 9.80574 19.5036C10.3027 19.5038 10.7988 19.4654 11.2898 19.3889V12.7869H13.5028Z" fill="white"/>
</g>
<defs>
<clipPath id="clip0_1823_16435">
<rect width="18.9956" height="18.8953" fill="white" transform="translate(0.306641 0.607422)"/>
</clipPath>
</defs>
</svg>
