<svg width="40" height="40" viewBox="0 0 40 40" fill="none" xmlns="http://www.w3.org/2000/svg">
<rect x="0.5" y="0.5" width="39" height="39" rx="19.5" fill="white"/>
<mask id="mask0_1846_11836" style="mask-type:alpha" maskUnits="userSpaceOnUse" x="8" y="8" width="24" height="24">
<rect x="8" y="8" width="24" height="24" fill="#D9D9D9"/>
</mask>
<g mask="url(#mask0_1846_11836)">
<path d="M19.275 28.0995L17.85 26.7745C16.0667 25.1578 14.4793 23.5702 13.088 22.0115C11.696 20.4535 11 18.7828 11 16.9995C11 15.5828 11.4793 14.3952 12.438 13.4365C13.396 12.4785 14.5833 11.9995 16 11.9995C16.8 11.9995 17.596 12.1868 18.388 12.5615C19.1793 12.9368 19.8833 13.5412 20.5 14.3745C21.1167 13.5412 21.821 12.9368 22.613 12.5615C23.4043 12.1868 24.2 11.9995 25 11.9995C26.4167 11.9995 27.604 12.4785 28.562 13.4365C29.5207 14.3952 30 15.5828 30 16.9995C30 18.7995 29.2917 20.4868 27.875 22.0615C26.4583 23.6368 24.875 25.2162 23.125 26.7995L21.725 28.0745C21.375 28.4078 20.9667 28.5745 20.5 28.5745C20.0333 28.5745 19.625 28.4162 19.275 28.0995ZM19.775 15.8995C19.2417 15.0662 18.675 14.4578 18.075 14.0745C17.475 13.6912 16.7833 13.4995 16 13.4995C15 13.4995 14.1667 13.8328 13.5 14.4995C12.8333 15.1662 12.5 15.9995 12.5 16.9995C12.5 17.7995 12.7583 18.6368 13.275 19.5115C13.7917 20.3868 14.4417 21.2578 15.225 22.1245C16.0083 22.9912 16.854 23.8368 17.762 24.6615C18.6707 25.4868 19.5167 26.2578 20.3 26.9745C20.35 27.0245 20.4167 27.0495 20.5 27.0495C20.5833 27.0495 20.65 27.0245 20.7 26.9745C21.4833 26.2578 22.3293 25.4868 23.238 24.6615C24.146 23.8368 24.9917 22.9912 25.775 22.1245C26.5583 21.2578 27.2083 20.3868 27.725 19.5115C28.2417 18.6368 28.5 17.7995 28.5 16.9995C28.5 15.9995 28.1667 15.1662 27.5 14.4995C26.8333 13.8328 26 13.4995 25 13.4995C24.2167 13.4995 23.525 13.6912 22.925 14.0745C22.325 14.4578 21.7583 15.0662 21.225 15.8995C21.1417 16.0162 21.0333 16.1078 20.9 16.1745C20.7667 16.2412 20.6333 16.2745 20.5 16.2745C20.3667 16.2745 20.2333 16.2412 20.1 16.1745C19.9667 16.1078 19.8583 16.0162 19.775 15.8995Z" fill="#44A08D"/>
</g>
<rect x="0.5" y="0.5" width="39" height="39" rx="19.5" stroke="#BEBEBE"/>
</svg>
