<svg width="40" height="40" viewBox="0 0 40 40" fill="none" xmlns="http://www.w3.org/2000/svg">
<path d="M32.5 5H7.5C6 5 5 6 5 7.5V25C5 26.5 6 27.5 7.5 27.5H32.5C34 27.5 35 26.5 35 25V7.5C35 6 34 5 32.5 5ZM33.75 24C33.75 25.25 32.75 26.25 31.5 26.25H8.5C7.25 26.25 6.25 25.25 6.25 24V8.5C6.25 7.25 7.25 6.25 8.5 6.25H31.5C32.75 6.25 33.75 7.25 33.75 8.5V24Z" fill="#44A08D"/>
<path d="M25 32.5H23.75V27.5H16.25V32.5H15C14.25 32.5 13.75 33 13.75 33.75C13.75 34.5 14.25 35 15 35H16.25H23.75H25C25.75 35 26.25 34.5 26.25 33.75C26.25 33 25.75 32.5 25 32.5Z" fill="#44A08D"/>
<path d="M28.75 10.5C28 10.5 27.5 11 27.5 11.75C27.5 12 27.5 12 27.5 12.25L23.25 18.5C23.25 18.5 23.25 18.5 23 18.5C22.75 18.5 22.75 18.5 22.5 18.5L17.5 13.75V13.5C17.5 12.75 17 12.25 16.25 12.25C15.75 12.25 15 12.75 15 13.5C15 13.75 15 13.75 15 14L11.25 19.5C10.5 19.5 10 20 10 20.75C10 21.5 10.5 22 11.25 22C12 22 12.5 21.25 12.5 20.75C12.5 20.5 12.5 20.5 12.5 20.25L16.25 14.75H16.5C16.75 14.75 16.75 14.75 16.75 14.75L22 19.75V20C22 20.75 22.5 21.25 23.25 21.25C24 21.25 24.5 20.75 24.5 20C24.5 19.75 24.5 19.75 24.5 19.5L28.75 13.25C29.5 13 30 12.5 30 11.75C30 11.25 29.5 10.5 28.75 10.5Z" fill="#44A08D"/>
</svg>
