<svg width="22" height="14" viewBox="0 0 22 14" fill="none" xmlns="http://www.w3.org/2000/svg">
<path d="M1.5 14C1.1 14 0.75 13.85 0.45 13.55C0.15 13.25 0 12.9 0 12.5V1.5C0 1.1 0.15 0.75 0.45 0.45C0.75 0.15 1.1 0 1.5 0H12.5C12.9 0 13.25 0.15 13.55 0.45C13.85 0.75 14 1.1 14 1.5V12.5C14 12.9 13.85 13.25 13.55 13.55C13.25 13.85 12.9 14 12.5 14H1.5ZM1.5 12.5H12.5V1.5H1.5V12.5ZM17.25 14C17.0333 14 16.8542 13.9292 16.7125 13.7875C16.5708 13.6458 16.5 13.4667 16.5 13.25V0.75C16.5 0.533333 16.5708 0.354167 16.7125 0.2125C16.8542 0.0708334 17.0333 0 17.25 0C17.4667 0 17.6458 0.0708334 17.7875 0.2125C17.9292 0.354167 18 0.533333 18 0.75V13.25C18 13.4667 17.9292 13.6458 17.7875 13.7875C17.6458 13.9292 17.4667 14 17.25 14ZM21.25 14C21.0333 14 20.8542 13.9292 20.7125 13.7875C20.5708 13.6458 20.5 13.4667 20.5 13.25V0.75C20.5 0.533333 20.5708 0.354167 20.7125 0.2125C20.8542 0.0708334 21.0333 0 21.25 0C21.4667 0 21.6458 0.0708334 21.7875 0.2125C21.9292 0.354167 22 0.533333 22 0.75V13.25C22 13.4667 21.9292 13.6458 21.7875 13.7875C21.6458 13.9292 21.4667 14 21.25 14Z" fill="black"/>
</svg>
