<svg width="40" height="41" viewBox="0 0 40 41" fill="none" xmlns="http://www.w3.org/2000/svg">
<path d="M19.2102 20.9026L37.1387 20.616L37.1489 21.5406C37.1513 26.638 35.0719 31.2534 31.71 34.5944C28.3489 37.9346 23.7045 40.001 18.5752 40.001C13.446 40.001 8.80236 37.9346 5.44047 34.5944C2.07937 31.2534 0 26.638 0 21.5406C0 16.4441 2.07937 11.8286 5.44047 8.48845C8.80236 5.1475 13.446 3.08108 18.5752 3.08108H19.2102V20.9026ZM21.5686 18.3176L21.6393 0.000976562C31.791 0.0400246 40 8.22839 40 18.3176H21.5686ZM35.8774 21.8936L17.9403 22.1795V4.35483C13.4145 4.51727 9.33124 6.40641 6.3387 9.38031C3.20707 12.4924 1.26994 16.7924 1.26994 21.5406C1.26994 26.2904 3.20707 30.5896 6.3387 33.7018C9.47033 36.8139 13.7965 38.7389 18.5752 38.7389C23.354 38.7389 27.6809 36.8139 30.8126 33.7018C33.8664 30.6669 35.7839 26.5029 35.8774 21.8936Z" fill="#44A08D"/>
</svg>
