<svg width="19" height="19" viewBox="0 0 19 19" fill="none" xmlns="http://www.w3.org/2000/svg">
<path d="M2 17.5004H3.1L14.175 6.42536L13.075 5.32536L2 16.4004V17.5004ZM17.35 5.35036L14.15 2.15036L15.2 1.10036C15.4833 0.817024 15.8375 0.679524 16.2625 0.687857C16.6875 0.69619 17.0417 0.842024 17.325 1.12536L18.4 2.20036C18.6833 2.48369 18.825 2.83369 18.825 3.25036C18.825 3.66702 18.6833 4.01702 18.4 4.30036L17.35 5.35036ZM1.25 19.0004C1.03333 19.0004 0.854167 18.9295 0.7125 18.7879C0.570833 18.6462 0.5 18.467 0.5 18.2504V16.1004C0.5 16.0004 0.516667 15.9087 0.55 15.8254C0.583333 15.742 0.641667 15.6587 0.725 15.5754L13.1 3.20036L16.3 6.40036L3.925 18.7754C3.84167 18.8587 3.75833 18.917 3.675 18.9504C3.59167 18.9837 3.5 19.0004 3.4 19.0004H1.25ZM13.625 5.87536L13.075 5.32536L14.175 6.42536L13.625 5.87536Z" fill="#49454F"/>
</svg>
