<svg width="20" height="21" viewBox="0 0 20 21" fill="none" xmlns="http://www.w3.org/2000/svg">
<path d="M10.075 15.6064C10.2917 15.6064 10.4708 15.5356 10.6125 15.3939C10.7542 15.2523 10.825 15.0731 10.825 14.8564V11.4564H14.275C14.475 11.4564 14.6458 11.3856 14.7875 11.2439C14.9292 11.1023 15 10.9231 15 10.7064C15 10.4898 14.9292 10.3106 14.7875 10.1689C14.6458 10.0273 14.4667 9.95645 14.25 9.95645H10.825V6.33145C10.825 6.13145 10.7542 5.96061 10.6125 5.81895C10.4708 5.67728 10.2917 5.60645 10.075 5.60645C9.85833 5.60645 9.67917 5.67728 9.5375 5.81895C9.39583 5.96061 9.325 6.13978 9.325 6.35645V9.95645H5.725C5.525 9.95645 5.35417 10.0273 5.2125 10.1689C5.07083 10.3106 5 10.4898 5 10.7064C5 10.9231 5.07083 11.1023 5.2125 11.2439C5.35417 11.3856 5.53333 11.4564 5.75 11.4564H9.325V14.8814C9.325 15.0814 9.39583 15.2523 9.5375 15.3939C9.67917 15.5356 9.85833 15.6064 10.075 15.6064ZM10 20.6064C8.58333 20.6064 7.26667 20.3523 6.05 19.8439C4.83333 19.3356 3.775 18.6314 2.875 17.7314C1.975 16.8314 1.27083 15.7731 0.7625 14.5564C0.254167 13.3398 0 12.0231 0 10.6064C0 9.20645 0.254167 7.89811 0.7625 6.68145C1.27083 5.46478 1.975 4.40645 2.875 3.50645C3.775 2.60645 4.83333 1.89811 6.05 1.38145C7.26667 0.864779 8.58333 0.606445 10 0.606445C11.4 0.606445 12.7083 0.864779 13.925 1.38145C15.1417 1.89811 16.2 2.60645 17.1 3.50645C18 4.40645 18.7083 5.46478 19.225 6.68145C19.7417 7.89811 20 9.20645 20 10.6064C20 12.0231 19.7417 13.3398 19.225 14.5564C18.7083 15.7731 18 16.8314 17.1 17.7314C16.2 18.6314 15.1417 19.3356 13.925 19.8439C12.7083 20.3523 11.4 20.6064 10 20.6064ZM10 19.1064C12.3333 19.1064 14.3333 18.2731 16 16.6064C17.6667 14.9398 18.5 12.9398 18.5 10.6064C18.5 8.27311 17.6667 6.27311 16 4.60645C14.3333 2.93978 12.3333 2.10645 10 2.10645C7.66667 2.10645 5.66667 2.93978 4 4.60645C2.33333 6.27311 1.5 8.27311 1.5 10.6064C1.5 12.9398 2.33333 14.9398 4 16.6064C5.66667 18.2731 7.66667 19.1064 10 19.1064Z" fill="black"/>
</svg>
