<svg width="20" height="14" viewBox="0 0 20 14" fill="none" xmlns="http://www.w3.org/2000/svg">
<path d="M10 14C8.18333 14 6.61667 13.4 5.3 12.2C3.98333 11 3.23333 9.51667 3.05 7.75H0V6.25H3.05C3.23333 4.48333 3.98333 3 5.3 1.8C6.61667 0.6 8.18333 0 10 0C11.8167 0 13.3833 0.6 14.7 1.8C16.0167 3 16.7667 4.48333 16.95 6.25H20V7.75H16.95C16.7667 9.51667 16.0167 11 14.7 12.2C13.3833 13.4 11.8167 14 10 14ZM10 12.5C11.5333 12.5 12.8333 11.9625 13.9 10.8875C14.9667 9.8125 15.5 8.51667 15.5 7C15.5 5.46667 14.9667 4.16667 13.9 3.1C12.8333 2.03333 11.5333 1.5 10 1.5C8.48333 1.5 7.1875 2.03333 6.1125 3.1C5.0375 4.16667 4.5 5.46667 4.5 7C4.5 8.51667 5.0375 9.8125 6.1125 10.8875C7.1875 11.9625 8.48333 12.5 10 12.5ZM8.075 10.375H11.925C12.1917 10.375 12.4167 10.2833 12.6 10.1C12.7833 9.91667 12.875 9.69167 12.875 9.425V6.575C12.875 6.30833 12.7833 6.08333 12.6 5.9C12.4167 5.71667 12.1917 5.625 11.925 5.625H11.9V4.6C11.9 4.06667 11.7167 3.60417 11.35 3.2125C10.9833 2.82083 10.5333 2.625 10 2.625C9.46667 2.625 9.01667 2.82083 8.65 3.2125C8.28333 3.60417 8.1 4.06667 8.1 4.6V5.625H8.075C7.80833 5.625 7.58333 5.71667 7.4 5.9C7.21667 6.08333 7.125 6.30833 7.125 6.575V9.425C7.125 9.69167 7.21667 9.91667 7.4 10.1C7.58333 10.2833 7.80833 10.375 8.075 10.375ZM10 8.75C9.78333 8.75 9.60417 8.67917 9.4625 8.5375C9.32083 8.39583 9.25 8.21667 9.25 8C9.25 7.78333 9.32083 7.60417 9.4625 7.4625C9.60417 7.32083 9.78333 7.25 10 7.25C10.2167 7.25 10.3958 7.32083 10.5375 7.4625C10.6792 7.60417 10.75 7.78333 10.75 8C10.75 8.21667 10.6792 8.39583 10.5375 8.5375C10.3958 8.67917 10.2167 8.75 10 8.75ZM8.85 5.625V4.6C8.85 4.26667 8.95833 3.97917 9.175 3.7375C9.39167 3.49583 9.66667 3.375 10 3.375C10.3333 3.375 10.6083 3.49583 10.825 3.7375C11.0417 3.97917 11.15 4.26667 11.15 4.6V5.625H8.85Z" fill="#49454F"/>
</svg>
