<svg width="17" height="16" viewBox="0 0 17 16" fill="none" xmlns="http://www.w3.org/2000/svg">
<path d="M8.59961 7.97461C7.49961 7.97461 6.59961 7.62461 5.89961 6.92461C5.19961 6.22461 4.84961 5.32461 4.84961 4.22461C4.84961 3.12461 5.19961 2.22461 5.89961 1.52461C6.59961 0.82461 7.49961 0.474609 8.59961 0.474609C9.69961 0.474609 10.5996 0.82461 11.2996 1.52461C11.9996 2.22461 12.3496 3.12461 12.3496 4.22461C12.3496 5.32461 11.9996 6.22461 11.2996 6.92461C10.5996 7.62461 9.69961 7.97461 8.59961 7.97461ZM0.599609 15.9996V13.6496C0.599609 13.0163 0.757943 12.4746 1.07461 12.0246C1.39128 11.5746 1.79961 11.2329 2.29961 10.9996C3.41628 10.4996 4.48711 10.1246 5.51211 9.87461C6.53711 9.62461 7.56628 9.49961 8.59961 9.49961C9.63294 9.49961 10.6579 9.62878 11.6746 9.88711C12.6913 10.1454 13.7579 10.5163 14.8746 10.9996C15.3913 11.2329 15.8079 11.5746 16.1246 12.0246C16.4413 12.4746 16.5996 13.0163 16.5996 13.6496V15.9996H0.599609ZM2.09961 14.4996H15.0996V13.6496C15.0996 13.3829 15.0204 13.1288 14.8621 12.8871C14.7038 12.6454 14.5079 12.4663 14.2746 12.3496C13.2079 11.8329 12.2329 11.4788 11.3496 11.2871C10.4663 11.0954 9.54961 10.9996 8.59961 10.9996C7.64961 10.9996 6.72461 11.0954 5.82461 11.2871C4.92461 11.4788 3.94961 11.8329 2.89961 12.3496C2.66628 12.4663 2.47461 12.6454 2.32461 12.8871C2.17461 13.1288 2.09961 13.3829 2.09961 13.6496V14.4996ZM8.59961 6.47461C9.24961 6.47461 9.78711 6.26211 10.2121 5.83711C10.6371 5.41211 10.8496 4.87461 10.8496 4.22461C10.8496 3.57461 10.6371 3.03711 10.2121 2.61211C9.78711 2.18711 9.24961 1.97461 8.59961 1.97461C7.94961 1.97461 7.41211 2.18711 6.98711 2.61211C6.56211 3.03711 6.34961 3.57461 6.34961 4.22461C6.34961 4.87461 6.56211 5.41211 6.98711 5.83711C7.41211 6.26211 7.94961 6.47461 8.59961 6.47461Z" fill="url(#paint0_linear_2004_10846)"/>
<defs>
<linearGradient id="paint0_linear_2004_10846" x1="0.599609" y1="8.23711" x2="16.5995" y2="8.39877" gradientUnits="userSpaceOnUse">
<stop stop-color="#44A08D"/>
<stop offset="1" stop-color="#093637"/>
</linearGradient>
</defs>
</svg>
