<svg width="41" height="40" viewBox="0 0 41 40" fill="none" xmlns="http://www.w3.org/2000/svg">
<path d="M38.1654 32.6667V0.666667C38.1654 0.266667 37.8987 0 37.4987 0H7.4987C7.0987 0 6.83203 0.266667 6.83203 0.666667V10H8.16536V1.33333H36.832V32H30.832C30.432 32 30.1654 32.2667 30.1654 32.6667V38.6667H8.16536V28.6667H6.83203V39.3333C6.83203 39.7333 7.0987 40 7.4987 40H30.832C31.032 40 31.1654 39.9333 31.2987 39.8L37.9654 33.1333C38.032 33.0667 38.032 33 38.0987 32.9333V32.8667C38.1654 32.8 38.1654 32.7333 38.1654 32.6667ZM31.4987 33.3333H35.8987L33.6987 35.5333L31.4987 37.7333V33.3333Z" fill="#44A08D"/>
<path d="M11.4987 25.3346H15.4987H18.1654V24.0013H16.1654V11.3346C16.1654 10.9346 15.8987 10.668 15.4987 10.668H11.4987C11.0987 10.668 10.832 10.9346 10.832 11.3346V15.3346H7.4987C7.0987 15.3346 6.83203 15.6013 6.83203 16.0013V18.668H3.4987C3.0987 18.668 2.83203 18.9346 2.83203 19.3346V24.668C2.83203 25.068 3.0987 25.3346 3.4987 25.3346H7.4987H11.4987ZM12.1654 12.0013H14.832V24.0013H12.1654V16.0013V12.0013ZM8.16536 16.668H10.832V24.0013H8.16536V19.3346V16.668ZM4.16536 20.0013H6.83203V24.0013H4.16536V20.0013Z" fill="#44A08D"/>
<path d="M34.1654 16V4.66667C34.1654 4.26667 33.8987 4 33.4987 4H19.4987C19.0987 4 18.832 4.26667 18.832 4.66667V16C18.832 16.4 19.0987 16.6667 19.4987 16.6667H33.4987C33.8987 16.6667 34.1654 16.4 34.1654 16ZM32.832 8H24.832V5.33333H32.832V8ZM23.4987 5.33333V8H20.1654C20.1654 6.93333 20.1654 5.33333 20.1654 5.33333H23.4987ZM20.1654 9.33333H23.4987V15.3333H20.1654C20.1654 15.3333 20.1654 12.2 20.1654 9.33333ZM24.832 15.3333V9.33333H32.832V15.3333H24.832Z" fill="#44A08D"/>
<path d="M33.5 18.668H19.5V20.0013H33.5V18.668Z" fill="#44A08D"/>
<path d="M33.5 22H19.5V23.3333H33.5V22Z" fill="#44A08D"/>
<path d="M33.5 25.332H19.5V26.6654H33.5V25.332Z" fill="#44A08D"/>
<path d="M14.1641 4H10.1641V5.33333H14.1641V4Z" fill="#44A08D"/>
<path d="M16.1641 7.33203H10.1641V8.66536H16.1641V7.33203Z" fill="#44A08D"/>
<path d="M14.8307 28.668H10.1641V30.0013H14.8307V28.668Z" fill="#44A08D"/>
<path d="M21.4987 28.668H16.832V30.0013H21.4987V28.668Z" fill="#44A08D"/>
<path d="M28.1667 28.668H23.5V30.0013H28.1667V28.668Z" fill="#44A08D"/>
<path d="M14.8307 32H10.1641V33.3333H14.8307V32Z" fill="#44A08D"/>
<path d="M21.4987 32H16.832V33.3333H21.4987V32Z" fill="#44A08D"/>
<path d="M28.1667 32H23.5V33.3333H28.1667V32Z" fill="#44A08D"/>
<path d="M14.8307 35.332H10.1641V36.6654H14.8307V35.332Z" fill="#44A08D"/>
<path d="M21.4987 35.332H16.832V36.6654H21.4987V35.332Z" fill="#44A08D"/>
<path d="M28.1667 35.332H23.5V36.6654H28.1667V35.332Z" fill="#44A08D"/>
</svg>
