<svg width="17" height="20" viewBox="0 0 17 20" fill="none" xmlns="http://www.w3.org/2000/svg">
<path d="M4.7748 15.75H12.8248V14.25H4.7748V15.75ZM4.7748 11.5H12.8248V10H4.7748V11.5ZM2.2998 20C1.8998 20 1.5498 19.85 1.2498 19.55C0.949804 19.25 0.799805 18.9 0.799805 18.5V1.5C0.799805 1.1 0.949804 0.75 1.2498 0.45C1.5498 0.15 1.8998 0 2.2998 0H11.3248L16.7998 5.475V18.5C16.7998 18.9 16.6498 19.25 16.3498 19.55C16.0498 19.85 15.6998 20 15.2998 20H2.2998ZM10.5748 6.15V1.5H2.2998V18.5H15.2998V6.15H10.5748Z" fill="#49454F"/>
</svg>
