<svg width="23" height="23" viewBox="0 0 23 23" fill="none" xmlns="http://www.w3.org/2000/svg">
<path d="M20.6 9.18145L19.35 8.60645L20.6 8.03145L21.175 6.78145L21.75 8.03145L23 8.60645L21.75 9.18145L21.175 10.4314L20.6 9.18145ZM17.125 4.20645L15.275 3.33145L17.125 2.45645L18 0.606445L18.875 2.45645L20.725 3.33145L18.875 4.20645L18 6.05645L17.125 4.20645ZM8 22.6064C7.43333 22.6064 6.95417 22.4106 6.5625 22.0189C6.17083 21.6273 5.975 21.1481 5.975 20.5814H10.025C10.025 21.1481 9.82917 21.6273 9.4375 22.0189C9.04583 22.4106 8.56667 22.6064 8 22.6064ZM4.7 19.0314C4.48333 19.0314 4.30417 18.9606 4.1625 18.8189C4.02083 18.6773 3.95 18.4981 3.95 18.2814C3.95 18.0648 4.02083 17.8856 4.1625 17.7439C4.30417 17.6023 4.48333 17.5314 4.7 17.5314H11.3C11.5167 17.5314 11.6958 17.6023 11.8375 17.7439C11.9792 17.8856 12.05 18.0648 12.05 18.2814C12.05 18.4981 11.9792 18.6773 11.8375 18.8189C11.6958 18.9606 11.5167 19.0314 11.3 19.0314H4.7ZM4.075 16.0064C2.975 15.2898 2.10417 14.3939 1.4625 13.3189C0.820833 12.2439 0.5 11.0314 0.5 9.68145C0.5 7.64811 1.24167 5.88978 2.725 4.40645C4.20833 2.92311 5.96667 2.18145 8 2.18145C10.0333 2.18145 11.7917 2.92311 13.275 4.40645C14.7583 5.88978 15.5 7.64811 15.5 9.68145C15.5 11.0314 15.1833 12.2439 14.55 13.3189C13.9167 14.3939 13.0417 15.2898 11.925 16.0064H4.075ZM4.625 14.5064H11.4C12.2 13.9731 12.8333 13.2814 13.3 12.4314C13.7667 11.5814 14 10.6648 14 9.68145C14 8.03145 13.4125 6.61895 12.2375 5.44395C11.0625 4.26895 9.65 3.68145 8 3.68145C6.35 3.68145 4.9375 4.26895 3.7625 5.44395C2.5875 6.61895 2 8.03145 2 9.68145C2 10.6648 2.23333 11.5814 2.7 12.4314C3.16667 13.2814 3.80833 13.9731 4.625 14.5064Z" fill="black"/>
</svg>
