<svg width="24" height="24" viewBox="0 0 24 24" fill="none" xmlns="http://www.w3.org/2000/svg">
<path d="M11.9036 17.1L7.25357 19.9C7.12024 19.9833 6.97857 20.0208 6.82857 20.0125C6.67857 20.0042 6.54524 19.9583 6.42857 19.875C6.3119 19.7917 6.2244 19.6833 6.16607 19.55C6.10774 19.4167 6.09524 19.2667 6.12857 19.1L7.35357 13.8L3.25357 10.225C3.12024 10.1083 3.04107 9.97917 3.01607 9.8375C2.99107 9.69583 2.99524 9.55833 3.02857 9.425C3.0619 9.29167 3.1369 9.17917 3.25357 9.0875C3.37024 8.99583 3.5119 8.94167 3.67857 8.925L9.10357 8.45L11.2036 3.45C11.2702 3.3 11.3702 3.1875 11.5036 3.1125C11.6369 3.0375 11.7702 3 11.9036 3C12.0369 3 12.1702 3.0375 12.3036 3.1125C12.4369 3.1875 12.5369 3.3 12.6036 3.45L14.7036 8.45L20.1286 8.925C20.2952 8.94167 20.4369 8.99583 20.5536 9.0875C20.6702 9.17917 20.7452 9.29167 20.7786 9.425C20.8119 9.55833 20.8161 9.69583 20.7911 9.8375C20.7661 9.97917 20.6869 10.1083 20.5536 10.225L16.4536 13.8L17.6786 19.1C17.7119 19.2667 17.6994 19.4167 17.6411 19.55C17.5827 19.6833 17.4952 19.7917 17.3786 19.875C17.2619 19.9583 17.1286 20.0042 16.9786 20.0125C16.8286 20.0208 16.6869 19.9833 16.5536 19.9L11.9036 17.1Z" fill="url(#paint0_linear_1846_12088)"/>
<defs>
<linearGradient id="paint0_linear_1846_12088" x1="3" y1="11.5068" x2="20.807" y2="11.6895" gradientUnits="userSpaceOnUse">
<stop stop-color="#44A08D"/>
<stop offset="1" stop-color="#093637"/>
</linearGradient>
</defs>
</svg>
