<svg width="19" height="18" viewBox="0 0 19 18" fill="none" xmlns="http://www.w3.org/2000/svg">
<path d="M9.50025 14.2748L4.85025 17.0748C4.71692 17.1581 4.57525 17.1956 4.42525 17.1873C4.27525 17.179 4.14192 17.1331 4.02525 17.0498C3.90858 16.9665 3.82108 16.8581 3.76275 16.7248C3.70442 16.5915 3.69192 16.4415 3.72525 16.2748L4.95025 10.9748L0.850251 7.3998C0.716918 7.28314 0.637751 7.15397 0.612751 7.0123C0.587751 6.87064 0.591918 6.73314 0.625251 6.5998C0.658584 6.46647 0.733584 6.35397 0.850251 6.2623C0.966918 6.17064 1.10858 6.11647 1.27525 6.0998L6.70025 5.6248L8.80025 0.624804C8.86692 0.474804 8.96692 0.362304 9.10025 0.287304C9.23358 0.212304 9.36692 0.174805 9.50025 0.174805C9.63358 0.174805 9.76692 0.212304 9.90025 0.287304C10.0336 0.362304 10.1336 0.474804 10.2003 0.624804L12.3003 5.6248L17.7253 6.0998C17.8919 6.11647 18.0336 6.17064 18.1503 6.2623C18.2669 6.35397 18.3419 6.46647 18.3753 6.5998C18.4086 6.73314 18.4128 6.87064 18.3878 7.0123C18.3628 7.15397 18.2836 7.28314 18.1503 7.3998L14.0503 10.9748L15.2753 16.2748C15.3086 16.4415 15.2961 16.5915 15.2378 16.7248C15.1794 16.8581 15.0919 16.9665 14.9753 17.0498C14.8586 17.1331 14.7253 17.179 14.5753 17.1873C14.4253 17.1956 14.2836 17.1581 14.1503 17.0748L9.50025 14.2748Z" fill="url(#paint0_linear_1823_18860)"/>
<defs>
<linearGradient id="paint0_linear_1823_18860" x1="0.59668" y1="8.68162" x2="18.4037" y2="8.86434" gradientUnits="userSpaceOnUse">
<stop stop-color="#44A08D"/>
<stop offset="1" stop-color="#093637"/>
</linearGradient>
</defs>
</svg>
