<svg width="30" height="30" viewBox="0 0 30 30" fill="none" xmlns="http://www.w3.org/2000/svg">
<rect x="0.5" y="0.5" width="29" height="29" rx="14.5" fill="white"/>
<mask id="mask0_1846_11776" style="mask-type:alpha" maskUnits="userSpaceOnUse" x="3" y="3" width="24" height="24">
<rect x="3" y="3" width="24" height="24" fill="#D9D9D9"/>
</mask>
<g mask="url(#mask0_1846_11776)">
<path d="M9 17C8.45 17 7.97933 16.804 7.588 16.412C7.196 16.0207 7 15.55 7 15C7 14.45 7.196 13.979 7.588 13.587C7.97933 13.1957 8.45 13 9 13C9.55 13 10.0207 13.1957 10.412 13.587C10.804 13.979 11 14.45 11 15C11 15.55 10.804 16.0207 10.412 16.412C10.0207 16.804 9.55 17 9 17ZM15 17C14.45 17 13.9793 16.804 13.588 16.412C13.196 16.0207 13 15.55 13 15C13 14.45 13.196 13.979 13.588 13.587C13.9793 13.1957 14.45 13 15 13C15.55 13 16.021 13.1957 16.413 13.587C16.8043 13.979 17 14.45 17 15C17 15.55 16.8043 16.0207 16.413 16.412C16.021 16.804 15.55 17 15 17ZM21 17C20.45 17 19.979 16.804 19.587 16.412C19.1957 16.0207 19 15.55 19 15C19 14.45 19.1957 13.979 19.587 13.587C19.979 13.1957 20.45 13 21 13C21.55 13 22.021 13.1957 22.413 13.587C22.8043 13.979 23 14.45 23 15C23 15.55 22.8043 16.0207 22.413 16.412C22.021 16.804 21.55 17 21 17Z" fill="#44A08D"/>
</g>
<rect x="0.5" y="0.5" width="29" height="29" rx="14.5" stroke="#44A08D"/>
</svg>
