<svg width="25" height="21" viewBox="0 0 25 21" fill="none" xmlns="http://www.w3.org/2000/svg">
<g clip-path="url(#clip0_1878_12436)">
<path d="M21.9789 5.69854C21.9935 5.90854 21.9935 6.11854 21.9935 6.33048C21.9935 12.7882 17.0773 20.236 8.08797 20.236V20.2321C5.43249 20.236 2.83216 19.4754 0.59668 18.0412C0.982809 18.0876 1.37087 18.1108 1.75991 18.1118C3.96055 18.1137 6.09829 17.3753 7.82958 16.0157C5.73829 15.976 3.90442 14.6124 3.26378 12.6218C3.99636 12.7631 4.7512 12.734 5.47023 12.5376C3.19023 12.0769 1.54991 10.0737 1.54991 7.74725V7.68532C2.22926 8.06371 2.98991 8.27371 3.76797 8.29693C1.62055 6.86177 0.958615 4.00498 2.25539 1.77143C4.73668 4.82466 8.39765 6.6808 12.3276 6.87725C11.9338 5.17983 12.4718 3.40111 13.7415 2.20788C15.7099 0.357555 18.8057 0.452394 20.656 2.41982C21.7505 2.20401 22.7996 1.8024 23.7596 1.23336C23.3947 2.36466 22.6312 3.32563 21.6112 3.93628C22.5799 3.82208 23.5264 3.56273 24.4176 3.16692C23.7615 4.15015 22.9351 5.0066 21.9789 5.69854Z" fill="#1D9BF0"/>
</g>
<defs>
<clipPath id="clip0_1878_12436">
<rect width="24" height="19.742" fill="white" transform="translate(0.5 0.735352)"/>
</clipPath>
</defs>
</svg>
