<svg width="40" height="40" viewBox="0 0 40 40" fill="none" xmlns="http://www.w3.org/2000/svg">
<rect width="40" height="40" rx="10" fill="white"/>
<path d="M25.8477 26.2188V28H14.6797V26.4414L20.2695 20.2188C20.957 19.4531 21.4883 18.8047 21.8633 18.2734C22.2461 17.7344 22.5117 17.2539 22.6602 16.832C22.8164 16.4023 22.8945 15.9648 22.8945 15.5195C22.8945 14.957 22.7773 14.4492 22.543 13.9961C22.3164 13.5352 21.9805 13.168 21.5352 12.8945C21.0898 12.6211 20.5508 12.4844 19.918 12.4844C19.1602 12.4844 18.5273 12.6328 18.0195 12.9297C17.5195 13.2188 17.1445 13.625 16.8945 14.1484C16.6445 14.6719 16.5195 15.2734 16.5195 15.9531H14.3516C14.3516 14.9922 14.5625 14.1133 14.9844 13.3164C15.4062 12.5195 16.0312 11.8867 16.8594 11.418C17.6875 10.9414 18.707 10.7031 19.918 10.7031C20.9961 10.7031 21.918 10.8945 22.6836 11.2773C23.4492 11.6523 24.0352 12.1836 24.4414 12.8711C24.8555 13.5508 25.0625 14.3477 25.0625 15.2617C25.0625 15.7617 24.9766 16.2695 24.8047 16.7852C24.6406 17.293 24.4102 17.8008 24.1133 18.3086C23.8242 18.8164 23.4844 19.3164 23.0938 19.8086C22.7109 20.3008 22.3008 20.7852 21.8633 21.2617L17.293 26.2188H25.8477Z" fill="#3F9685"/>
</svg>
