<svg width="40" height="40" viewBox="0 0 40 40" fill="none" xmlns="http://www.w3.org/2000/svg">
<rect width="40" height="40" rx="10" fill="white"/>
<path d="M17.832 18.4023H19.3789C20.1367 18.4023 20.7617 18.2773 21.2539 18.0273C21.7539 17.7695 22.125 17.4219 22.3672 16.9844C22.6172 16.5391 22.7422 16.0391 22.7422 15.4844C22.7422 14.8281 22.6328 14.2773 22.4141 13.832C22.1953 13.3867 21.8672 13.0508 21.4297 12.8242C20.9922 12.5977 20.4375 12.4844 19.7656 12.4844C19.1562 12.4844 18.6172 12.6055 18.1484 12.8477C17.6875 13.082 17.3242 13.418 17.0586 13.8555C16.8008 14.293 16.6719 14.8086 16.6719 15.4023H14.5039C14.5039 14.5352 14.7227 13.7461 15.1602 13.0352C15.5977 12.3242 16.2109 11.7578 17 11.3359C17.7969 10.9141 18.7188 10.7031 19.7656 10.7031C20.7969 10.7031 21.6992 10.8867 22.4727 11.2539C23.2461 11.6133 23.8477 12.1523 24.2773 12.8711C24.707 13.582 24.9219 14.4688 24.9219 15.5312C24.9219 15.9609 24.8203 16.4219 24.6172 16.9141C24.4219 17.3984 24.1133 17.8516 23.6914 18.2734C23.2773 18.6953 22.7383 19.043 22.0742 19.3164C21.4102 19.582 20.6133 19.7148 19.6836 19.7148H17.832V18.4023ZM17.832 20.1836V18.8828H19.6836C20.7695 18.8828 21.668 19.0117 22.3789 19.2695C23.0898 19.5273 23.6484 19.8711 24.0547 20.3008C24.4688 20.7305 24.7578 21.2031 24.9219 21.7188C25.0938 22.2266 25.1797 22.7344 25.1797 23.2422C25.1797 24.0391 25.043 24.7461 24.7695 25.3633C24.5039 25.9805 24.125 26.5039 23.6328 26.9336C23.1484 27.3633 22.5781 27.6875 21.9219 27.9062C21.2656 28.125 20.5508 28.2344 19.7773 28.2344C19.0352 28.2344 18.3359 28.1289 17.6797 27.918C17.0312 27.707 16.457 27.4023 15.957 27.0039C15.457 26.5977 15.0664 26.1016 14.7852 25.5156C14.5039 24.9219 14.3633 24.2461 14.3633 23.4883H16.5312C16.5312 24.082 16.6602 24.6016 16.918 25.0469C17.1836 25.4922 17.5586 25.8398 18.043 26.0898C18.5352 26.332 19.1133 26.4531 19.7773 26.4531C20.4414 26.4531 21.0117 26.3398 21.4883 26.1133C21.9727 25.8789 22.3438 25.5273 22.6016 25.0586C22.8672 24.5898 23 24 23 23.2891C23 22.5781 22.8516 21.9961 22.5547 21.543C22.2578 21.082 21.8359 20.7422 21.2891 20.5234C20.75 20.2969 20.1133 20.1836 19.3789 20.1836H17.832Z" fill="#3F9685"/>
</svg>
