<svg width="40" height="40" viewBox="0 0 40 40" fill="none" xmlns="http://www.w3.org/2000/svg">
<path fill-rule="evenodd" clip-rule="evenodd" d="M16.9979 24.0946H17.6079V26.1286C17.6079 26.5926 18.0339 26.9996 18.5219 26.9996C19.0099 26.9996 19.4369 26.5926 19.4369 26.1286V24.0946H20.6569V26.1286C20.6569 26.5926 21.0839 26.9996 21.5719 26.9996C22.0599 26.9996 22.4869 26.5926 22.4869 26.1286V24.0946H23.0969C23.4629 24.0946 23.7069 23.8626 23.7069 23.5146L23.7059 17.5346H16.3879V23.5146C16.3879 23.8626 16.6319 24.0946 16.9979 24.0946ZM15.0809 17.3806C14.6629 17.3806 14.2969 17.8196 14.2969 18.3206V22.7126C14.2969 23.2146 14.6629 23.6536 15.0809 23.6536C15.4989 23.6536 15.8649 23.2146 15.8649 22.7136V18.3206C15.8649 17.8186 15.4989 17.3806 15.0809 17.3806ZM24.2289 18.3206V22.7126C24.2289 23.2146 24.5949 23.6536 25.0139 23.6536C25.4319 23.6536 25.7979 23.2146 25.7979 22.7136V18.3206C25.7979 17.8186 25.4319 17.3796 25.0139 17.3796C24.5949 17.3796 24.2289 17.8196 24.2289 18.3206ZM22.9749 13.5096C23.0037 13.4841 23.0267 13.4528 23.0425 13.4177C23.0582 13.3826 23.0664 13.3446 23.0664 13.3061C23.0664 13.2677 23.0582 13.2296 23.0425 13.1946C23.0267 13.1595 23.0037 13.1282 22.9749 13.1026C22.9179 13.0468 22.8412 13.0155 22.7614 13.0155C22.6815 13.0155 22.6049 13.0468 22.5479 13.1026L21.6319 13.9736C21.2059 13.6826 20.6569 13.5666 20.0469 13.5666C19.4786 13.5577 18.9157 13.677 18.3999 13.9156L17.5469 13.0436C17.3894 12.9855 17.2163 12.9855 17.0589 13.0436C16.9979 13.1926 16.9979 13.3596 17.0589 13.5086L17.8519 14.2636C16.9979 14.9036 16.3879 15.8916 16.3879 17.0316H23.7069C23.7036 16.4797 23.5624 15.9373 23.2961 15.4539C23.0297 14.9704 22.6467 14.5613 22.1819 14.2636L22.9749 13.5096ZM19.0699 16.0596H18.0309V15.0156H19.0699V16.0596ZM21.0549 16.0596V15.0156H22.0929V16.0596H21.0549Z" fill="white"/>
<rect x="0.5" y="0.5" width="39" height="39" rx="19.5" stroke="#BECCBE"/>
</svg>
