<svg width="44" height="44" viewBox="0 0 44 44" fill="none" xmlns="http://www.w3.org/2000/svg">
<rect width="44" height="44" rx="8" fill="#F2F2F2"/>
<path d="M28.7328 29.5C27.9028 30.74 27.0228 31.95 25.6828 31.97C24.3428 32 23.9128 31.18 22.3928 31.18C20.8628 31.18 20.3928 31.95 19.1228 32C17.8128 32.05 16.8228 30.68 15.9828 29.47C14.2728 27 12.9628 22.45 14.7228 19.39C15.5928 17.87 17.1528 16.91 18.8428 16.88C20.1228 16.86 21.3428 17.75 22.1328 17.75C22.9128 17.75 24.3928 16.68 25.9428 16.84C26.5928 16.87 28.4128 17.1 29.5828 18.82C29.4928 18.88 27.4128 20.1 27.4328 22.63C27.4628 25.65 30.0828 26.66 30.1128 26.67C30.0828 26.74 29.6928 28.11 28.7328 29.5ZM23.0228 13.5C23.7528 12.67 24.9628 12.04 25.9628 12C26.0928 13.17 25.6228 14.35 24.9228 15.19C24.2328 16.04 23.0928 16.7 21.9728 16.61C21.8228 15.46 22.3828 14.26 23.0228 13.5Z" fill="black"/>
</svg>
