<svg width="40" height="40" viewBox="0 0 40 40" fill="none" xmlns="http://www.w3.org/2000/svg">
<path fill-rule="evenodd" clip-rule="evenodd" d="M26.0179 23.2713C25.6889 24.0003 25.5319 24.3253 25.1079 24.9693C24.5179 25.8693 23.6849 26.9893 22.6529 26.9983C21.7349 27.0063 21.4999 26.4013 20.2559 26.4083C19.0119 26.4153 18.7519 27.0083 17.8359 27.0003C16.8029 26.9903 16.0139 25.9803 15.4229 25.0803C13.7709 22.5663 13.5979 19.6143 14.6169 18.0463C15.3419 16.9313 16.4839 16.2803 17.5579 16.2803C18.6519 16.2803 19.3379 16.8793 20.2429 16.8793C21.1199 16.8793 21.6549 16.2793 22.9189 16.2793C23.8749 16.2793 24.8879 16.7993 25.6089 17.6983C23.2449 18.9943 23.6289 22.3703 26.0189 23.2723L26.0179 23.2713Z" fill="white"/>
<path fill-rule="evenodd" clip-rule="evenodd" d="M21.9615 15.273C22.4205 14.683 22.7695 13.85 22.6425 13C21.8925 13.052 21.0155 13.53 20.5025 14.151C20.0365 14.716 19.6525 15.554 19.8025 16.368C20.6225 16.394 21.4695 15.904 21.9615 15.273Z" fill="white"/>
<rect x="0.5" y="0.5" width="39" height="39" rx="19.5" stroke="#BECCBE"/>
</svg>
