<svg width="32" height="30" viewBox="0 0 32 30" fill="none" xmlns="http://www.w3.org/2000/svg">
<path d="M10.376 5.667V2.625C10.376 1.903 10.633 1.285 11.147 0.771C11.661 0.257 12.265 0 12.959 0H19.043C19.737 0 20.341 0.257 20.855 0.771C21.369 1.285 21.626 1.903 21.626 2.625V5.667H29.209C29.9316 5.667 30.5496 5.924 31.063 6.438C31.577 6.95133 31.834 7.55533 31.834 8.25V26.542C31.834 27.264 31.577 27.882 31.063 28.396C30.5496 28.91 29.9316 29.167 29.209 29.167H2.79297C2.0703 29.167 1.4523 28.91 0.938969 28.396C0.424969 27.882 0.167969 27.264 0.167969 26.542V8.25C0.167969 7.55533 0.424969 6.95133 0.938969 6.438C1.4523 5.924 2.0703 5.667 2.79297 5.667H10.376ZM12.459 5.667H19.543V2.625C19.543 2.48633 19.4873 2.36133 19.376 2.25C19.2646 2.13867 19.1536 2.083 19.043 2.083H12.959C12.8483 2.083 12.7373 2.13867 12.626 2.25C12.5146 2.36133 12.459 2.48633 12.459 2.625V5.667ZM29.751 19.375H19.584V20.583C19.584 20.9443 19.459 21.25 19.209 21.5C18.959 21.75 18.6396 21.875 18.251 21.875H13.751C13.3896 21.875 13.084 21.75 12.834 21.5C12.584 21.25 12.459 20.9443 12.459 20.583V19.375H2.25097V26.542C2.25097 26.6807 2.30664 26.8057 2.41797 26.917C2.52864 27.0277 2.65364 27.083 2.79297 27.083H29.209C29.3483 27.083 29.4733 27.0277 29.584 26.917C29.6953 26.8057 29.751 26.6807 29.751 26.542V19.375ZM14.543 19.792H17.501V16.833H14.543V19.792ZM2.25097 17.25H12.459V16.042C12.459 15.6807 12.584 15.375 12.834 15.125C13.084 14.875 13.3896 14.75 13.751 14.75H18.293C18.6536 14.75 18.959 14.875 19.209 15.125C19.459 15.375 19.584 15.6807 19.584 16.042V17.25H29.751V8.25C29.751 8.11133 29.6953 7.99333 29.584 7.896C29.4733 7.79867 29.3483 7.75 29.209 7.75H2.79297C2.65364 7.75 2.52864 7.79867 2.41797 7.896C2.30664 7.99333 2.25097 8.11133 2.25097 8.25V17.25Z" fill="#B4F0E5"/>
</svg>
