<svg width="21" height="21" viewBox="0 0 21 21" fill="none" xmlns="http://www.w3.org/2000/svg">
<path d="M10.0273 13.9217L13.0773 16.2467C13.2273 16.3633 13.3732 16.3675 13.5148 16.2592C13.6565 16.1508 13.7023 16.005 13.6523 15.8217L12.4273 12.0467L15.4523 9.89668C15.6023 9.78001 15.6523 9.63835 15.6023 9.47168C15.5523 9.30501 15.4357 9.22168 15.2523 9.22168H11.5523L10.3773 5.32168C10.3273 5.13835 10.2148 5.04668 10.0398 5.04668C9.86484 5.04668 9.74401 5.13835 9.67734 5.32168L8.47734 9.22168H4.77734C4.59401 9.22168 4.47734 9.30501 4.42734 9.47168C4.37734 9.63835 4.42734 9.78001 4.57734 9.89668L7.60234 12.0467L6.40234 15.8467C6.35234 16.03 6.39818 16.1717 6.53984 16.2717C6.68151 16.3717 6.82734 16.3633 6.97734 16.2467L10.0273 13.9217ZM10.0273 20.9717C8.61068 20.9717 7.29401 20.7175 6.07734 20.2092C4.86068 19.7008 3.80234 18.9967 2.90234 18.0967C2.00234 17.1967 1.29818 16.1383 0.789844 14.9217C0.28151 13.705 0.0273438 12.3883 0.0273438 10.9717C0.0273438 9.57168 0.28151 8.26335 0.789844 7.04668C1.29818 5.83001 2.00234 4.77168 2.90234 3.87168C3.80234 2.97168 4.86068 2.26335 6.07734 1.74668C7.29401 1.23001 8.61068 0.97168 10.0273 0.97168C11.4273 0.97168 12.7357 1.23001 13.9523 1.74668C15.169 2.26335 16.2273 2.97168 17.1273 3.87168C18.0273 4.77168 18.7357 5.83001 19.2523 7.04668C19.769 8.26335 20.0273 9.57168 20.0273 10.9717C20.0273 12.3883 19.769 13.705 19.2523 14.9217C18.7357 16.1383 18.0273 17.1967 17.1273 18.0967C16.2273 18.9967 15.169 19.7008 13.9523 20.2092C12.7357 20.7175 11.4273 20.9717 10.0273 20.9717ZM10.0273 19.4717C12.444 19.4717 14.4648 18.6592 16.0898 17.0342C17.7148 15.4092 18.5273 13.3883 18.5273 10.9717C18.5273 8.55501 17.7148 6.53418 16.0898 4.90918C14.4648 3.28418 12.444 2.47168 10.0273 2.47168C7.61068 2.47168 5.58984 3.28418 3.96484 4.90918C2.33984 6.53418 1.52734 8.55501 1.52734 10.9717C1.52734 13.3883 2.33984 15.4092 3.96484 17.0342C5.58984 18.6592 7.61068 19.4717 10.0273 19.4717Z" fill="#49454F"/>
</svg>
