<svg width="44" height="44" viewBox="0 0 44 44" fill="none" xmlns="http://www.w3.org/2000/svg">
<rect width="44" height="44" rx="8" fill="#FFFAED"/>
<path d="M31.8055 20.0415H31V20H22V24H27.6515C26.827 26.3285 24.6115 28 22 28C18.6865 28 16 25.3135 16 22C16 18.6865 18.6865 16 22 16C23.5295 16 24.921 16.577 25.9805 17.5195L28.809 14.691C27.023 13.0265 24.634 12 22 12C16.4775 12 12 16.4775 12 22C12 27.5225 16.4775 32 22 32C27.5225 32 32 27.5225 32 22C32 21.3295 31.931 20.675 31.8055 20.0415Z" fill="#FFC107"/>
<path d="M13.1523 17.3455L16.4378 19.755C17.3268 17.554 19.4798 16 21.9993 16C23.5288 16 24.9203 16.577 25.9798 17.5195L28.8083 14.691C27.0223 13.0265 24.6333 12 21.9993 12C18.1583 12 14.8273 14.1685 13.1523 17.3455Z" fill="#FF3D00"/>
<path d="M22.0002 32.0003C24.5832 32.0003 26.9302 31.0118 28.7047 29.4043L25.6097 26.7853C24.5719 27.5745 23.3039 28.0014 22.0002 28.0003C19.3992 28.0003 17.1907 26.3418 16.3587 24.0273L13.0977 26.5398C14.7527 29.7783 18.1137 32.0003 22.0002 32.0003Z" fill="#4CAF50"/>
<path d="M31.8055 20.0415H31V20H22V24H27.6515C27.2571 25.1082 26.5467 26.0766 25.608 26.7855L25.6095 26.7845L28.7045 29.4035C28.4855 29.6025 32 27 32 22C32 21.3295 31.931 20.675 31.8055 20.0415Z" fill="#1976D2"/>
</svg>
