<svg width="32" height="34" viewBox="0 0 32 34" fill="none" xmlns="http://www.w3.org/2000/svg">
<path d="M27.291 33.792C27.1244 33.792 26.9644 33.764 26.811 33.708C26.6584 33.6527 26.5127 33.5557 26.374 33.417L17.207 24.25C17.0684 24.1113 16.9714 23.9723 16.916 23.833C16.86 23.6943 16.832 23.5417 16.832 23.375C16.832 23.1803 16.86 23.0137 16.916 22.875C16.9714 22.7363 17.0684 22.5973 17.207 22.458L20.374 19.292C20.5127 19.1527 20.6517 19.0553 20.791 19C20.9297 18.9447 21.0964 18.917 21.291 18.917C21.4577 18.917 21.6174 18.9447 21.77 19C21.9227 19.0553 22.0684 19.1527 22.207 19.292L31.374 28.458C31.5127 28.5973 31.61 28.7433 31.666 28.896C31.7214 29.0487 31.749 29.2083 31.749 29.375C31.749 29.5417 31.7214 29.7013 31.666 29.854C31.61 30.0067 31.5127 30.1527 31.374 30.292L28.207 33.417C28.0684 33.5557 27.9297 33.6527 27.791 33.708C27.6517 33.764 27.485 33.792 27.291 33.792ZM27.291 31.417L29.332 29.375L21.291 21.292L19.249 23.375L27.291 31.417ZM4.66603 33.833C4.47136 33.833 4.2977 33.7983 4.14503 33.729C3.99236 33.6597 3.84636 33.5557 3.70703 33.417L0.582031 30.292C0.443365 30.1807 0.346364 30.0417 0.291031 29.875C0.235031 29.7083 0.207031 29.5417 0.207031 29.375C0.207031 29.2083 0.235031 29.0487 0.291031 28.896C0.346364 28.7433 0.443365 28.5973 0.582031 28.458L9.54103 19.458H13.082L14.499 18.042L7.33203 10.875H4.95703L0.249031 6.16701L4.08203 2.33301L8.79103 7.00001V9.37501L15.957 16.583L21.166 11.375L18.249 8.45801L20.374 6.33301H16.124L15.416 5.62501L20.457 0.583008L21.166 1.29201V5.54201L23.249 3.45801L30.082 10.208C30.4987 10.6247 30.8114 11.097 31.02 11.625C31.228 12.153 31.332 12.7087 31.332 13.292C31.332 13.764 31.2557 14.2293 31.103 14.688C30.9504 15.146 30.735 15.5557 30.457 15.917L26.999 12.458L24.624 14.792L22.666 12.833L14.541 20.958V24.5L5.58203 33.417C5.44336 33.5557 5.2977 33.6597 5.14503 33.729C4.99236 33.7983 4.8327 33.833 4.66603 33.833ZM4.66603 31.417L12.916 23.167V21.083H10.874L2.62403 29.375L4.66603 31.417Z" fill="#B4F0E5"/>
</svg>
