<svg width="30" height="33" viewBox="0 0 30 33" fill="none" xmlns="http://www.w3.org/2000/svg">
<path d="M16.082 33C15.8047 33 15.5617 32.896 15.353 32.688C15.145 32.4793 15.041 32.2223 15.041 31.917C15.041 31.639 15.145 31.396 15.353 31.188C15.5617 30.9793 15.8047 30.875 16.082 30.875H26.541C26.7077 30.875 26.8394 30.8333 26.936 30.75C27.0334 30.6667 27.082 30.5417 27.082 30.375V28.625H24.041C23.3184 28.625 22.7004 28.368 22.187 27.854C21.673 27.34 21.416 26.722 21.416 26V19.917C21.416 19.1943 21.673 18.583 22.187 18.083C22.7004 17.583 23.3184 17.333 24.041 17.333H27.082V14.375C27.082 11.0417 25.9084 8.18733 23.561 5.81199C21.2144 3.43733 18.3744 2.24999 15.041 2.24999C11.7077 2.24999 8.85336 3.43733 6.47803 5.81199C4.10336 8.18733 2.91603 11.0417 2.91603 14.375V17.333H5.95703C6.6797 17.333 7.2977 17.583 7.81103 18.083C8.32503 18.583 8.58203 19.1943 8.58203 19.917V26C8.58203 26.722 8.32503 27.34 7.81103 27.854C7.2977 28.368 6.6797 28.625 5.95703 28.625H3.45703C2.73503 28.625 2.11703 28.368 1.60303 27.854C1.08903 27.34 0.832031 26.722 0.832031 26V14.375C0.832031 12.4303 1.20703 10.59 1.95703 8.85399C2.70703 7.11799 3.72103 5.60399 4.99903 4.31199C6.27703 3.02066 7.78403 2.00699 9.52003 1.27099C11.256 0.534992 13.0964 0.166992 15.041 0.166992C17.013 0.166992 18.853 0.534992 20.561 1.27099C22.2697 2.00699 23.763 3.02066 25.041 4.31199C26.3184 5.60399 27.325 7.11799 28.061 8.85399C28.7977 10.59 29.166 12.4303 29.166 14.375V30.375C29.166 31.097 28.909 31.715 28.395 32.229C27.881 32.743 27.263 33 26.541 33H16.082ZM3.45703 26.542H5.95703C6.1237 26.542 6.2557 26.4933 6.35303 26.396C6.45036 26.2987 6.49903 26.1667 6.49903 26V19.917C6.49903 19.7777 6.45036 19.6593 6.35303 19.562C6.2557 19.4653 6.1237 19.417 5.95703 19.417H2.91603V26C2.91603 26.1667 2.96436 26.2987 3.06103 26.396C3.15836 26.4933 3.29036 26.542 3.45703 26.542ZM24.041 26.542H27.082V19.417H24.041C23.8744 19.417 23.7424 19.4653 23.645 19.562C23.5477 19.6593 23.499 19.7777 23.499 19.917V26C23.499 26.1667 23.5477 26.2987 23.645 26.396C23.7424 26.4933 23.8744 26.542 24.041 26.542ZM3.45703 26.542H2.91603H6.49903H5.95703H3.45703ZM24.041 26.542H23.499H27.082H24.041Z" fill="#B4F0E5"/>
</svg>
