<svg width="40" height="40" viewBox="0 0 40 40" fill="none" xmlns="http://www.w3.org/2000/svg">
<path fill-rule="evenodd" clip-rule="evenodd" d="M20.0019 14.263C21.8699 14.263 22.0919 14.27 22.8299 14.303C23.5119 14.335 23.8829 14.449 24.1299 14.545C24.4559 14.672 24.6889 14.823 24.9339 15.068C25.1789 15.313 25.3299 15.546 25.4569 15.873C25.5529 16.119 25.6669 16.49 25.6979 17.173C25.7319 17.91 25.7379 18.131 25.7379 20C25.7379 21.868 25.7319 22.09 25.6979 22.828C25.6669 23.51 25.5529 23.881 25.4579 24.128C25.3299 24.454 25.1779 24.687 24.9339 24.932C24.708 25.1643 24.433 25.343 24.1289 25.455C23.8819 25.551 23.5119 25.665 22.8289 25.696C22.0919 25.73 21.8709 25.736 20.0019 25.736C18.1329 25.736 17.9119 25.73 17.1739 25.696C16.4919 25.665 16.1219 25.551 15.8739 25.456C15.5701 25.3436 15.2954 25.1645 15.0699 24.932C14.8376 24.7061 14.6589 24.431 14.5469 24.127C14.4509 23.88 14.3369 23.51 14.3059 22.827C14.2719 22.09 14.2659 21.868 14.2659 20C14.2659 18.131 14.2719 17.91 14.3059 17.172C14.3369 16.49 14.4509 16.12 14.5459 15.872C14.6739 15.546 14.8259 15.313 15.0699 15.068C15.3149 14.823 15.5479 14.672 15.8749 14.545C16.1209 14.449 16.4919 14.335 17.1749 14.304C17.9119 14.27 18.1329 14.264 20.0019 14.264M20.0019 13.001C18.1019 13.001 17.8629 13.009 17.1169 13.043C16.3719 13.078 15.8619 13.197 15.4179 13.37C14.9508 13.5456 14.5276 13.821 14.1779 14.177C13.8223 14.5268 13.5472 14.95 13.3719 15.417C13.1989 15.86 13.0799 16.37 13.0459 17.114C13.0119 17.86 13.0039 18.099 13.0039 20C13.0039 21.9 13.0119 22.139 13.0459 22.885C13.0799 23.63 13.1989 24.139 13.3719 24.584C13.5499 25.044 13.7899 25.434 14.1789 25.824C14.5679 26.212 14.9579 26.452 15.4189 26.63C15.8629 26.803 16.3719 26.922 17.1169 26.956C17.8629 26.99 18.1009 26.998 20.0019 26.998C21.9019 26.998 22.1409 26.99 22.8869 26.956C23.6319 26.922 24.1409 26.803 24.5859 26.63C25.053 26.4544 25.4762 26.179 25.8259 25.823C26.1815 25.4732 26.4566 25.05 26.6319 24.583C26.8049 24.139 26.9239 23.63 26.9579 22.885C26.9919 22.139 26.9999 21.9 26.9999 20C26.9999 18.1 26.9919 17.861 26.9579 17.115C26.9239 16.37 26.8049 15.861 26.6319 15.416C26.4563 14.9489 26.1809 14.5257 25.8249 14.176C25.4751 13.8203 25.0519 13.5453 24.5849 13.37C24.1419 13.197 23.6319 13.078 22.8879 13.044C22.1419 13.01 21.9019 13.002 20.0019 13.002" fill="white"/>
<path fill-rule="evenodd" clip-rule="evenodd" d="M20.0032 16.4068C19.0502 16.4068 18.1363 16.7854 17.4625 17.4592C16.7887 18.133 16.4102 19.0469 16.4102 19.9998C16.4102 20.9527 16.7887 21.8666 17.4625 22.5404C18.1363 23.2143 19.0502 23.5928 20.0032 23.5928C20.9561 23.5928 21.87 23.2143 22.5438 22.5404C23.2176 21.8666 23.5962 20.9527 23.5962 19.9998C23.5962 19.0469 23.2176 18.133 22.5438 17.4592C21.87 16.7854 20.9561 16.4068 20.0032 16.4068ZM20.0032 22.3328C19.3844 22.3328 18.791 22.087 18.3535 21.6495C17.916 21.212 17.6702 20.6186 17.6702 19.9998C17.6702 19.3811 17.916 18.7876 18.3535 18.3501C18.791 17.9126 19.3844 17.6668 20.0032 17.6668C20.6219 17.6668 21.2153 17.9126 21.6528 18.3501C22.0904 18.7876 22.3362 19.3811 22.3362 19.9998C22.3362 20.6186 22.0904 21.212 21.6528 21.6495C21.2153 22.087 20.6219 22.3328 20.0032 22.3328ZM24.5782 16.2648C24.5782 16.4876 24.4897 16.7012 24.3321 16.8588C24.1746 17.0163 23.9609 17.1048 23.7382 17.1048C23.5154 17.1048 23.3017 17.0163 23.1442 16.8588C22.9867 16.7012 22.8982 16.4876 22.8982 16.2648C22.8982 16.042 22.9867 15.8284 23.1442 15.6708C23.3017 15.5133 23.5154 15.4248 23.7382 15.4248C23.9609 15.4248 24.1746 15.5133 24.3321 15.6708C24.4897 15.8284 24.5782 16.042 24.5782 16.2648Z" fill="white"/>
<rect x="0.5" y="0.5" width="39" height="39" rx="19.5" stroke="#BECCBE"/>
</svg>
