<svg width="44" height="44" viewBox="0 0 44 44" fill="none" xmlns="http://www.w3.org/2000/svg">
<rect width="44" height="44" rx="8" fill="#ECF5FF"/>
<path d="M30.4491 30.4495H26.8931V24.8804C26.8931 23.5525 26.8694 21.8429 25.0436 21.8429C23.1915 21.8429 22.9081 23.2899 22.9081 24.7838V30.4491H19.3521V18.997H22.7658V20.562H22.8137C23.1553 19.9779 23.649 19.4973 24.2421 19.1715C24.8353 18.8458 25.5057 18.687 26.1819 18.7121C29.7861 18.7121 30.4506 21.0828 30.4506 24.167L30.4491 30.4495ZM15.3396 17.4316C14.1999 17.4318 13.2758 16.508 13.2756 15.3683C13.2754 14.2286 14.1992 13.3045 15.3389 13.3043C16.4786 13.304 17.4027 14.2278 17.4029 15.3675C17.403 15.9148 17.1857 16.4398 16.7987 16.8269C16.4118 17.214 15.8869 17.4315 15.3396 17.4316ZM17.1177 30.4496H13.5579V18.997H17.1176V30.4495L17.1177 30.4496ZM32.2219 10.0017H11.771C10.8045 9.99087 10.0118 10.7652 10 11.7317V32.2679C10.0114 33.235 10.804 34.01 11.7709 33.9999H32.2219C33.1909 34.0119 33.9866 33.2368 34 32.2679V11.7301C33.9862 10.7617 33.1905 9.9875 32.2219 10.0002" fill="#0A66C2"/>
</svg>
