<svg width="161" height="40" viewBox="0 0 161 40" fill="none" xmlns="http://www.w3.org/2000/svg">
<g opacity="0.75" clip-path="url(#clip0_1748_11303)">
<path d="M63.2502 23.4284L72.079 34.2856H65.1074L57.2502 24.3144V34.2856H51.5359V5.71437H57.2502V22.5144L64.5074 14.2856H71.793L63.2502 23.4284ZM40.393 13.7144C39.1419 13.7331 37.9139 14.0548 36.8143 14.6519C35.7146 15.249 34.7761 16.1037 34.079 17.1428V14.2856H28.679V34.2856H34.393V24.9428C34.318 24.2647 34.3834 23.5784 34.585 22.9266C34.7867 22.2748 35.1203 21.6715 35.5652 21.1542C36.0101 20.6369 36.5567 20.2168 37.171 19.9199C37.7853 19.623 38.4541 19.4557 39.1359 19.4284C42.4502 19.4284 42.9646 22.6856 42.9646 24.9428V34.2856H48.679V23.6856C48.679 17.4 46.593 13.7144 40.5074 13.7144H40.393ZM91.5359 24.7428C91.5577 25.1616 91.5577 25.5812 91.5359 26H76.5359V26.2C76.7794 27.3915 77.4395 28.4571 78.3977 29.2059C79.3559 29.9546 80.5496 30.3375 81.7646 30.2856C82.7284 30.3275 83.6908 30.1746 84.5941 29.8359C85.4975 29.4972 86.3232 28.9797 87.0218 28.3144L90.8218 31.1716C89.6174 32.4006 88.1688 33.3636 86.5694 33.9984C84.97 34.6332 83.2553 34.9258 81.5359 34.8572C80.1119 34.9472 78.6853 34.7305 77.3522 34.2219C76.0192 33.7133 74.8108 32.9245 73.8088 31.9089C72.8067 30.8932 72.0342 29.6744 71.5436 28.3346C71.0529 26.9949 70.8555 25.5654 70.9646 24.1428C70.9353 22.7385 71.1957 21.3431 71.7293 20.0438C72.263 18.7445 73.0585 17.569 74.0664 16.5906C75.0743 15.6122 76.2729 14.8519 77.5875 14.357C78.9021 13.8622 80.3046 13.6434 81.7074 13.7144C87.079 13.7144 91.5359 17.5144 91.5359 24.7428ZM86.2218 22.2856C86.2008 21.7197 86.0648 21.164 85.822 20.6523C85.5793 20.1406 85.2349 19.6838 84.8099 19.3095C84.3848 18.9353 83.888 18.6515 83.3498 18.4755C82.8115 18.2994 82.243 18.2348 81.679 18.2856C79.1665 18.0141 76.8912 19.7838 76.5359 22.2856H86.2218ZM5.8218 5.71437H0.107422V34.2856H17.2502V28.5719H5.8218V5.71437ZM108.679 5.71437H114.393V34.2856H108.993V32.2856C108.307 33.1304 107.433 33.803 106.441 34.2495C105.449 34.6961 104.366 34.9042 103.279 34.8572C101.951 34.8231 100.644 34.5177 99.4381 33.9599C98.2324 33.4021 97.1535 32.6036 96.2677 31.6134C95.382 30.6233 94.7081 29.4625 94.2874 28.2023C93.8668 26.9422 93.7084 25.6093 93.8218 24.2856C93.6869 22.9601 93.8294 21.621 94.2402 20.3535C94.651 19.0861 95.3212 17.918 96.208 16.9237C97.0949 15.9293 98.179 15.1305 99.3914 14.578C100.604 14.0254 101.918 13.7313 103.25 13.7144C104.243 13.6709 105.234 13.8253 106.166 14.1687C107.098 14.5121 107.952 15.0375 108.679 15.7144V5.71437ZM109.107 24.2856C109.197 23.6259 109.145 22.9545 108.953 22.3168C108.761 21.6792 108.435 21.09 107.997 20.5891C107.558 20.0881 107.017 19.6871 106.41 19.413C105.803 19.1388 105.145 18.998 104.479 19C101.746 19.1984 99.6743 21.5491 99.8218 24.2856C99.6743 27.0222 101.746 29.3731 104.479 29.5716C105.145 29.5735 105.803 29.4327 106.41 29.1586C107.017 28.8844 107.558 28.4834 107.997 27.9824C108.435 27.4814 108.761 26.8922 108.953 26.2545C109.145 25.6168 109.197 24.9454 109.107 24.2856ZM22.9646 5.14281C22.0457 5.15583 21.166 5.51705 20.5031 6.15351C19.8402 6.78997 19.4435 7.65427 19.393 8.57187C19.393 10.5441 20.9921 12.1431 22.9646 12.1431C24.9371 12.1431 26.5355 10.5437 26.5355 8.57187C26.4851 7.65438 26.0884 6.7902 25.4255 6.15381C24.7627 5.51742 23.8831 5.15622 22.9643 5.14313L22.9646 5.14281ZM20.1074 34.2856H25.8218V14.2856H20.1074V34.2856ZM160.107 2.85719V37.1428C160.107 37.9006 159.806 38.6273 159.271 39.1631C158.735 39.699 158.008 40 157.25 40H122.965C122.207 40 121.48 39.699 120.944 39.1631C120.408 38.6273 120.107 37.9006 120.107 37.1428V2.85719C120.107 2.09941 120.408 1.37268 120.944 0.836851C121.48 0.301024 122.207 0 122.965 0L157.25 0C158.008 0 158.735 0.301024 159.271 0.836851C159.806 1.37268 160.107 2.09941 160.107 2.85719ZM131.536 14.2856H125.822V34.2856H131.536V14.2856ZM132.25 8.57156C132.25 6.59906 130.651 5 128.679 5C126.706 5 125.107 6.59906 125.107 8.57156C125.107 10.5437 126.706 12.1428 128.679 12.1428C130.651 12.1428 132.25 10.5437 132.25 8.57156ZM154.393 23.6856C154.393 17.4 152.307 13.7144 146.222 13.7144C144.951 13.7145 143.7 14.0273 142.579 14.6252C141.458 15.2231 140.501 16.0877 139.793 17.1428V14.2856H134.393V34.2856H140.107V24.9428C140.032 24.2647 140.098 23.5784 140.299 22.9266C140.501 22.2748 140.835 21.6715 141.28 21.1542C141.725 20.6369 142.271 20.2168 142.885 19.9199C143.5 19.623 144.169 19.4557 144.85 19.4284C148.165 19.4284 148.679 22.6856 148.679 24.9428V34.2856H154.393V23.6856Z" fill="#0A66C2"/>
</g>
<defs>
<clipPath id="clip0_1748_11303">
<rect width="160" height="40" fill="white" transform="translate(0.107422)"/>
</clipPath>
</defs>
</svg>
