<svg width="188" height="40" viewBox="0 0 188 40" fill="none" xmlns="http://www.w3.org/2000/svg">
<g opacity="0.75" clip-path="url(#clip0_1748_11297)">
<path d="M187.099 17.9827V14.7082H183.033V9.618L182.896 9.65982L179.077 10.8285L179.002 10.8515V14.7082H172.974V12.5598C172.974 11.5595 173.198 10.7936 173.639 10.2835C174.077 9.77873 174.703 9.52237 175.502 9.52237C176.076 9.52237 176.67 9.65764 177.269 9.92418L177.419 9.99109V6.54309L177.348 6.51764C176.79 6.31655 176.031 6.21582 175.09 6.21582C173.904 6.21582 172.826 6.47364 171.886 6.98527C170.96 7.4834 170.197 8.23785 169.688 9.15837C169.172 10.0871 168.91 11.1595 168.91 12.3464V14.7085H166.079V17.9831H168.91V31.7769H172.974V17.9827H179.002V26.7485C179.002 30.3587 180.705 32.1885 184.063 32.1885C184.644 32.1852 185.222 32.1208 185.789 31.9965C186.393 31.8667 186.804 31.7369 187.046 31.5984L187.099 31.5667V28.262L186.934 28.3715C186.713 28.5187 186.439 28.6387 186.117 28.7278C185.793 28.8187 185.523 28.8645 185.314 28.8645C184.527 28.8645 183.945 28.6525 183.584 28.234C183.219 27.8122 183.033 27.0736 183.033 26.0409V17.9827H187.099ZM157.002 28.8649C155.527 28.8649 154.364 28.3755 153.544 27.4122C152.72 26.4435 152.301 25.0631 152.301 23.3085C152.301 21.4987 152.72 20.0824 153.545 19.0965C154.365 18.1176 155.517 17.6205 156.969 17.6205C158.378 17.6205 159.5 18.0951 160.303 19.0322C161.111 19.9736 161.521 21.3787 161.521 23.2096C161.521 25.0631 161.135 26.4871 160.375 27.4395C159.621 28.3849 158.486 28.8649 157.002 28.8649ZM157.183 14.2969C154.369 14.2969 152.133 15.1216 150.54 16.7482C148.946 18.3751 148.139 20.626 148.139 23.4398C148.139 26.1122 148.927 28.2616 150.482 29.8278C152.037 31.3944 154.153 32.1878 156.771 32.1878C159.5 32.1878 161.69 31.3518 163.284 29.7027C164.877 28.0555 165.684 25.8256 165.684 23.0773C165.684 20.3635 164.926 18.198 163.432 16.6424C161.937 15.086 159.834 14.2969 157.183 14.2969ZM141.585 14.2969C139.671 14.2969 138.087 14.7867 136.878 15.7522C135.661 16.7235 135.043 17.9976 135.043 19.5391C135.043 20.3402 135.176 21.0518 135.439 21.6555C135.703 22.2613 136.111 22.7944 136.654 23.242C137.192 23.686 138.023 24.1511 139.124 24.6238C140.049 25.0049 140.74 25.3275 141.179 25.5813C141.607 25.8304 141.912 26.0805 142.083 26.3242C142.25 26.5624 142.335 26.8889 142.335 27.2915C142.335 28.4384 141.476 28.9962 139.709 28.9962C139.054 28.9962 138.306 28.8595 137.487 28.5896C136.674 28.3238 135.907 27.9346 135.212 27.4358L135.043 27.3151V31.2278L135.105 31.2569C135.68 31.5224 136.406 31.746 137.26 31.9224C138.113 32.0984 138.888 32.1882 139.561 32.1882C141.639 32.1882 143.312 31.6962 144.532 30.7249C145.761 29.7467 146.384 28.4431 146.384 26.8478C146.384 25.6976 146.048 24.7107 145.387 23.9151C144.732 23.126 143.593 22.4013 142.004 21.7609C140.739 21.2529 139.928 20.8315 139.594 20.5078C139.271 20.1951 139.108 19.7529 139.108 19.1933C139.108 18.6965 139.31 18.2991 139.725 17.9769C140.143 17.6533 140.725 17.4885 141.454 17.4885C142.132 17.4885 142.824 17.5955 143.513 17.8049C144.202 18.0147 144.807 18.2958 145.312 18.6391L145.477 18.7525V15.0405L145.414 15.0133C144.948 14.8133 144.334 14.6424 143.588 14.5042C142.845 14.3667 142.171 14.2969 141.585 14.2969ZM124.447 28.8649C122.973 28.8649 121.809 28.3755 120.99 27.4122C120.165 26.4435 119.748 25.0631 119.748 23.3085C119.748 21.4987 120.165 20.0824 120.991 19.0965C121.81 18.1176 122.962 17.6205 124.415 17.6205C125.824 17.6205 126.946 18.0951 127.749 19.0322C128.557 19.9736 128.967 21.3787 128.967 23.2096C128.967 25.0631 128.581 26.4871 127.821 27.4395C127.066 28.3849 125.932 28.8649 124.447 28.8649ZM124.629 14.2969C121.814 14.2969 119.578 15.1216 117.985 16.7482C116.393 18.3751 115.584 20.626 115.584 23.4398C115.584 26.1133 116.373 28.2616 117.928 29.8278C119.483 31.3944 121.599 32.1878 124.217 32.1878C126.945 32.1878 129.136 31.3518 130.73 29.7027C132.322 28.0555 133.13 25.8256 133.13 23.0773C133.13 20.3635 132.372 18.198 130.878 16.6424C129.382 15.086 127.279 14.2969 124.629 14.2969ZM109.414 17.6642V14.7082H105.4V31.7762H109.414V23.0449C109.414 21.5602 109.751 20.3405 110.415 19.4195C111.071 18.5093 111.945 18.0478 113.012 18.0478C113.373 18.0478 113.779 18.1075 114.219 18.2256C114.654 18.3427 114.969 18.47 115.155 18.6038L115.324 18.7264V14.6791L115.258 14.6511C114.885 14.4922 114.356 14.4122 113.687 14.4122C112.678 14.4122 111.775 14.7362 111.002 15.3744C110.323 15.9355 109.832 16.7049 109.457 17.6642H109.414ZM98.2098 14.2969C96.368 14.2969 94.7248 14.6922 93.3273 15.4707C91.9273 16.2507 90.8441 17.3653 90.1074 18.7816C89.3739 20.1951 89.0016 21.846 89.0016 23.6871C89.0016 25.2995 89.3626 26.7795 90.0761 28.0835C90.7903 29.39 91.8012 30.4122 93.0804 31.1213C94.3582 31.8293 95.8349 32.1882 97.4695 32.1882C99.3775 32.1882 101.007 31.8067 102.313 31.0547L102.365 31.0242V27.346L102.197 27.4693C101.596 27.9048 100.934 28.2494 100.233 28.4918C99.5229 28.7395 98.8764 28.8645 98.3091 28.8645C96.7335 28.8645 95.4691 28.3718 94.551 27.4002C93.631 26.4267 93.1644 25.0605 93.1644 23.3409C93.1644 21.6107 93.651 20.2093 94.6095 19.1747C95.5655 18.1438 96.8324 17.6209 98.3753 17.6209C99.6949 17.6209 100.981 18.0678 102.197 18.9504L102.365 19.0725V15.1969L102.311 15.1664C101.853 14.91 101.229 14.6984 100.454 14.538C99.6822 14.378 98.9273 14.2969 98.2098 14.2969ZM86.2365 14.7082H82.2212V31.7762H86.2365V14.7082ZM84.27 7.43727C83.6092 7.43727 83.0329 7.66237 82.5594 8.10782C82.0838 8.55509 81.8423 9.118 81.8423 9.782C81.8423 10.4358 82.0809 10.9882 82.5514 11.4235C83.0194 11.8573 83.5976 12.0773 84.27 12.0773C84.9419 12.0773 85.5223 11.8573 85.9958 11.4242C86.4721 10.9882 86.7139 10.4358 86.7139 9.782C86.7139 9.14127 86.4787 8.58382 86.0154 8.126C85.5525 7.66891 84.9649 7.43727 84.27 7.43727ZM74.2526 13.4493V31.7758H78.35V7.95982H72.6791L65.4708 25.6496L58.476 7.95982H52.5742V31.7762H56.4247V13.4475H56.5571L63.9436 31.7762H66.849L74.1202 13.4489L74.2526 13.4493Z" fill="#706D6E"/>
<path d="M19.8047 18.8869H0.917969V0H19.8047V18.8869Z" fill="#F1511B"/>
<path d="M40.6582 18.8869H21.7715V0H40.6582V18.8869Z" fill="#80CC28"/>
<path d="M19.8044 39.7477H0.917969V20.8608H19.8044V39.7477Z" fill="#00ADEF"/>
<path d="M40.6582 39.7487H21.7715V20.8618H40.6582V39.7487Z" fill="#FBBC09"/>
</g>
<defs>
<clipPath id="clip0_1748_11297">
<rect width="186.198" height="40" fill="white" transform="translate(0.908203)"/>
</clipPath>
</defs>
</svg>
