<svg width="122" height="40" viewBox="0 0 122 40" fill="none" xmlns="http://www.w3.org/2000/svg">
<g opacity="0.75" clip-path="url(#clip0_1748_11290)">
<path d="M118.111 24.4459L121.493 26.7004C120.396 28.317 117.771 31.0909 113.232 31.0909C107.596 31.0909 103.398 26.7301 103.398 21.1828C103.398 15.2797 107.64 11.2749 112.757 11.2749C117.904 11.2749 120.425 15.3685 121.241 17.5785L121.686 18.7059L108.426 24.1937C109.435 26.1813 111.007 27.1899 113.232 27.1899C115.457 27.1899 116.999 26.0923 118.111 24.4459ZM107.715 20.8716L116.569 17.193C116.08 15.962 114.626 15.087 112.891 15.087C110.681 15.087 107.611 17.0449 107.715 20.8716Z" fill="#FF302F"/>
<path d="M97.0059 1.17358H101.277V30.1855H97.0059V1.17334V1.17358Z" fill="#20B15A"/>
<path d="M90.2681 12.0462H94.3914V29.6669C94.3914 36.9791 90.0753 39.99 84.973 39.99C80.1676 39.99 77.2755 36.7567 76.1927 34.1314L79.9747 32.5591C80.6569 34.1757 82.3033 36.0893 84.973 36.0893C88.2508 36.0893 90.2681 34.0572 90.2681 30.2603V28.8364H90.1198C89.1408 30.0229 87.272 31.0907 84.8989 31.0907C79.945 31.0907 75.4062 26.7745 75.4062 21.2126C75.4062 15.6207 79.945 11.2603 84.8989 11.2603C87.2572 11.2603 89.1408 12.3133 90.1198 13.4703H90.2681V12.0464V12.0462ZM90.5645 21.2126C90.5645 17.7122 88.236 15.161 85.2696 15.161C82.2735 15.161 79.7521 17.7122 79.7521 21.2126C79.7521 24.6684 82.2735 27.175 85.2696 27.175C88.2363 27.19 90.5648 24.6684 90.5648 21.2126H90.5645Z" fill="#3686F7"/>
<path d="M51.9599 21.1375C51.9599 26.8479 47.5104 31.0453 42.0522 31.0453C36.5942 31.0453 32.1445 26.8332 32.1445 21.1375C32.1445 15.3975 36.5942 11.2148 42.0522 11.2148C47.5104 11.2148 51.9599 15.3975 51.9599 21.1375ZM47.629 21.1375C47.629 17.5779 45.0481 15.1303 42.0522 15.1303C39.0563 15.1303 36.4754 17.5779 36.4754 21.1375C36.4754 24.6675 39.0563 27.1446 42.0522 27.1446C45.0483 27.1446 47.629 24.6675 47.629 21.1375Z" fill="#FF302F"/>
<path d="M73.6005 21.1828C73.6005 26.8932 69.1508 31.0906 63.6928 31.0906C58.2346 31.0906 53.7852 26.893 53.7852 21.1828C53.7852 15.4428 58.2346 11.2749 63.6928 11.2749C69.1508 11.2749 73.6005 15.428 73.6005 21.1828ZM69.2546 21.1828C69.2546 17.6232 66.674 15.1756 63.6778 15.1756C60.6819 15.1756 58.101 17.6232 58.101 21.1828C58.101 24.7128 60.6819 27.1899 63.6778 27.1899C66.6887 27.1899 69.2546 24.698 69.2546 21.1828Z" fill="#FFBA40"/>
<path d="M15.8609 26.7444C9.64628 26.7444 4.7816 21.731 4.7816 15.5163C4.7816 9.30175 9.64628 4.28842 15.8609 4.28842C19.213 4.28842 21.6601 5.60842 23.4696 7.29937L26.451 4.31818C23.9296 1.90056 20.5627 0.0610352 15.8609 0.0610352C7.34751 0.0612733 0.183594 7.00294 0.183594 15.5163C0.183594 24.0301 7.34751 30.9715 15.8609 30.9715C20.4589 30.9715 23.9296 29.4587 26.6438 26.6406C29.4321 23.852 30.2923 19.9363 30.2923 16.7622C30.2923 15.7684 30.1738 14.7451 30.0402 13.9887H15.8609V18.112H25.9615C25.6648 20.6929 24.8491 22.4579 23.6477 23.6591C22.1941 25.1277 19.8954 26.7444 15.8609 26.7444Z" fill="#3686F7"/>
</g>
<defs>
<clipPath id="clip0_1748_11290">
<rect width="121.909" height="40" fill="white"/>
</clipPath>
</defs>
</svg>
