<svg width="71" height="80" viewBox="0 0 71 80" fill="none" xmlns="http://www.w3.org/2000/svg">
<path d="M17.504 9.46875C8.1759 14.6719 0.425898 19.0469 0.285273 19.1719C-0.105352 19.5156 -0.0897266 20.6406 0.300898 21C0.457148 21.1406 2.37902 22.0938 4.5509 23.1094L8.51965 24.9688L8.56652 26.8594L8.6134 28.75H7.81652C6.78527 28.75 6.45715 28.9375 6.25402 29.6562C6.0509 30.4375 6.0509 40.8125 6.25402 41.5938C6.34777 41.9219 6.5509 42.25 6.72277 42.3438C7.1134 42.5469 12.8946 42.5469 13.2853 42.3438C13.4571 42.25 13.6603 41.9219 13.754 41.5938C13.9571 40.8125 13.9571 30.4375 13.754 29.6562C13.5509 28.9375 13.2228 28.75 12.2071 28.75H11.4103V27.5781C11.4103 26.9375 11.4571 26.4062 11.5353 26.4062C11.5978 26.4219 13.629 27.3438 16.0509 28.4844L20.4571 30.5625L20.8634 31.3281C21.0978 31.7656 21.4884 32.375 21.7384 32.6875C22.2696 33.3594 22.2853 33.4375 21.9103 33.4375C21.7384 33.4375 21.1759 33.6562 20.6446 33.9219C16.3634 36.0625 17.4571 42.6562 22.2071 43.3594C22.9103 43.4688 22.9259 43.4844 23.504 44.6562C24.2228 46.1094 25.1759 47.3594 26.4103 48.4688L27.3478 49.3281V50.4531C27.3478 51.5156 27.3321 51.5625 27.0509 51.4062C26.879 51.3281 26.4884 51.25 26.1603 51.25C25.629 51.25 25.4259 51.4062 23.6915 53.1094L21.8009 54.9844L20.7071 55.1562C17.1134 55.7188 13.7384 57.4062 10.9884 60.0312C9.25402 61.7031 7.9884 63.4062 7.03527 65.375C5.37902 68.8125 5.00402 70.6875 5.00402 75.7031C5.00402 79.1719 5.01965 79.3906 5.31652 79.6875C5.62902 80 5.83215 80 35.004 80C64.1759 80 64.379 80 64.6915 79.6875C64.9884 79.3906 65.004 79.1719 65.004 75.6875C65.004 70.8594 64.6446 68.9062 63.1446 65.7031C61.9415 63.1094 59.6759 60.3281 57.3634 58.5938C55.2384 56.9844 51.9103 55.5625 49.379 55.1719L48.2071 54.9844L46.3165 53.125C44.5821 51.4062 44.379 51.25 43.8478 51.25C43.5196 51.25 43.129 51.3281 42.9571 51.4062C42.6759 51.5625 42.6603 51.5156 42.6603 50.4531V49.3281L43.6759 48.3906C44.8634 47.3125 45.8478 45.9844 46.5821 44.5C47.0821 43.4844 47.1134 43.4688 47.8009 43.3594C50.879 42.9062 52.7228 39.8594 51.8009 36.75C51.3478 35.25 49.8321 33.8438 48.3321 33.5156C48.0509 33.4688 47.8165 33.375 47.8165 33.3438C47.8165 33.2969 48.0196 33 48.2696 32.6875C48.5196 32.375 48.9103 31.7656 49.1134 31.3438L49.504 30.5938L59.4571 25.9219C64.9415 23.3594 69.5509 21.1406 69.7071 21C70.0978 20.6406 70.1134 19.5156 69.7384 19.1719C69.5821 19.0469 61.8321 14.6719 52.504 9.46875C39.0353 1.95312 35.4415 0 35.004 0C34.5665 0 30.8478 2.01562 17.504 9.46875ZM50.3321 11.3438C58.7384 16.0312 65.629 19.9219 65.629 19.9844C65.629 20.0781 50.4884 27.1875 50.2853 27.1875C50.2071 27.1875 50.1603 25.125 50.1603 22.6094C50.1603 19.7656 50.0978 17.8125 49.9884 17.4219C49.3165 15 43.8478 13.5938 35.004 13.5938C26.8478 13.5938 21.3478 14.8281 20.1915 16.9219C19.9571 17.3594 19.9259 18.0156 19.879 22.2969C19.8478 24.9844 19.7853 27.1875 19.7228 27.1875C19.6603 27.1875 17.7696 26.3281 15.504 25.2812L11.4103 23.3594L11.4415 19.6406L11.4884 15.9219L23.2071 9.375C29.6603 5.76562 34.9571 2.82812 34.9728 2.8125C35.004 2.8125 41.9103 6.65625 50.3321 11.3438ZM42.0353 16.625C43.9415 16.9219 46.2853 17.5469 46.9571 17.9531L47.4259 18.2188L47.4728 20.3594C47.4884 21.5312 47.4884 22.5 47.4571 22.5C47.4259 22.5 46.9884 22.3594 46.4884 22.1875C42.7228 20.8906 33.4415 20.4688 27.5353 21.3281C26.0509 21.5469 23.5509 22.125 22.7853 22.4219C22.5196 22.5312 22.504 22.375 22.504 20.4219C22.504 18.3906 22.5196 18.2812 22.8634 18.0469C23.6915 17.4688 26.6915 16.75 29.7696 16.4062C31.8321 16.1875 40.129 16.3281 42.0353 16.625ZM8.56652 20.8281L8.51965 21.9844L6.45715 21.0312C5.31652 20.5 4.39465 20.0156 4.4259 19.9531C4.44152 19.875 5.37902 19.3125 6.4884 18.7031L8.51965 17.5625L8.56652 18.625C8.59777 19.2031 8.59777 20.1875 8.56652 20.8281ZM40.8165 23.8281C43.3634 24.125 45.3946 24.5625 46.5821 25.0938L47.504 25.5156V26.7188C47.504 28.1406 47.1915 29.2969 46.5196 30.4375L46.0196 31.2656L41.8009 31.2188L37.5821 31.1719L36.6446 30.7188C34.9571 29.8906 33.6603 28.2344 33.2696 26.4219C33.0665 25.4688 32.6759 25.0781 31.8634 25.0781C31.0353 25.0781 30.8009 25.3906 30.5353 26.7188C30.254 28.2656 29.8165 29.0625 28.8321 29.9844C27.7696 30.9375 26.8946 31.25 25.2384 31.25H23.9728L23.4884 30.4219C22.7853 29.2656 22.4884 28.0625 22.5353 26.7031L22.5821 25.5469L23.2228 25.2031C25.8478 23.75 34.2853 23.0938 40.8165 23.8281ZM34.4884 32.5938C34.9259 32.8906 35.8165 33.2969 36.4571 33.5156C37.5821 33.8906 37.7853 33.9062 41.4103 33.9062H45.1915L45.129 37.4531C45.0821 40.8438 45.0509 41.0781 44.6603 42.1562C44.0821 43.7656 43.3634 44.8906 42.1759 46.0781C40.9884 47.2656 39.879 47.9844 38.254 48.5625C37.2228 48.9375 36.8946 48.9844 35.004 48.9844C33.1134 48.9844 32.7853 48.9375 31.754 48.5625C30.129 47.9688 29.0196 47.2656 27.8321 46.0781C26.629 44.8594 25.9259 43.75 25.3478 42.1562C24.9571 41.0781 24.9259 40.8438 24.879 37.4844L24.8165 33.9531L26.2384 33.875C27.4259 33.7969 27.8321 33.7031 28.7853 33.25C30.004 32.6719 31.129 31.7656 31.7228 30.9062L32.0821 30.375L32.879 31.2188C33.3165 31.6875 34.0353 32.3125 34.4884 32.5938ZM11.254 35.625V40H10.004H8.75402V35.625V31.25H10.004H11.254V35.625ZM22.1915 38.4375C22.1915 39.6406 22.1603 40.625 22.1134 40.625C21.8321 40.625 21.1915 40.0156 20.9259 39.5156C20.4259 38.5156 20.5821 37.5 21.379 36.6719C22.129 35.8906 22.1915 36.0312 22.1915 38.4375ZM48.7228 36.7969C49.6134 37.7969 49.5821 39.1719 48.6603 40.0781C48.3634 40.375 48.0509 40.625 47.9728 40.625C47.879 40.625 47.8165 39.7344 47.8165 38.4375C47.8165 35.9844 47.8946 35.8438 48.7228 36.7969ZM37.504 56.7969L35.004 59.2969L32.5821 56.875L30.1603 54.4531V52.7031C30.1603 51.7344 30.1915 50.9375 30.2384 50.9375C30.2853 50.9375 30.8321 51.0781 31.4571 51.2656C33.6603 51.8906 36.9884 51.8281 39.1134 51.1094L39.9259 50.8281L39.9728 52.5625L40.0196 54.2812L37.504 56.7969ZM29.6915 57.8906L33.0509 61.25L32.1446 62.1406L31.254 63.0469L27.8634 59.6562L24.4571 56.25L25.3165 55.3906C25.7853 54.9219 26.2071 54.5312 26.254 54.5312C26.3009 54.5312 27.8478 56.0469 29.6915 57.8906ZM44.6915 55.3906L45.5509 56.25L42.1446 59.6562L38.754 63.0469L37.8634 62.1406L36.9571 61.25L40.3165 57.8906C42.1603 56.0469 43.7071 54.5312 43.754 54.5312C43.8009 54.5312 44.2228 54.9219 44.6915 55.3906ZM26.254 61.9531L30.5665 66.25H31.2384C31.8946 66.25 31.9884 66.1875 33.4571 64.7344L35.004 63.2188L36.5509 64.7344C38.0196 66.1875 38.1134 66.25 38.7696 66.25H39.4415L43.754 61.9531L48.0665 57.6562L49.2228 57.875C54.0978 58.7969 58.2384 61.9688 60.5196 66.4844C61.9103 69.25 62.3478 71.2812 62.3478 74.9375V77.5H58.0509H53.754V75.3125C53.754 73.3281 53.7228 73.0938 53.4415 72.8125C53.0978 72.4688 52.2228 72.3906 51.7228 72.6562C51.2853 72.8906 51.0978 73.7812 51.0978 75.7344V77.5H35.004H18.9103V75.6406C18.9103 73.6875 18.7384 72.9062 18.2853 72.6562C17.7853 72.3906 16.9103 72.4688 16.5665 72.8125C16.2853 73.0938 16.254 73.3281 16.254 75.3125V77.5H11.9571H7.66027V74.9375C7.66027 71.2812 8.09777 69.25 9.4884 66.4844C11.7384 62.0312 15.879 58.8438 20.629 57.8906C21.1915 57.7812 21.7071 57.6719 21.8009 57.6719C21.879 57.6562 23.8946 59.5938 26.254 61.9531Z" fill="#44A08D"/>
</svg>
