<svg width="85" height="80" viewBox="0 0 85 80" fill="none" xmlns="http://www.w3.org/2000/svg">
<path d="M17.6713 8.71105C15.5489 9.29774 14.0131 10.5919 13.0813 12.559C12.5637 13.6289 12.5292 13.8532 12.5292 15.527C12.5292 17.149 12.5809 17.4424 13.0123 18.3569C13.2712 18.9264 13.7543 19.7029 14.0649 20.0997L14.6516 20.8072L13.7716 21.3076C12.65 21.9116 10.424 24.1376 9.76827 25.2592C9.02628 26.5188 8.50861 28.1063 8.3188 29.6593C8.05996 31.7128 8.40507 32.4375 9.64748 32.4375C10.562 32.4375 10.9071 31.9716 11.0624 30.5221C11.4248 27.2781 13.0813 24.8105 15.7905 23.4991C19.1898 21.8426 22.9861 22.55 25.5571 25.2937C26.8858 26.7259 27.576 28.1754 27.8694 30.2115C28.0592 31.4884 28.1973 31.8853 28.4906 32.1269C28.991 32.541 29.7157 32.5238 30.2852 32.0751C30.6821 31.7645 30.7338 31.6092 30.7338 30.6429C30.7338 29.1934 30.1989 27.1745 29.4051 25.656C28.6114 24.1203 26.5752 22.0324 25.1775 21.3076L24.2112 20.8072L24.7806 20.1515C27.3345 17.3389 27.0756 12.9732 24.194 10.3158C23.521 9.67737 22.8135 9.21146 22.1578 8.96988C20.8636 8.48673 18.8792 8.36594 17.6713 8.71105ZM21.4848 11.8688C22.8653 12.6108 23.659 13.9568 23.659 15.527C23.659 17.1145 22.8653 18.426 21.4158 19.2197C19.0863 20.4966 16.2046 19.2542 15.4454 16.6314C14.9622 14.9576 15.5144 13.3701 16.9639 12.1967C18.258 11.1613 19.9146 11.0406 21.4848 11.8688Z" fill="#44A08D"/>
<path d="M37.1875 10.0751C36.5663 10.5928 36.5318 11.6454 37.1185 12.1113C37.4809 12.4046 38.2401 12.4219 49.301 12.4219C60.8795 12.4219 61.1038 12.4219 61.4489 12.0768C61.9838 11.5418 61.9148 10.472 61.3454 10.0233C60.8967 9.66098 60.7587 9.66098 49.2664 9.66098H37.6534L37.1875 10.0751Z" fill="#44A08D"/>
<path d="M37.5509 19.1359C36.6191 19.5328 36.412 20.8442 37.2058 21.5172L37.6544 21.9141H49.2675C60.7597 21.9141 60.8977 21.9141 61.3464 21.5517C61.9331 21.0858 61.9848 19.8952 61.4327 19.3947C61.0876 19.0841 60.6044 19.0669 49.4745 19.0324C43.1072 19.0151 37.7407 19.0669 37.5509 19.1359Z" fill="#44A08D"/>
<path d="M37.2406 28.6766C36.8265 29.0045 36.5849 29.781 36.7747 30.2642C37.1371 31.2132 37.2061 31.2305 43.6424 31.2305H49.5611L49.9752 30.7991C50.5447 30.2469 50.5619 29.3669 50.0097 28.8492C49.6129 28.4696 49.5266 28.4696 43.5734 28.4696C39.0007 28.4696 37.4649 28.5213 37.2406 28.6766Z" fill="#44A08D"/>
<path d="M8.78442 38.0295C8.05968 38.5644 8.09419 39.9794 8.81893 40.3763C9.02599 40.4798 14.3062 40.5488 23.0375 40.5488C36.7212 40.5488 36.9456 40.5488 37.2907 40.2037C37.8256 39.6688 37.7566 38.5989 37.1871 38.1503C36.7212 37.7879 36.635 37.7879 22.8995 37.7879C11.8387 37.8052 9.02599 37.8397 8.78442 38.0295Z" fill="#44A08D"/>
<path d="M8.71695 47.5208C8.09575 48.0385 8.04398 49.0048 8.61342 49.5742L9.01029 49.9539L20.7786 50.0056C27.2495 50.0402 32.8058 50.0056 33.1164 49.9539C33.427 49.9021 33.8411 49.695 34.0309 49.5052C34.4623 49.0738 34.4623 48.1248 34.0309 47.6071L33.7031 47.193L21.4516 47.1412L9.20011 47.1067L8.71695 47.5208Z" fill="#44A08D"/>
<path d="M8.5777 56.9244C8.40514 57.1142 8.2671 57.5456 8.24984 57.908C8.23259 58.3911 8.33612 58.6327 8.71574 58.9433L9.18165 59.3574H21.9163C34.5474 59.3574 34.6682 59.3574 35.1168 58.9951C35.6863 58.5464 35.7553 57.4766 35.2204 56.9416C34.8752 56.5965 34.6509 56.5965 21.8818 56.5965C9.23341 56.5965 8.87104 56.6138 8.5777 56.9244Z" fill="#44A08D"/>
<path d="M8.76754 66.122C8.06006 66.6741 8.09458 68.1063 8.81931 68.5032C9.02638 68.6068 14.5999 68.6758 23.8835 68.6758C38.1021 68.6758 38.6542 68.6585 39.0339 68.3479C39.6033 67.882 39.6033 66.7086 39.0339 66.2427C38.6542 65.9321 38.1021 65.9149 23.8489 65.9149C12.2877 65.9149 8.99187 65.9667 8.76754 66.122Z" fill="#44A08D"/>
<path d="M2.78036 0.22261C1.93483 0.498695 0.48536 1.98268 0.226526 2.86272C-0.0668193 3.88079 -0.0840749 73.231 0.226526 74.2319C0.48536 75.1119 1.64149 76.4061 2.52152 76.803C3.17723 77.1136 4.54043 77.1308 35.0311 77.1308H66.8677L67.6097 76.7684C69.0591 76.061 70.0772 74.4734 70.0772 72.8859V72.213L73.6664 75.7849C75.6335 77.7348 77.5144 79.4776 77.8422 79.6501C78.7568 80.1333 81.3106 80.116 82.2424 79.5984C83.0707 79.1497 84.0715 78.1316 84.4856 77.3034C84.9515 76.4061 85.0206 74.6115 84.6582 73.4899C84.3821 72.6271 83.9162 72.1094 78.2736 66.4323L72.1997 60.3066L72.5965 59.6164C73.2005 58.581 74.1668 55.4923 74.4084 53.853C74.7017 51.7651 74.5292 48.6418 73.977 46.5366C73.4421 44.4487 72.3377 42.0847 71.0435 40.3246L70.0772 38.9787V21.1709V3.36313L69.6631 2.48309C69.1972 1.46501 68.1101 0.481438 67.161 0.205353C66.2465 -0.0879974 3.66039 -0.0534821 2.78036 0.22261ZM66.3673 2.96625C67.3508 3.41489 67.3163 2.72467 67.3163 20.2564V36.4076L66.0912 35.5966C59.0336 31.0411 49.474 31.9384 43.3483 37.719C41.6917 39.272 40.5529 40.8078 39.5348 42.8784C33.5298 54.9746 41.7435 69.0379 55.1684 69.6591C56.428 69.7282 57.8257 69.6764 58.7058 69.5556C60.3105 69.314 63.382 68.365 64.5037 67.7438L65.2111 67.3296L66.2637 68.3995L67.3163 69.4693V71.2121C67.3163 72.213 67.23 73.162 67.1093 73.4209C66.6606 74.4217 68.6623 74.3699 35.0656 74.3699C15.8256 74.3699 4.02276 74.3009 3.74667 74.1974C2.71133 73.8177 2.78036 76.2508 2.78036 38.53C2.79761 1.46501 2.74584 3.50117 3.66039 3.00076C4.22983 2.6729 65.677 2.63839 66.3673 2.96625ZM59.8964 35.9762C62.5538 36.6837 65.7115 38.5645 67.4889 40.4972C70.3361 43.6204 71.6992 47.0716 71.6992 51.2474C71.682 55.6648 70.2843 58.9779 67.0575 62.2047C63.8307 65.4315 60.5176 66.8292 56.1002 66.8465C53.5981 66.8465 51.6827 66.4496 49.6466 65.5005C46.1264 63.8785 43.5899 61.3764 41.9506 57.8908C40.8807 55.6476 40.5701 54.3707 40.4493 51.8341C40.2423 47.2614 41.7263 43.5169 45.0393 40.1866C47.3861 37.8398 49.7674 36.5284 52.9942 35.8036C54.4782 35.4758 58.3434 35.5621 59.8964 35.9762ZM76.3237 68.4512C81.1726 73.3346 81.9663 74.1974 82.0699 74.7495C82.3287 76.1645 81.0173 77.4759 79.6023 77.2171C79.0501 77.1136 78.1873 76.3198 73.304 71.4537L67.6269 65.8111L69.0764 64.3272C69.8702 63.5161 70.5431 62.8432 70.5949 62.8259C70.6467 62.8259 73.235 65.3452 76.3237 68.4512Z" fill="#44A08D"/>
<path d="M57.0742 39.207V42.7109H55.2695V39.207H57.0742ZM56.8516 58.3438V61.4844H55.0586V58.3438H56.8516ZM58.6211 54.5586C58.6211 54.1055 58.5273 53.7109 58.3398 53.375C58.1602 53.0312 57.8633 52.7227 57.4492 52.4492C57.0352 52.168 56.4805 51.9062 55.7852 51.6641C54.7852 51.3125 53.9102 50.918 53.1602 50.4805C52.418 50.0352 51.8398 49.4883 51.4258 48.8398C51.0195 48.1836 50.8164 47.3672 50.8164 46.3906C50.8164 45.4297 51.0352 44.5977 51.4727 43.8945C51.918 43.1914 52.5352 42.6484 53.3242 42.2656C54.1133 41.8828 55.0352 41.6914 56.0898 41.6914C56.9023 41.6914 57.6328 41.8125 58.2812 42.0547C58.9375 42.2969 59.4961 42.6523 59.957 43.1211C60.418 43.5898 60.7695 44.168 61.0117 44.8555C61.2617 45.5352 61.3867 46.3164 61.3867 47.1992H58.5742C58.5742 46.6992 58.5156 46.2539 58.3984 45.8633C58.2891 45.4648 58.125 45.1289 57.9062 44.8555C57.6875 44.5742 57.4219 44.3594 57.1094 44.2109C56.8047 44.0625 56.457 43.9883 56.0664 43.9883C55.5117 43.9883 55.0547 44.0938 54.6953 44.3047C54.3359 44.5078 54.0703 44.7891 53.8984 45.1484C53.7344 45.5078 53.6523 45.918 53.6523 46.3789C53.6523 46.8242 53.7383 47.2148 53.9102 47.5508C54.082 47.8867 54.375 48.1914 54.7891 48.4648C55.2109 48.7305 55.7891 49 56.5234 49.2734C57.5312 49.6328 58.4023 50.0352 59.1367 50.4805C59.8789 50.918 60.4492 51.4609 60.8477 52.1094C61.2539 52.75 61.457 53.5586 61.457 54.5352C61.457 55.543 61.2227 56.3984 60.7539 57.1016C60.293 57.8047 59.6445 58.3398 58.8086 58.707C57.9805 59.0664 57.0156 59.2461 55.9141 59.2461C55.2188 59.2461 54.5273 59.1562 53.8398 58.9766C53.1602 58.7891 52.543 58.4844 51.9883 58.0625C51.4336 57.6406 50.9922 57.082 50.6641 56.3867C50.3359 55.6836 50.1719 54.8242 50.1719 53.8086H53.0078C53.0078 54.418 53.0898 54.9258 53.2539 55.332C53.418 55.7383 53.6406 56.0586 53.9219 56.293C54.2031 56.5273 54.5156 56.6953 54.8594 56.7969C55.2109 56.8984 55.5625 56.9492 55.9141 56.9492C56.5 56.9492 56.9922 56.8516 57.3906 56.6562C57.7969 56.4531 58.1016 56.1719 58.3047 55.8125C58.5156 55.4453 58.6211 55.0273 58.6211 54.5586Z" fill="#44A08D"/>
</svg>
