<svg width="23" height="22" viewBox="0 0 23 22" fill="none" xmlns="http://www.w3.org/2000/svg">
<path d="M7.57734 3.36504L7.02734 1.79004C6.97734 1.65671 6.98568 1.53171 7.05234 1.41504C7.11901 1.29837 7.21901 1.21504 7.35234 1.16504C7.48568 1.11504 7.61068 1.11921 7.72734 1.17754C7.84401 1.23587 7.92734 1.33171 7.97734 1.46504L8.52734 3.04004C8.57734 3.17337 8.56901 3.29837 8.50235 3.41504C8.43568 3.53171 8.33568 3.61504 8.20234 3.66504C8.06901 3.71504 7.94401 3.71087 7.82734 3.65254C7.71068 3.59421 7.62734 3.49837 7.57734 3.36504ZM11.2773 2.16504V0.665039C11.2773 0.531706 11.3273 0.415039 11.4273 0.315039C11.5273 0.215039 11.644 0.165039 11.7773 0.165039C11.9107 0.165039 12.0273 0.215039 12.1273 0.315039C12.2273 0.415039 12.2773 0.531706 12.2773 0.665039V2.16504C12.2773 2.29837 12.2273 2.41504 12.1273 2.51504C12.0273 2.61504 11.9107 2.66504 11.7773 2.66504C11.644 2.66504 11.5273 2.61504 11.4273 2.51504C11.3273 2.41504 11.2773 2.29837 11.2773 2.16504ZM15.0273 3.04004L15.5773 1.46504C15.6273 1.33171 15.7107 1.23587 15.8273 1.17754C15.944 1.11921 16.069 1.11504 16.2023 1.16504C16.3357 1.21504 16.4357 1.29837 16.5023 1.41504C16.569 1.53171 16.5773 1.65671 16.5273 1.79004L15.9773 3.36504C15.9273 3.49837 15.844 3.59421 15.7273 3.65254C15.6107 3.71087 15.4857 3.71504 15.3523 3.66504C15.219 3.61504 15.119 3.53171 15.0523 3.41504C14.9857 3.29837 14.9773 3.17337 15.0273 3.04004ZM2.62734 21.815C2.41068 21.8484 2.22318 21.8067 2.06484 21.69C1.90651 21.5734 1.81068 21.4067 1.77734 21.19V21.165C1.74401 20.965 1.78984 20.7859 1.91484 20.6275C2.03984 20.4692 2.20234 20.3734 2.40234 20.34L6.95234 19.64C7.18568 19.6067 7.38984 19.5109 7.56484 19.3525C7.73984 19.1942 7.86901 18.9984 7.95234 18.765L8.77734 16.115C8.89401 15.765 8.86485 15.4317 8.68985 15.115C8.51484 14.7984 8.24401 14.5984 7.87735 14.515L7.25234 16.44C7.18568 16.64 7.06484 16.7859 6.88984 16.8775C6.71484 16.9692 6.52734 16.9817 6.32734 16.915C6.12734 16.8484 5.97734 16.7234 5.87734 16.54C5.77734 16.3567 5.76068 16.165 5.82734 15.965L7.82734 9.71504C7.89401 9.49837 7.90234 9.2817 7.85234 9.06504C7.80234 8.84837 7.69401 8.67337 7.52734 8.54004L4.00234 15.19C3.76901 15.64 3.43568 15.9984 3.00234 16.265C2.56901 16.5317 2.08568 16.665 1.55234 16.665H1.52734C1.31068 16.665 1.13151 16.5942 0.989844 16.4525C0.848177 16.3109 0.777344 16.1317 0.777344 15.915C0.777344 15.6984 0.848177 15.5192 0.989844 15.3775C1.13151 15.2359 1.31068 15.165 1.52734 15.165H1.57734C1.81068 15.165 2.02734 15.1067 2.22734 14.99C2.42734 14.8734 2.57734 14.7067 2.67734 14.49L6.62734 7.06504C6.72734 6.8817 6.87734 6.75671 7.07734 6.69004C7.27734 6.62337 7.46901 6.64004 7.65234 6.74004L8.00235 6.94004C8.56901 7.27337 8.96901 7.74004 9.20234 8.34004C9.43568 8.94004 9.45234 9.5567 9.25235 10.19L8.32734 13.09C9.09401 13.2734 9.65651 13.7109 10.0148 14.4025C10.3732 15.0942 10.4357 15.8234 10.2023 16.59L9.37735 19.24C9.21068 19.74 8.93151 20.1567 8.53984 20.49C8.14818 20.8234 7.69401 21.0317 7.17734 21.115L2.62734 21.815ZM16.3773 21.115C15.8607 21.0317 15.4065 20.8234 15.0148 20.49C14.6232 20.1567 14.344 19.74 14.1773 19.24L13.3523 16.59C13.119 15.8234 13.1815 15.0942 13.5398 14.4025C13.8982 13.7109 14.4607 13.2734 15.2273 13.09L14.3023 10.19C14.1023 9.5567 14.119 8.94004 14.3523 8.34004C14.5857 7.74004 14.9857 7.27337 15.5523 6.94004L15.9023 6.74004C16.0857 6.64004 16.2773 6.62337 16.4773 6.69004C16.6773 6.75671 16.8273 6.8817 16.9273 7.06504L20.8773 14.49C20.9773 14.7067 21.1273 14.8734 21.3273 14.99C21.5273 15.1067 21.744 15.165 21.9773 15.165H22.0273C22.244 15.165 22.4232 15.2359 22.5648 15.3775C22.7065 15.5192 22.7773 15.6984 22.7773 15.915C22.7773 16.1317 22.7065 16.3109 22.5648 16.4525C22.4232 16.5942 22.244 16.665 22.0273 16.665H22.0023C21.469 16.665 20.9857 16.5317 20.5523 16.265C20.119 15.9984 19.7857 15.64 19.5523 15.19L16.0273 8.54004C15.8607 8.67337 15.7523 8.84837 15.7023 9.06504C15.6523 9.2817 15.6607 9.49837 15.7273 9.71504L17.7273 15.99C17.794 16.19 17.7773 16.3775 17.6773 16.5525C17.5773 16.7275 17.4273 16.8484 17.2273 16.915C17.0273 16.9817 16.8398 16.9692 16.6648 16.8775C16.4898 16.7859 16.369 16.64 16.3023 16.44L15.6773 14.515C15.3107 14.5984 15.0398 14.7984 14.8648 15.115C14.6898 15.4317 14.6607 15.765 14.7773 16.115L15.6023 18.765C15.6857 18.9984 15.8148 19.1942 15.9898 19.3525C16.1648 19.5109 16.369 19.6067 16.6023 19.64L21.1523 20.34C21.3523 20.3734 21.5148 20.4692 21.6398 20.6275C21.7648 20.7859 21.8107 20.965 21.7773 21.165V21.19C21.744 21.4067 21.6482 21.5734 21.4898 21.69C21.3315 21.8067 21.144 21.8484 20.9273 21.815L16.3773 21.115Z" fill="black"/>
</svg>
