<svg width="19" height="22" viewBox="0 0 19 22" fill="none" xmlns="http://www.w3.org/2000/svg">
<path d="M7.52734 2.47168C7.31068 2.47168 7.13151 2.40085 6.98984 2.25918C6.84818 2.11751 6.77734 1.93835 6.77734 1.72168C6.77734 1.50501 6.84818 1.32585 6.98984 1.18418C7.13151 1.04251 7.31068 0.97168 7.52734 0.97168H12.0273C12.244 0.97168 12.4232 1.04251 12.5648 1.18418C12.7065 1.32585 12.7773 1.50501 12.7773 1.72168C12.7773 1.93835 12.7065 2.11751 12.5648 2.25918C12.4232 2.40085 12.244 2.47168 12.0273 2.47168H7.52734ZM9.77734 13.6467C9.99401 13.6467 10.1732 13.5758 10.3148 13.4342C10.4565 13.2925 10.5273 13.1133 10.5273 12.8967V8.64668C10.5273 8.43001 10.4565 8.25085 10.3148 8.10918C10.1732 7.96751 9.99401 7.89668 9.77734 7.89668C9.56068 7.89668 9.38151 7.96751 9.23984 8.10918C9.09818 8.25085 9.02734 8.43001 9.02734 8.64668V12.8967C9.02734 13.1133 9.09818 13.2925 9.23984 13.4342C9.38151 13.5758 9.56068 13.6467 9.77734 13.6467ZM9.77734 21.9467C8.54401 21.9467 7.38151 21.7092 6.28984 21.2342C5.19818 20.7592 4.24401 20.1133 3.42734 19.2967C2.61068 18.48 1.96484 17.5258 1.48984 16.4342C1.01484 15.3425 0.777344 14.18 0.777344 12.9467C0.777344 11.7133 1.01484 10.5508 1.48984 9.45918C1.96484 8.36751 2.61068 7.41335 3.42734 6.59668C4.24401 5.78001 5.19818 5.13418 6.28984 4.65918C7.38151 4.18418 8.54401 3.94668 9.77734 3.94668C10.894 3.94668 11.944 4.13418 12.9273 4.50918C13.9107 4.88418 14.7857 5.40501 15.5523 6.07168L16.3273 5.29668C16.4607 5.16335 16.6273 5.09668 16.8273 5.09668C17.0273 5.09668 17.2023 5.17168 17.3523 5.32168C17.5023 5.47168 17.5773 5.64668 17.5773 5.84668C17.5773 6.04668 17.5023 6.22168 17.3523 6.37168L16.6023 7.12168C17.2023 7.78835 17.7148 8.59668 18.1398 9.54668C18.5648 10.4967 18.7773 11.63 18.7773 12.9467C18.7773 14.18 18.5398 15.3425 18.0648 16.4342C17.5898 17.5258 16.944 18.48 16.1273 19.2967C15.3107 20.1133 14.3565 20.7592 13.2648 21.2342C12.1732 21.7092 11.0107 21.9467 9.77734 21.9467ZM9.77734 20.4467C11.8607 20.4467 13.6315 19.7175 15.0898 18.2592C16.5482 16.8008 17.2773 15.03 17.2773 12.9467C17.2773 10.8633 16.5482 9.09251 15.0898 7.63418C13.6315 6.17585 11.8607 5.44668 9.77734 5.44668C7.69401 5.44668 5.92318 6.17585 4.46484 7.63418C3.00651 9.09251 2.27734 10.8633 2.27734 12.9467C2.27734 15.03 3.00651 16.8008 4.46484 18.2592C5.92318 19.7175 7.69401 20.4467 9.77734 20.4467Z" fill="#49454F"/>
</svg>
