<svg width="42" height="42" viewBox="0 0 42 42" fill="none" xmlns="http://www.w3.org/2000/svg">
<path d="M0.166016 6.41602C0.166016 4.75841 0.824496 3.1687 1.9966 1.9966C3.1687 0.824496 4.75841 0.166016 6.41602 0.166016H29.3327C30.9903 0.166016 32.58 0.824496 33.7521 1.9966C34.9242 3.1687 35.5827 4.75841 35.5827 6.41602V16.8327H16.8327C14.6225 16.8327 12.5029 17.7107 10.9401 19.2735C9.37732 20.8363 8.49935 22.9559 8.49935 25.166V35.5827C8.49935 36.3014 8.59102 36.9994 8.76185 37.666H6.41602C4.75841 37.666 3.1687 37.0075 1.9966 35.8354C0.824496 34.6633 0.166016 33.0736 0.166016 31.416V6.41602ZM7.97852 4.33268C7.56412 4.33268 7.16669 4.4973 6.87366 4.79033C6.58064 5.08335 6.41602 5.48078 6.41602 5.89518C6.41602 6.30958 6.58064 6.70701 6.87366 7.00004C7.16669 7.29306 7.56412 7.45768 7.97852 7.45768H27.7702C28.1846 7.45768 28.582 7.29306 28.875 7.00004C29.1681 6.70701 29.3327 6.30958 29.3327 5.89518C29.3327 5.48078 29.1681 5.08335 28.875 4.79033C28.582 4.4973 28.1846 4.33268 27.7702 4.33268H7.97852ZM12.1452 10.5827C11.7308 10.5827 11.3334 10.7473 11.0403 11.0403C10.7473 11.3334 10.5827 11.7308 10.5827 12.1452C10.5827 12.5596 10.7473 12.957 11.0403 13.25C11.3334 13.5431 11.7308 13.7077 12.1452 13.7077H27.7702C28.1846 13.7077 28.582 13.5431 28.875 13.25C29.1681 12.957 29.3327 12.5596 29.3327 12.1452C29.3327 11.7308 29.1681 11.3334 28.875 11.0403C28.582 10.7473 28.1846 10.5827 27.7702 10.5827H12.1452ZM11.7243 21.5619C12.3012 20.7434 13.0664 20.0758 13.9555 19.6153C14.8446 19.1548 15.8314 18.915 16.8327 18.916H35.5827C36.5838 18.9157 37.5704 19.1558 38.4594 19.6163C39.3483 20.0767 40.1137 20.7439 40.691 21.5619L26.2077 30.616L11.7243 21.566V21.5619ZM10.6118 24.5535C10.591 24.7556 10.5827 24.9577 10.5827 25.166V35.5827C10.5827 37.2403 11.2412 38.83 12.4133 40.0021C13.5854 41.1742 15.1751 41.8327 16.8327 41.8327H35.5827C37.2403 41.8327 38.83 41.1742 40.0021 40.0021C41.1742 38.83 41.8327 37.2403 41.8327 35.5827V25.166C41.8327 24.9577 41.8223 24.7556 41.8035 24.5535L27.0368 33.7827C26.7883 33.9383 26.5009 34.0208 26.2077 34.0208C25.9144 34.0208 25.6271 33.9383 25.3785 33.7827L10.6118 24.5535Z" fill="#44A08D"/>
</svg>
