<svg width="150" height="150" viewBox="0 0 150 150" fill="none" xmlns="http://www.w3.org/2000/svg">
<path d="M106.561 118.439C130.552 101.009 135.87 67.4303 118.439 43.4393C101.009 19.4484 67.4304 14.13 43.4394 31.5605C19.4485 48.9909 14.1302 82.5696 31.5606 106.561C48.9911 130.552 82.5697 135.87 106.561 118.439Z" fill="#44A08D"/>
<path fill-rule="evenodd" clip-rule="evenodd" d="M41.9107 46.8112C44.3511 43.9083 53.8169 33.4832 69.848 31.7535C84.7631 30.1354 95.6639 37.2855 98.9783 39.4595L99.0334 39.4956C99.0335 39.4957 99.0337 39.4958 99.0338 39.4959C103.4 42.3581 106.274 45.3652 107.334 46.5172M41.9107 46.8112C40.1873 48.8428 29.6496 61.6938 31.8552 79.8533C33.8323 96.1375 45.1911 109.448 57.9808 114.289L57.982 114.289C61.8379 115.746 66.4873 116.682 70.3988 116.868C72.3455 116.961 74.2457 116.874 75.8296 116.503C77.2465 116.17 79.2087 115.421 80.0489 113.528L80.0574 113.509C80.8247 111.74 80.1762 110.001 79.6364 108.965C79.0434 107.827 78.181 106.764 77.4223 105.934C76.4815 104.904 74.8839 104.831 73.8539 105.772C72.824 106.713 72.7517 108.31 73.6924 109.34C74.3337 110.042 74.8594 110.729 75.1562 111.299C75.1801 111.345 75.2012 111.387 75.2198 111.426C75.0874 111.475 74.91 111.53 74.6756 111.585C73.7256 111.808 72.343 111.903 70.6384 111.822C67.2475 111.661 63.1203 110.831 59.7676 109.564C48.7309 105.386 38.6199 93.6577 36.8699 79.2444C34.9307 63.2777 44.2539 51.8574 45.7663 50.0751L45.774 50.0659C47.9442 47.4838 56.3224 38.2933 70.3913 36.7758L70.3928 36.7756C83.5052 35.3531 93.1376 41.6701 96.2579 43.7165L96.2639 43.7204C100.143 46.263 102.697 48.9377 103.617 49.9374L103.62 49.9406C108.855 55.6117 110.904 61.3032 111.45 62.9006C111.47 62.9672 111.546 63.2186 111.617 63.427C112.246 65.3926 114.105 71.317 113.219 77.0029C112.977 78.5276 112.606 80.8603 111.742 82.9816C110.858 85.1527 109.696 86.524 108.218 86.9698L108.214 86.971C106.777 87.4069 105.108 86.9791 103.451 86.0667C101.847 85.1832 100.675 84.0722 100.477 83.8787C99.4776 82.9052 97.8785 82.9259 96.9049 83.925C95.9314 84.924 95.9521 86.5231 96.9512 87.4967C97.2879 87.8248 98.8349 89.2916 101.014 90.4917C103.141 91.6627 106.319 92.8238 109.678 91.8059C113.342 90.7002 115.326 87.5747 116.42 84.887C117.509 82.2135 117.955 79.3966 118.192 77.8939L118.21 77.7844C119.294 70.8322 117.074 63.9021 116.438 61.9176L116.42 61.8593C116.413 61.8385 116.406 61.8179 116.399 61.7973C116.377 61.7361 116.358 61.675 116.337 61.6063C116.326 61.5697 116.316 61.5377 116.303 61.4954C116.292 61.4575 116.277 61.4087 116.262 61.3594C116.256 61.3414 116.25 61.3235 116.244 61.3056C115.618 59.4732 113.298 52.9785 107.334 46.5172M75.3556 111.802C75.3555 111.802 75.355 111.799 75.3547 111.793C75.3556 111.8 75.3558 111.803 75.3556 111.802Z" fill="white"/>
<path d="M73.9529 112.16L54.4673 85.3402C52.5125 82.6497 51.7233 79.7369 52.1411 76.6234C52.5216 73.4591 53.9357 71.0008 56.4049 69.2068L58.7208 67.5243C59.3677 67.0542 60.0349 66.9338 60.7559 67.1384C61.4523 67.309 62.0106 67.6838 62.4559 68.2967C62.9014 68.9098 63.0976 69.5736 63.0695 70.3227C63.0164 71.0376 62.6835 71.6179 62.0365 72.088L60.7254 73.0406C59.3801 74.018 58.5947 75.2649 58.3402 76.7768C58.0856 78.2884 58.4642 79.7047 59.4168 81.0158L63.116 86.1073L69.672 81.3441C70.1146 81.0225 70.6037 80.9795 71.173 81.19C71.7176 81.3668 72.1757 81.7105 72.5717 82.2554C72.9676 82.8003 73.165 83.359 73.1897 83.9656C73.1893 84.5383 72.968 84.9855 72.5423 85.2947L65.9863 90.0579L79.2613 108.329C79.6324 108.84 79.6569 109.447 79.3765 110.171C79.0542 110.873 78.5354 111.484 77.7861 112.029C77.054 112.561 76.3127 112.865 75.5792 112.93C74.8426 112.918 74.3118 112.654 73.9529 112.16Z" fill="white"/>
<path fill-rule="evenodd" clip-rule="evenodd" d="M56.4673 69.2918C54.0229 71.0678 52.6232 73.4991 52.2461 76.6358L52.2459 76.6373C51.832 79.7219 52.6128 82.6078 54.553 85.2782L74.0386 112.098C74.3743 112.56 74.8702 112.812 75.5759 112.824C76.2845 112.761 77.0061 112.465 77.7247 111.943C78.4609 111.408 78.9664 110.812 79.28 110.13C79.5507 109.429 79.52 108.864 79.1767 108.391L65.8398 90.0345L72.481 85.2094C72.8768 84.9219 73.084 84.5082 73.0849 83.9675C73.0608 83.384 72.8712 82.8459 72.487 82.3171C72.1023 81.7876 71.6616 81.4589 71.1411 81.2899L71.137 81.2886C70.5947 81.0881 70.1438 81.1317 69.7344 81.4291L63.0933 86.2542L59.3322 81.0775C58.3649 79.7462 57.9771 78.3017 58.237 76.7591C58.4963 75.2183 59.298 73.9478 60.664 72.9553L61.9752 72.0027C62.599 71.5495 62.9139 70.9969 62.9649 70.3167C62.9918 69.5915 62.8023 68.9516 62.3713 68.3584C61.9402 67.765 61.4029 67.405 60.7314 67.2404L60.7277 67.2395C60.0391 67.0442 59.4052 67.1573 58.7831 67.6092L56.4673 69.2918ZM52.0372 76.61C52.4211 73.4183 53.8497 70.9334 56.3436 69.1215L58.6594 67.439C59.3308 66.9512 60.0306 66.8234 60.7833 67.0364C61.5037 67.2134 62.0825 67.6028 62.5416 68.2347C63.0012 68.8672 63.2042 69.5543 63.1752 70.3265L63.175 70.3304C63.1195 71.0789 62.7685 71.6865 62.0989 72.173L60.7877 73.1256C59.4633 74.0879 58.6941 75.3112 58.4445 76.7941C58.1951 78.2747 58.5646 79.6629 59.5025 80.9538L63.1398 85.9602L69.6107 81.2588C70.086 80.9135 70.6124 80.8707 71.2081 81.0904C71.7757 81.2751 72.2507 81.6337 72.6573 82.1934C73.0645 82.7538 73.2698 83.3323 73.2953 83.9612L73.2955 83.9655C73.2951 84.5692 73.0597 85.0491 72.6047 85.3797L66.1338 90.0811L79.347 108.267C79.7454 108.816 79.764 109.463 79.4752 110.209L79.474 110.212L79.4727 110.215C79.1416 110.936 78.6099 111.56 77.8485 112.114C77.1047 112.654 76.3456 112.968 75.589 113.035L75.5836 113.035L75.5781 113.035C74.8135 113.023 74.2494 112.746 73.8683 112.222L54.3827 85.4019C52.4135 82.6915 51.6158 79.7521 52.0372 76.61Z" fill="white"/>
<path d="M77.7717 85.4741L89.2404 101.259C89.5249 101.651 89.9352 101.821 90.4657 101.8C91.0431 101.771 91.6359 101.548 92.2321 101.115C92.7257 100.757 93.0523 100.311 93.2414 99.7834C93.426 99.2852 93.3904 98.8425 93.1059 98.4509L92.0914 97.0547C94.6505 98.2134 97.0879 97.9513 99.4379 96.244C100.579 95.4151 101.341 94.3154 101.694 92.9399C102.089 91.586 102.107 90.1422 101.713 88.6332C102.006 88.7848 101.04 84.9852 100.31 83.9807L93.1966 74.1893C92.8748 73.7464 92.423 73.5544 91.8242 73.6254C91.2839 73.7057 90.7329 73.9498 90.1539 74.3704C89.6261 74.7539 89.2407 75.1902 88.9804 75.6916C88.7447 76.2268 88.7708 76.7281 89.0926 77.171L96.194 86.9452C97.0477 88.1202 97.3831 89.3336 97.1951 90.615C97.0413 91.8712 96.4621 92.8644 95.4744 93.5821C94.4868 94.2996 93.3755 94.5608 92.1113 94.3604C90.8811 94.1355 89.806 93.4075 88.9029 92.1646L81.8757 82.4924C81.6282 82.1518 81.2012 81.9939 80.5652 82.0136C79.9461 82.0211 79.3533 82.2438 78.8086 82.6395C78.2296 83.0602 77.8515 83.5429 77.6703 84.1169C77.4891 84.6909 77.5366 85.1505 77.7717 85.4741Z" fill="white"/>
<path fill-rule="evenodd" clip-rule="evenodd" d="M88.8875 75.6439C89.1563 75.1262 89.5533 74.6779 90.0925 74.2861C90.6814 73.8583 91.2481 73.6056 91.8093 73.5221L91.8124 73.5217C92.126 73.4845 92.4073 73.5156 92.6551 73.6182C92.9033 73.7211 93.1114 73.8932 93.2822 74.1283L100.396 83.9197C100.587 84.1829 100.789 84.6201 100.977 85.1161C101.167 85.6148 101.348 86.1824 101.497 86.7129C101.646 87.2431 101.763 87.7389 101.824 88.0943C101.855 88.2706 101.873 88.418 101.873 88.519C101.873 88.5657 101.869 88.6189 101.85 88.6606C101.847 88.6682 101.842 88.6772 101.836 88.6864C102.213 90.1837 102.19 91.6196 101.796 92.9686C101.436 94.3675 100.66 95.4873 99.5002 96.3299C98.3131 97.1925 97.0992 97.6931 95.8551 97.8295C94.7241 97.9535 93.5735 97.776 92.4016 97.3026L93.1915 98.3899C93.5003 98.8148 93.5351 99.2955 93.3408 99.8201C93.1445 100.368 92.8049 100.83 92.2944 101.201C91.6851 101.644 91.0732 101.875 90.4716 101.906L90.4705 101.906C89.9115 101.929 89.4646 101.747 89.1558 101.322L77.6871 85.5368C77.4256 85.1768 77.3832 84.679 77.5705 84.086C77.7599 83.486 78.1543 82.986 78.7473 82.5552C79.306 82.1492 79.9192 81.9172 80.5634 81.9092C81.2156 81.8892 81.6848 82.0507 81.9613 82.4313L88.9886 92.1035C89.8789 93.3289 90.9317 94.0382 92.1295 94.2574C93.3667 94.4533 94.4493 94.198 95.413 93.4977C96.3764 92.7978 96.9408 91.8312 97.0912 90.603L97.0915 90.6006C97.2749 89.3501 96.9493 88.1639 96.1094 87.0079L89.008 77.2337C88.6608 76.7558 88.6363 76.2138 88.8846 75.65L88.8859 75.6469L88.8875 75.6439ZM89.0759 75.7379C88.8543 76.2433 88.8825 76.7029 89.1783 77.11L96.2797 86.8842C97.1468 88.0778 97.492 89.318 97.2999 90.6299C97.1425 91.9135 96.5486 92.9329 95.5367 93.668C94.5257 94.4026 93.386 94.6698 92.0953 94.4651L92.0929 94.4647C90.8308 94.2341 89.7338 93.4873 88.8183 92.2272L81.791 82.5551C81.5729 82.2548 81.1884 82.1004 80.569 82.1197L80.567 82.1197C79.9734 82.1269 79.4013 82.3402 78.871 82.7255C78.3059 83.136 77.9442 83.6014 77.7712 84.1494C77.5959 84.7044 77.6486 85.1257 77.8574 85.413L89.326 101.198C89.5861 101.556 89.9596 101.716 90.4614 101.696C91.0145 101.668 91.5878 101.455 92.1707 101.031C92.6474 100.685 92.9609 100.256 93.1428 99.7487L93.1432 99.7476C93.3179 99.2762 93.2814 98.8717 93.0212 98.5136L91.773 96.7956L92.1353 96.9596C93.4003 97.5324 94.6305 97.7521 95.8321 97.6203C97.0339 97.4885 98.2137 97.0045 99.3765 96.1597C100.498 95.3448 101.245 94.2657 101.593 92.9145L101.594 92.9112C101.983 91.5767 102.001 90.1523 101.612 88.6606L101.552 88.4316L101.662 88.4884C101.659 88.4058 101.644 88.2844 101.617 88.1302C101.557 87.7844 101.442 87.296 101.294 86.7697C101.147 86.2437 100.968 85.6824 100.781 85.191C100.593 84.6968 100.399 84.2824 100.226 84.0434L93.1119 74.252C92.961 74.0442 92.7824 73.8988 92.5745 73.8127C92.3666 73.7265 92.1232 73.697 91.8387 73.7306C91.3198 73.808 90.7848 74.0433 90.2162 74.4564C89.701 74.8308 89.3276 75.2542 89.0759 75.7379Z" fill="white"/>
<path d="M79.758 100.135L68.277 84.3324C67.9923 83.9406 67.9569 83.4982 68.1414 82.9998C68.3474 82.4599 68.7423 81.9649 69.3383 81.5319C69.8322 81.1731 70.3568 80.9999 70.917 80.9832C71.4477 80.9619 71.8578 81.1322 72.1425 81.524L73.157 82.9203C72.8455 80.1286 73.8478 77.8912 76.1977 76.1838C77.3386 75.3549 78.6201 74.9704 80.0375 75.0592C81.4475 75.1017 82.8259 75.531 84.1394 76.3719C83.8588 74.6247 84.0172 73.0524 84.586 71.6507C85.1636 70.19 86.023 69.0454 87.198 68.1917C89.0371 66.8555 91.1451 66.3908 93.483 66.8514C95.8304 67.2534 97.86 68.6146 99.5551 70.9476L106.582 80.6198C106.83 80.9604 106.848 81.4153 106.633 82.0141C106.435 82.6004 106.04 83.0954 105.495 83.4913C104.967 83.8749 104.408 84.0726 103.789 84.0801C103.17 84.0875 102.726 83.9419 102.479 83.6013L95.4637 73.9461C94.5358 72.669 93.4481 71.9242 92.1964 71.741C90.9324 71.5408 89.838 71.7893 88.8674 72.4945C87.9137 73.1874 87.3051 74.1761 87.088 75.4524C86.8875 76.7167 87.2352 77.947 88.1262 79.1733L95.2276 88.9475C95.5491 89.3901 95.5922 89.8791 95.3398 90.4269C95.0964 90.9159 94.6939 91.3644 94.1148 91.785C93.5871 92.1685 93.0532 92.4005 92.4959 92.4931C91.9139 92.5516 91.4452 92.3718 91.1236 91.9292L84.0468 82.1888C83.1931 81.0138 82.1429 80.3201 80.8662 80.1029C79.6238 79.8608 78.4999 80.1049 77.5124 80.8223C76.5249 81.5398 75.9332 82.5163 75.733 83.7803C75.5668 85.02 75.9268 86.2673 76.83 87.5104L83.8571 97.1824C84.1045 97.5229 84.123 97.9781 83.9076 98.5769C83.709 99.1631 83.3143 99.6584 82.7696 100.054C82.1906 100.475 81.6145 100.685 81.0128 100.68C80.4153 100.646 79.9931 100.458 79.758 100.135Z" fill="white"/>
<path fill-rule="evenodd" clip-rule="evenodd" d="M73.7758 79.1885C73.2792 80.2906 73.1081 81.5285 73.2621 82.9085L73.3062 83.3038L72.0579 81.5857C71.7976 81.2274 71.4241 81.0681 70.9217 81.0882L70.9207 81.0882C70.3818 81.1043 69.8776 81.2703 69.4007 81.6169C68.8179 82.0402 68.4378 82.5196 68.2404 83.0366C68.066 83.5081 68.1025 83.9122 68.3627 84.2704L79.8437 100.073C80.0527 100.36 80.4373 100.541 81.0167 100.575C81.5903 100.579 82.144 100.379 82.7083 99.9688C83.2385 99.5835 83.6181 99.1051 83.8085 98.543L83.8091 98.5411C84.0188 97.958 83.9907 97.5444 83.7725 97.2441L76.7454 87.5721C75.8298 86.3118 75.4587 85.038 75.6292 83.7662L75.6295 83.7637C75.8339 82.4732 76.4401 81.4716 77.4511 80.737C78.4626 80.0021 79.6159 79.7521 80.8856 79.9992C82.1926 80.2219 83.2653 80.9332 84.1325 82.1268L91.2093 91.8672C91.5048 92.274 91.9332 92.4429 92.4825 92.3885C93.0204 92.2986 93.5382 92.0741 94.0535 91.6998C94.6221 91.2866 95.0114 90.8508 95.2454 90.3813C95.3651 90.1209 95.4122 89.8802 95.3945 89.6559C95.3768 89.4316 95.2938 89.2169 95.1429 89.0092L88.0415 79.235C87.1377 77.9909 86.7789 76.733 86.9846 75.4358L86.9847 75.4346C87.2062 74.1329 87.8288 73.1192 88.8061 72.4092C89.8007 71.6866 90.9234 71.4327 92.2128 71.6368C93.4996 71.8254 94.6099 72.591 95.5493 73.8841L102.564 83.5393C102.782 83.8384 103.182 83.982 103.788 83.9747C104.384 83.9675 104.921 83.778 105.433 83.406C105.964 83.0205 106.344 82.5423 106.533 81.9802L106.534 81.9783C106.744 81.3952 106.716 80.9818 106.498 80.6815L99.4704 71.0093C97.7881 68.6938 95.7809 67.3514 93.4658 66.955L93.4632 66.9545C91.1532 66.4994 89.0752 66.9581 87.2604 68.2767C86.1031 69.1175 85.2554 70.2453 84.6844 71.6892L84.684 71.6901C84.1234 73.0718 83.9658 74.6242 84.2438 76.3551L84.2811 76.5871L84.0831 76.4604C82.7847 75.6291 81.4247 75.2061 80.0349 75.1642L80.0315 75.1641C78.639 75.0769 77.3816 75.454 76.2601 76.2688C75.0973 77.1137 74.2724 78.0862 73.7758 79.1885ZM73.5839 79.102C74.098 77.9608 74.9492 76.9611 76.1364 76.0985C77.2962 75.2559 78.6012 74.864 80.0429 74.9539C81.4027 74.9951 82.7324 75.3914 84.0019 76.1617C83.7673 74.4882 83.9369 72.9719 84.4888 71.6114C85.0731 70.1342 85.9441 68.9728 87.1366 68.1064C88.9997 66.7528 91.1372 66.282 93.5026 66.7477C95.8817 67.1555 97.9333 68.5355 99.6407 70.8856L106.668 80.5578C106.945 80.9384 106.953 81.4346 106.733 82.0486C106.526 82.6587 106.116 83.1702 105.557 83.5763C105.013 83.9714 104.434 84.1774 103.791 84.1851C103.159 84.1928 102.672 84.045 102.394 83.663L95.379 74.0078C94.463 72.747 93.3981 72.023 92.1817 71.8449L92.1805 71.8447C90.942 71.6486 89.8763 71.8918 88.9298 72.5795C87.9999 73.2551 87.4052 74.2187 87.1923 75.4693C86.9973 76.7004 87.3339 77.9029 88.2118 79.1112L95.3132 88.8855C95.4839 89.1204 95.5832 89.3715 95.6043 89.6393C95.6254 89.9067 95.5681 90.1839 95.4359 90.4708L95.4346 90.4736C95.1818 90.9817 94.7661 91.4422 94.1772 91.87C93.6381 92.2617 93.0891 92.5011 92.5137 92.5967L92.5103 92.5973L92.507 92.5976C91.8939 92.6592 91.386 92.4685 91.039 91.9909L83.9622 82.2505C83.1223 81.0945 82.095 80.4185 80.849 80.2065L80.8466 80.2061C79.6319 79.9694 78.538 80.2075 77.5748 80.9073C76.6111 81.6075 76.0338 82.5584 75.8376 83.7954C75.6762 85.0025 76.0252 86.2228 76.9157 87.4484L83.9428 97.1204C84.2193 97.501 84.2282 97.9974 84.0075 98.6115C83.8006 99.2214 83.3907 99.7331 82.832 100.139C82.239 100.57 81.6414 100.79 81.0124 100.785L81.0098 100.785L81.0072 100.785C80.3931 100.75 79.9343 100.556 79.6734 100.196L68.1924 84.3941C67.8834 83.9688 67.8489 83.4881 68.0432 82.9631L68.0435 82.9621C68.2582 82.3995 68.6679 81.8891 69.2769 81.4466C69.7876 81.0756 70.3325 80.8953 70.9138 80.8778C71.4727 80.8556 71.9192 81.0367 72.2282 81.462L73.0181 82.5492C72.93 81.2885 73.1165 80.1394 73.5839 79.102Z" fill="white"/>
</svg>
