<svg width="226" height="16" viewBox="0 0 226 16" fill="none" xmlns="http://www.w3.org/2000/svg">
<line x1="0.5" y1="7.5" x2="39.5" y2="7.5" stroke="#BEBEBE" stroke-opacity="0.5" stroke-linecap="round"/>
<path d="M56.918 7.70898V8.33789C56.918 9.08529 56.8245 9.75521 56.6377 10.3477C56.4508 10.9401 56.182 11.4437 55.8311 11.8584C55.4801 12.2731 55.0586 12.5898 54.5664 12.8086C54.0788 13.0273 53.5319 13.1367 52.9258 13.1367C52.3379 13.1367 51.7979 13.0273 51.3057 12.8086C50.818 12.5898 50.3942 12.2731 50.0342 11.8584C49.6787 11.4437 49.403 10.9401 49.207 10.3477C49.0111 9.75521 48.9131 9.08529 48.9131 8.33789V7.70898C48.9131 6.96159 49.0088 6.29395 49.2002 5.70605C49.3962 5.11361 49.6719 4.61003 50.0273 4.19531C50.3828 3.77604 50.8044 3.45703 51.292 3.23828C51.7842 3.01953 52.3242 2.91016 52.9121 2.91016C53.5182 2.91016 54.0651 3.01953 54.5527 3.23828C55.0449 3.45703 55.4665 3.77604 55.8174 4.19531C56.1729 4.61003 56.444 5.11361 56.6309 5.70605C56.8223 6.29395 56.918 6.96159 56.918 7.70898ZM55.6123 8.33789V7.69531C55.6123 7.10286 55.5508 6.57878 55.4277 6.12305C55.3092 5.66732 55.1338 5.28451 54.9014 4.97461C54.6689 4.66471 54.3841 4.43001 54.0469 4.27051C53.7142 4.111 53.3359 4.03125 52.9121 4.03125C52.502 4.03125 52.1305 4.111 51.7979 4.27051C51.4697 4.43001 51.1872 4.66471 50.9502 4.97461C50.7178 5.28451 50.5378 5.66732 50.4102 6.12305C50.2826 6.57878 50.2188 7.10286 50.2188 7.69531V8.33789C50.2188 8.9349 50.2826 9.46354 50.4102 9.92383C50.5378 10.3796 50.7201 10.7646 50.957 11.0791C51.1986 11.389 51.4834 11.6237 51.8115 11.7832C52.1442 11.9427 52.5156 12.0225 52.9258 12.0225C53.3542 12.0225 53.7347 11.9427 54.0674 11.7832C54.4001 11.6237 54.6803 11.389 54.9082 11.0791C55.1406 10.7646 55.3161 10.3796 55.4346 9.92383C55.5531 9.46354 55.6123 8.9349 55.6123 8.33789ZM59.9668 6.76562V13H58.7021V5.60352H59.9326L59.9668 6.76562ZM62.2773 5.5625L62.2705 6.73828C62.1657 6.71549 62.0654 6.70182 61.9697 6.69727C61.8786 6.68815 61.7738 6.68359 61.6553 6.68359C61.3636 6.68359 61.1061 6.72917 60.8828 6.82031C60.6595 6.91146 60.4704 7.03906 60.3154 7.20312C60.1605 7.36719 60.0374 7.56315 59.9463 7.79102C59.8597 8.01432 59.8027 8.26042 59.7754 8.5293L59.4199 8.73438C59.4199 8.28776 59.4632 7.86849 59.5498 7.47656C59.641 7.08464 59.7799 6.73828 59.9668 6.4375C60.1536 6.13216 60.3906 5.89518 60.6777 5.72656C60.9694 5.55339 61.3158 5.4668 61.7168 5.4668C61.8079 5.4668 61.9128 5.47819 62.0312 5.50098C62.1497 5.51921 62.2318 5.53971 62.2773 5.5625ZM68.9971 12.2344L71.0547 5.60352H72.4082L69.4414 14.1416C69.373 14.3239 69.2819 14.5199 69.168 14.7295C69.0586 14.9437 68.9173 15.1465 68.7441 15.3379C68.571 15.5293 68.3613 15.6842 68.1152 15.8027C67.8737 15.9258 67.5843 15.9873 67.2471 15.9873C67.1468 15.9873 67.0192 15.9736 66.8643 15.9463C66.7093 15.9189 66.5999 15.8962 66.5361 15.8779L66.5293 14.8525C66.5658 14.8571 66.6227 14.8617 66.7002 14.8662C66.7822 14.8753 66.8392 14.8799 66.8711 14.8799C67.1582 14.8799 67.402 14.8411 67.6025 14.7637C67.8031 14.6908 67.9717 14.5654 68.1084 14.3877C68.2497 14.2145 68.3704 13.9753 68.4707 13.6699L68.9971 12.2344ZM67.4863 5.60352L69.4072 11.3457L69.7354 12.6787L68.8262 13.1436L66.1055 5.60352H67.4863ZM73.1055 9.38379V9.22656C73.1055 8.69336 73.1829 8.19889 73.3379 7.74316C73.4928 7.28288 73.7161 6.88411 74.0078 6.54688C74.2995 6.20508 74.6527 5.94076 75.0674 5.75391C75.4821 5.5625 75.9469 5.4668 76.4619 5.4668C76.9814 5.4668 77.4486 5.5625 77.8633 5.75391C78.2826 5.94076 78.638 6.20508 78.9297 6.54688C79.2259 6.88411 79.4515 7.28288 79.6064 7.74316C79.7614 8.19889 79.8389 8.69336 79.8389 9.22656V9.38379C79.8389 9.91699 79.7614 10.4115 79.6064 10.8672C79.4515 11.3229 79.2259 11.7217 78.9297 12.0635C78.638 12.4007 78.2848 12.665 77.8701 12.8564C77.46 13.0433 76.9951 13.1367 76.4756 13.1367C75.9561 13.1367 75.4889 13.0433 75.0742 12.8564C74.6595 12.665 74.304 12.4007 74.0078 12.0635C73.7161 11.7217 73.4928 11.3229 73.3379 10.8672C73.1829 10.4115 73.1055 9.91699 73.1055 9.38379ZM74.3701 9.22656V9.38379C74.3701 9.75293 74.4134 10.1016 74.5 10.4297C74.5866 10.7533 74.7165 11.0404 74.8896 11.291C75.0674 11.5417 75.2884 11.7399 75.5527 11.8857C75.8171 12.027 76.1247 12.0977 76.4756 12.0977C76.8219 12.0977 77.125 12.027 77.3848 11.8857C77.6491 11.7399 77.8678 11.5417 78.041 11.291C78.2142 11.0404 78.3441 10.7533 78.4307 10.4297C78.5218 10.1016 78.5674 9.75293 78.5674 9.38379V9.22656C78.5674 8.86198 78.5218 8.5179 78.4307 8.19434C78.3441 7.86621 78.2119 7.57682 78.0342 7.32617C77.861 7.07096 77.6423 6.87044 77.3779 6.72461C77.1182 6.57878 76.8128 6.50586 76.4619 6.50586C76.1156 6.50586 75.8102 6.57878 75.5459 6.72461C75.2861 6.87044 75.0674 7.07096 74.8896 7.32617C74.7165 7.57682 74.5866 7.86621 74.5 8.19434C74.4134 8.5179 74.3701 8.86198 74.3701 9.22656ZM85.9502 11.291V5.60352H87.2217V13H86.0117L85.9502 11.291ZM86.1895 9.73242L86.7158 9.71875C86.7158 10.2109 86.6634 10.6667 86.5586 11.0859C86.4583 11.5007 86.2943 11.8607 86.0664 12.166C85.8385 12.4714 85.54 12.7106 85.1709 12.8838C84.8018 13.0524 84.3529 13.1367 83.8242 13.1367C83.4642 13.1367 83.1338 13.0843 82.833 12.9795C82.5368 12.8747 82.2816 12.7129 82.0674 12.4941C81.8532 12.2754 81.6868 11.9906 81.5684 11.6396C81.4544 11.2887 81.3975 10.8672 81.3975 10.375V5.60352H82.6621V10.3887C82.6621 10.7214 82.6986 10.9971 82.7715 11.2158C82.849 11.43 82.9515 11.6009 83.0791 11.7285C83.2113 11.8516 83.3571 11.9382 83.5166 11.9883C83.6807 12.0384 83.8493 12.0635 84.0225 12.0635C84.5602 12.0635 84.9863 11.9609 85.3008 11.7559C85.6152 11.5462 85.8408 11.266 85.9775 10.915C86.1188 10.5596 86.1895 10.1654 86.1895 9.73242ZM95.582 12.0977C95.8828 12.0977 96.1608 12.0361 96.416 11.9131C96.6712 11.79 96.8809 11.6214 97.0449 11.4072C97.209 11.1885 97.3024 10.9401 97.3252 10.6621H98.5283C98.5055 11.0996 98.3574 11.5075 98.084 11.8857C97.8151 12.2594 97.4619 12.5625 97.0244 12.7949C96.5869 13.0228 96.1061 13.1367 95.582 13.1367C95.026 13.1367 94.5407 13.0387 94.126 12.8428C93.7158 12.6468 93.374 12.3779 93.1006 12.0361C92.8317 11.6943 92.6289 11.3024 92.4922 10.8604C92.36 10.4137 92.2939 9.94206 92.2939 9.44531V9.1582C92.2939 8.66146 92.36 8.19206 92.4922 7.75C92.6289 7.30339 92.8317 6.90918 93.1006 6.56738C93.374 6.22559 93.7158 5.95671 94.126 5.76074C94.5407 5.56478 95.026 5.4668 95.582 5.4668C96.1608 5.4668 96.6667 5.58529 97.0996 5.82227C97.5326 6.05469 97.8721 6.3737 98.1182 6.7793C98.3688 7.18034 98.5055 7.63607 98.5283 8.14648H97.3252C97.3024 7.84115 97.2158 7.56543 97.0654 7.31934C96.9196 7.07324 96.7191 6.87728 96.4639 6.73145C96.2132 6.58105 95.9193 6.50586 95.582 6.50586C95.1947 6.50586 94.8688 6.58333 94.6045 6.73828C94.3447 6.88867 94.1374 7.09375 93.9824 7.35352C93.832 7.60872 93.7227 7.89355 93.6543 8.20801C93.5905 8.5179 93.5586 8.83464 93.5586 9.1582V9.44531C93.5586 9.76888 93.5905 10.0879 93.6543 10.4023C93.7181 10.7168 93.8252 11.0016 93.9756 11.2568C94.1305 11.512 94.3379 11.7171 94.5977 11.8721C94.862 12.0225 95.1901 12.0977 95.582 12.0977ZM104.312 11.7354V7.92773C104.312 7.63607 104.252 7.38314 104.134 7.16895C104.02 6.9502 103.847 6.78158 103.614 6.66309C103.382 6.5446 103.095 6.48535 102.753 6.48535C102.434 6.48535 102.154 6.54004 101.912 6.64941C101.675 6.75879 101.488 6.90234 101.352 7.08008C101.219 7.25781 101.153 7.44922 101.153 7.6543H99.8887C99.8887 7.38997 99.957 7.12793 100.094 6.86816C100.23 6.6084 100.426 6.3737 100.682 6.16406C100.941 5.94987 101.251 5.78125 101.611 5.6582C101.976 5.5306 102.382 5.4668 102.828 5.4668C103.366 5.4668 103.84 5.55794 104.25 5.74023C104.665 5.92253 104.988 6.19824 105.221 6.56738C105.458 6.93197 105.576 7.38997 105.576 7.94141V11.3867C105.576 11.6328 105.597 11.8949 105.638 12.1729C105.683 12.4508 105.749 12.6901 105.836 12.8906V13H104.517C104.453 12.8542 104.403 12.6605 104.366 12.4189C104.33 12.1729 104.312 11.945 104.312 11.7354ZM104.53 8.51562L104.544 9.4043H103.266C102.906 9.4043 102.584 9.43392 102.302 9.49316C102.019 9.54785 101.782 9.63216 101.591 9.74609C101.399 9.86003 101.254 10.0036 101.153 10.1768C101.053 10.3454 101.003 10.5436 101.003 10.7715C101.003 11.0039 101.055 11.2158 101.16 11.4072C101.265 11.5986 101.422 11.7513 101.632 11.8652C101.846 11.9746 102.108 12.0293 102.418 12.0293C102.805 12.0293 103.147 11.9473 103.443 11.7832C103.74 11.6191 103.974 11.4186 104.147 11.1816C104.325 10.9447 104.421 10.7145 104.435 10.4912L104.975 11.0996C104.943 11.291 104.856 11.5029 104.715 11.7354C104.574 11.9678 104.384 12.1911 104.147 12.4053C103.915 12.6149 103.637 12.7904 103.313 12.9316C102.994 13.0684 102.634 13.1367 102.233 13.1367C101.732 13.1367 101.292 13.0387 100.914 12.8428C100.54 12.6468 100.249 12.3848 100.039 12.0566C99.834 11.724 99.7314 11.3525 99.7314 10.9424C99.7314 10.5459 99.8089 10.1973 99.9639 9.89648C100.119 9.59115 100.342 9.33822 100.634 9.1377C100.925 8.93262 101.276 8.77767 101.687 8.67285C102.097 8.56803 102.555 8.51562 103.061 8.51562H104.53ZM108.83 7.18262V13H107.565V5.60352H108.762L108.83 7.18262ZM108.529 9.02148L108.003 9.00098C108.007 8.49512 108.083 8.02799 108.229 7.59961C108.374 7.16667 108.579 6.79069 108.844 6.47168C109.108 6.15267 109.423 5.90658 109.787 5.7334C110.156 5.55566 110.564 5.4668 111.011 5.4668C111.375 5.4668 111.703 5.51693 111.995 5.61719C112.287 5.71289 112.535 5.86784 112.74 6.08203C112.95 6.29622 113.109 6.57422 113.219 6.91602C113.328 7.25326 113.383 7.66569 113.383 8.15332V13H112.111V8.13965C112.111 7.75228 112.054 7.44238 111.94 7.20996C111.826 6.97298 111.66 6.80208 111.441 6.69727C111.223 6.58789 110.954 6.5332 110.635 6.5332C110.32 6.5332 110.033 6.59928 109.773 6.73145C109.518 6.86361 109.297 7.0459 109.11 7.27832C108.928 7.51074 108.785 7.77734 108.68 8.07812C108.579 8.37435 108.529 8.6888 108.529 9.02148ZM120.15 2.5V13H118.879V2.5H120.15ZM121.846 9.38379V9.22656C121.846 8.69336 121.923 8.19889 122.078 7.74316C122.233 7.28288 122.456 6.88411 122.748 6.54688C123.04 6.20508 123.393 5.94076 123.808 5.75391C124.222 5.5625 124.687 5.4668 125.202 5.4668C125.722 5.4668 126.189 5.5625 126.604 5.75391C127.023 5.94076 127.378 6.20508 127.67 6.54688C127.966 6.88411 128.192 7.28288 128.347 7.74316C128.502 8.19889 128.579 8.69336 128.579 9.22656V9.38379C128.579 9.91699 128.502 10.4115 128.347 10.8672C128.192 11.3229 127.966 11.7217 127.67 12.0635C127.378 12.4007 127.025 12.665 126.61 12.8564C126.2 13.0433 125.735 13.1367 125.216 13.1367C124.696 13.1367 124.229 13.0433 123.814 12.8564C123.4 12.665 123.044 12.4007 122.748 12.0635C122.456 11.7217 122.233 11.3229 122.078 10.8672C121.923 10.4115 121.846 9.91699 121.846 9.38379ZM123.11 9.22656V9.38379C123.11 9.75293 123.154 10.1016 123.24 10.4297C123.327 10.7533 123.457 11.0404 123.63 11.291C123.808 11.5417 124.029 11.7399 124.293 11.8857C124.557 12.027 124.865 12.0977 125.216 12.0977C125.562 12.0977 125.865 12.027 126.125 11.8857C126.389 11.7399 126.608 11.5417 126.781 11.291C126.954 11.0404 127.084 10.7533 127.171 10.4297C127.262 10.1016 127.308 9.75293 127.308 9.38379V9.22656C127.308 8.86198 127.262 8.5179 127.171 8.19434C127.084 7.86621 126.952 7.57682 126.774 7.32617C126.601 7.07096 126.382 6.87044 126.118 6.72461C125.858 6.57878 125.553 6.50586 125.202 6.50586C124.856 6.50586 124.55 6.57878 124.286 6.72461C124.026 6.87044 123.808 7.07096 123.63 7.32617C123.457 7.57682 123.327 7.86621 123.24 8.19434C123.154 8.5179 123.11 8.86198 123.11 9.22656ZM134.957 5.60352H136.105V12.8428C136.105 13.4945 135.973 14.0505 135.709 14.5107C135.445 14.971 135.076 15.3197 134.602 15.5566C134.132 15.7982 133.59 15.9189 132.975 15.9189C132.719 15.9189 132.419 15.8779 132.072 15.7959C131.73 15.7184 131.393 15.584 131.061 15.3926C130.732 15.2057 130.457 14.9528 130.233 14.6338L130.896 13.8818C131.206 14.2555 131.53 14.5153 131.867 14.6611C132.209 14.807 132.546 14.8799 132.879 14.8799C133.28 14.8799 133.626 14.8047 133.918 14.6543C134.21 14.5039 134.435 14.2806 134.595 13.9844C134.759 13.6927 134.841 13.3327 134.841 12.9043V7.23047L134.957 5.60352ZM129.864 9.38379V9.24023C129.864 8.67513 129.93 8.16243 130.062 7.70215C130.199 7.2373 130.393 6.83854 130.644 6.50586C130.899 6.17318 131.206 5.91797 131.566 5.74023C131.926 5.55794 132.332 5.4668 132.783 5.4668C133.248 5.4668 133.654 5.54883 134 5.71289C134.351 5.8724 134.647 6.1071 134.889 6.41699C135.135 6.72233 135.328 7.09147 135.47 7.52441C135.611 7.95736 135.709 8.44727 135.764 8.99414V9.62305C135.714 10.1654 135.616 10.653 135.47 11.0859C135.328 11.5189 135.135 11.888 134.889 12.1934C134.647 12.4987 134.351 12.7334 134 12.8975C133.649 13.057 133.239 13.1367 132.77 13.1367C132.327 13.1367 131.926 13.0433 131.566 12.8564C131.211 12.6696 130.906 12.4076 130.65 12.0703C130.395 11.7331 130.199 11.3366 130.062 10.8809C129.93 10.4206 129.864 9.92155 129.864 9.38379ZM131.129 9.24023V9.38379C131.129 9.75293 131.165 10.0993 131.238 10.4229C131.316 10.7464 131.432 11.0312 131.587 11.2773C131.746 11.5234 131.949 11.7171 132.195 11.8584C132.441 11.9951 132.735 12.0635 133.077 12.0635C133.496 12.0635 133.843 11.9746 134.116 11.7969C134.39 11.6191 134.606 11.3844 134.766 11.0928C134.93 10.8011 135.057 10.4844 135.148 10.1426V8.49512C135.098 8.24447 135.021 8.00293 134.916 7.77051C134.816 7.53353 134.684 7.32389 134.52 7.1416C134.36 6.95475 134.162 6.80664 133.925 6.69727C133.688 6.58789 133.41 6.5332 133.091 6.5332C132.744 6.5332 132.446 6.60612 132.195 6.75195C131.949 6.89323 131.746 7.08919 131.587 7.33984C131.432 7.58594 131.316 7.87305 131.238 8.20117C131.165 8.52474 131.129 8.87109 131.129 9.24023ZM139.4 5.60352V13H138.129V5.60352H139.4ZM138.033 3.6416C138.033 3.43652 138.095 3.26335 138.218 3.12207C138.345 2.98079 138.532 2.91016 138.778 2.91016C139.02 2.91016 139.204 2.98079 139.332 3.12207C139.464 3.26335 139.53 3.43652 139.53 3.6416C139.53 3.83757 139.464 4.00618 139.332 4.14746C139.204 4.28418 139.02 4.35254 138.778 4.35254C138.532 4.35254 138.345 4.28418 138.218 4.14746C138.095 4.00618 138.033 3.83757 138.033 3.6416ZM142.695 7.18262V13H141.431V5.60352H142.627L142.695 7.18262ZM142.395 9.02148L141.868 9.00098C141.873 8.49512 141.948 8.02799 142.094 7.59961C142.24 7.16667 142.445 6.79069 142.709 6.47168C142.973 6.15267 143.288 5.90658 143.652 5.7334C144.021 5.55566 144.429 5.4668 144.876 5.4668C145.241 5.4668 145.569 5.51693 145.86 5.61719C146.152 5.71289 146.4 5.86784 146.605 6.08203C146.815 6.29622 146.975 6.57422 147.084 6.91602C147.193 7.25326 147.248 7.66569 147.248 8.15332V13H145.977V8.13965C145.977 7.75228 145.92 7.44238 145.806 7.20996C145.692 6.97298 145.525 6.80208 145.307 6.69727C145.088 6.58789 144.819 6.5332 144.5 6.5332C144.186 6.5332 143.898 6.59928 143.639 6.73145C143.383 6.86361 143.162 7.0459 142.976 7.27832C142.793 7.51074 142.65 7.77734 142.545 8.07812C142.445 8.37435 142.395 8.6888 142.395 9.02148ZM154.515 11.6875L156.415 5.60352H157.249L157.085 6.81348L155.15 13H154.337L154.515 11.6875ZM153.236 5.60352L154.856 11.7559L154.973 13H154.118L151.972 5.60352H153.236ZM159.067 11.708L160.612 5.60352H161.87L159.724 13H158.876L159.067 11.708ZM157.434 5.60352L159.293 11.585L159.505 13H158.698L156.709 6.7998L156.545 5.60352H157.434ZM164.543 5.60352V13H163.271V5.60352H164.543ZM163.176 3.6416C163.176 3.43652 163.237 3.26335 163.36 3.12207C163.488 2.98079 163.675 2.91016 163.921 2.91016C164.162 2.91016 164.347 2.98079 164.475 3.12207C164.607 3.26335 164.673 3.43652 164.673 3.6416C164.673 3.83757 164.607 4.00618 164.475 4.14746C164.347 4.28418 164.162 4.35254 163.921 4.35254C163.675 4.35254 163.488 4.28418 163.36 4.14746C163.237 4.00618 163.176 3.83757 163.176 3.6416ZM169.67 5.60352V6.57422H165.671V5.60352H169.67ZM167.024 3.80566H168.289V11.168C168.289 11.4186 168.328 11.6077 168.405 11.7354C168.483 11.863 168.583 11.9473 168.706 11.9883C168.829 12.0293 168.961 12.0498 169.103 12.0498C169.207 12.0498 169.317 12.0407 169.431 12.0225C169.549 11.9997 169.638 11.9814 169.697 11.9678L169.704 13C169.604 13.0319 169.472 13.0615 169.308 13.0889C169.148 13.1208 168.954 13.1367 168.727 13.1367C168.417 13.1367 168.132 13.0752 167.872 12.9521C167.612 12.8291 167.405 12.624 167.25 12.3369C167.1 12.0452 167.024 11.6533 167.024 11.1611V3.80566ZM172.418 2.5V13H171.153V2.5H172.418ZM172.117 9.02148L171.591 9.00098C171.595 8.49512 171.671 8.02799 171.816 7.59961C171.962 7.16667 172.167 6.79069 172.432 6.47168C172.696 6.15267 173.01 5.90658 173.375 5.7334C173.744 5.55566 174.152 5.4668 174.599 5.4668C174.963 5.4668 175.291 5.51693 175.583 5.61719C175.875 5.71289 176.123 5.86784 176.328 6.08203C176.538 6.29622 176.697 6.57422 176.807 6.91602C176.916 7.25326 176.971 7.66569 176.971 8.15332V13H175.699V8.13965C175.699 7.75228 175.642 7.44238 175.528 7.20996C175.414 6.97298 175.248 6.80208 175.029 6.69727C174.811 6.58789 174.542 6.5332 174.223 6.5332C173.908 6.5332 173.621 6.59928 173.361 6.73145C173.106 6.86361 172.885 7.0459 172.698 7.27832C172.516 7.51074 172.372 7.77734 172.268 8.07812C172.167 8.37435 172.117 8.6888 172.117 9.02148Z" fill="#49454F" fill-opacity="0.5"/>
<line x1="186.5" y1="7.5" x2="225.5" y2="7.5" stroke="#BEBEBE" stroke-opacity="0.5" stroke-linecap="round"/>
</svg>
